<mxfile host="Electron" agent="Mozilla/5.0 (X11; Linux x86_64) AppleWebKit/537.36 (KHTML, like Gecko) draw.io/27.0.9 Chrome/134.0.6998.205 Electron/35.4.0 Safari/537.36" version="27.0.9">
  <diagram name="Page-1" id="JD1ZPw4lWRtSF9h4depl">
    <mxGraphModel dx="2212" dy="880" grid="1" gridSize="10" guides="1" tooltips="1" connect="1" arrows="1" fold="1" page="1" pageScale="1" pageWidth="850" pageHeight="1100" math="0" shadow="0">
      <root>
        <mxCell id="0" />
        <mxCell id="1" parent="0" />
        <mxCell id="oGxhNb5uJmhNpSwy4LQq-50" value="" style="rounded=1;whiteSpace=wrap;html=1;arcSize=2;strokeColor=none;" vertex="1" parent="1">
          <mxGeometry x="-30" y="390" width="870" height="430" as="geometry" />
        </mxCell>
        <mxCell id="oGxhNb5uJmhNpSwy4LQq-35" value="" style="ellipse;shape=cloud;whiteSpace=wrap;html=1;align=center;fillColor=#fff2cc;strokeColor=#d6b656;fontSize=14;" vertex="1" parent="1">
          <mxGeometry x="145" y="696.5" width="123.5" height="80" as="geometry" />
        </mxCell>
        <mxCell id="oGxhNb5uJmhNpSwy4LQq-37" value="" style="ellipse;shape=cloud;whiteSpace=wrap;html=1;align=center;fillColor=#f8cecc;strokeColor=#b85450;fontSize=14;" vertex="1" parent="1">
          <mxGeometry x="362.75" y="690" width="123.5" height="80" as="geometry" />
        </mxCell>
        <mxCell id="oGxhNb5uJmhNpSwy4LQq-40" value="" style="ellipse;shape=cloud;whiteSpace=wrap;html=1;align=center;fillColor=#bac8d3;strokeColor=#23445d;fontSize=14;" vertex="1" parent="1">
          <mxGeometry x="580.5" y="696.5" width="123.5" height="80" as="geometry" />
        </mxCell>
        <mxCell id="oGxhNb5uJmhNpSwy4LQq-33" value="" style="ellipse;shape=cloud;whiteSpace=wrap;html=1;align=center;fillColor=#e1d5e7;strokeColor=#9673a6;" vertex="1" parent="1">
          <mxGeometry x="657" y="465.5" width="160" height="250" as="geometry" />
        </mxCell>
        <mxCell id="oGxhNb5uJmhNpSwy4LQq-34" value="" style="ellipse;shape=cloud;whiteSpace=wrap;html=1;align=center;fillColor=#d5e8d4;strokeColor=#82b366;" vertex="1" parent="1">
          <mxGeometry x="453" y="470.5" width="160" height="250" as="geometry" />
        </mxCell>
        <mxCell id="oGxhNb5uJmhNpSwy4LQq-32" value="" style="ellipse;shape=cloud;whiteSpace=wrap;html=1;align=center;fillColor=#dae8fc;strokeColor=#6c8ebf;" vertex="1" parent="1">
          <mxGeometry x="230" y="465" width="160" height="250" as="geometry" />
        </mxCell>
        <mxCell id="oGxhNb5uJmhNpSwy4LQq-31" value="Cloud" style="ellipse;shape=cloud;whiteSpace=wrap;html=1;align=center;fillColor=#f5f5f5;fontColor=#333333;strokeColor=#666666;" vertex="1" parent="1">
          <mxGeometry x="26" y="470" width="160" height="250" as="geometry" />
        </mxCell>
        <mxCell id="oGxhNb5uJmhNpSwy4LQq-1" value="" style="shape=image;aspect=fixed;image=data:image/png,iVBORw0KGgoAAAANSUhEUgAAAz0AAAFwCAIAAAAdU4K5AAAAA3NCSVQICAjb4U/gAAAAEHRFWHRTb2Z0d2FyZQBTaHV0dGVyY4LQCQAAIABJREFUeNrsvXeUXMd95/uruqlz7p4cMRgAg0gQAAlmgjlIJCXRkiVLomWvffZ5/Y5tPTnsvn3P3rW1a8vpeI/3yfZalG1ZWiuYtCQmMZMiSBAgiUCAiIPJscPtm0OF90fPgGAUILEHA059Dg7+QPft2+j63l9961dVv0KccxAIBAKBQCAQLHuw+AkEAoFAIBAIhG8TCAQCgUAgEAjfJhAIBAKBQCB8m0AgEAgEAoFA+DaBQCAQCAQCgfBtAoFAIBAIBMK3CQQCgUAgEAiEbxMIBAKBQCAQCN8mEAgEAoFAIHybQCAQCAQCgUD4NoFAIBAIBAKB8G0CgUAgEAgEwrcJBAKBQCAQCIRvEwgEAoFAIBAI3yYQCAQCgUAgfJtAIBAIBAKBQPg2gUAgEAgEAuHbBAKBQCAQCATCtwkEAoFAIBAIhG8TCAQCgUAg+JAji59AIBAIPjRwDpxfrF8eoTf/FggEwrcJBALBh9+3EXKxfnmMQZJEGwoEF49vYwwYu4gjDhbTziujX2Rsuac0JEkkLVauPi/efNvF+80FPzuUXsQCWEoDsOx8G6UXccQRvm2FsPwHGAiJvIVAIBBxdelC7tJ5RKEVgUAgEAgEgosCsb5NIBAIPpTYAOXDL9kBi/Xt7IkhpL715fLhB4+NV18wtt5wec/a7mwMAAFAqIMz+tIB7svpzZf3xvDiVc7oxETtpQOw4bKerjNvPnec0cnJ2ov7f9rLBQLBsvdthNHArFGsKNF0BANgIIx45mzV9gIXEEA8nk6kCwkV4M3pIBbQ0KsZIKlqcuEqAM6AurZDTRelMlFNk89v+ujM5Q5KZc//csGHEA7EdeqmXjV9AAYSQpFUIRuPR6JnxME5UNdxSd2GVCYaiSjSokQ58WoGgKwkM1HpfDPejctNAOmnulywYqBuzbJGy8bhxx8OINqdvbxHQXDGt1HfCqyZk3u/9ejL0389TtOtyYaXgoZv01957kluaD1dl/UosOjb7OGxN4b/6Rvw2VIyd+bN5+Ehh8d/lssFK4sg8EOrRrVkRIurEgCiru/YtXLdY7yxlkpJ5OOJZDYm4TMzlNT1/bBmQDwZiTauAgBGgLp1i4dMSmVjMkbnGXLPvjwq42WxGGrZ+raKY408/o1KrKvz0o9vygKoUHFqhx7//b956sCJfRAFuPb6T97y6S9evwogceYid9yeOviNByC3atUtH9+UAdAAgAWgv7rvxfKjeyJ337d97UAhfX7NFoL+6isvlR9+UbvnF3ec9+WCD6Fto2DsP/jDx/7pf/zbCQAdSmpkwz1f+qXrr16/NfOW9xzaO/udJ+S779u+YX3rwivedFh+9dsPgFTovvMzl2YBIud1a28mLL/ynQcBZbs/8tnzv1ywYjAOP/DkEw9/5YED1dRHL9/VfdfbXh3fM/zIl56udh2H7ZsAZcTvJVheTM2cnnjk/sqGuzatvaIvC4DMoyMvPvW1P/nOYdubAwCA/tt//eqb77pvWy6uLvo28+jIkZH7/w2uuWvLZY2rACCsQm3vo48Ek07x7vt2tMTV+Hl9kbAGtZcffSSYsIt337e9NaHFl8Gvs+x8GwtdZ3T3/iOvPnXg9IGjqy+NZjcBMABz4vWJA9+ZzPZmL1t9c4I5o1XbOPrNF1b/u/WFgcxi50U96lWnJoGkWwOAxY0pDEjdqFZHR6OWR85/28OZyyM/1eWCD9tAkBH99J6Dk1Ne9Irbt0dB8m2m1w8fOS4lk6uu644BKAAAHELT1KunR2TDDd8sy8B87ldnpkDm+fBNiZ67GH3uV2enAJFcCMBEawjeAzW3qntwy607vRdnkm8z987o7tHTR5/0dua685vjmRfHG4o9r85MB2f0pSdfO3piag6Aw0DX4Nor7tpQxFitTziju588MHNiygIAKG3pGxy4aWepcmjvkRdeOj0M3//WGydPX9q35ZbN6HVv7uQT+2cp4xBvgeLWG3b2bujNpkTjrWBCc8Yd3f3swQPPH7IPHFsdNdYMNF6wZinxrMEbBuN8a8IDmK9Njc899uLrvTcNFCL5Rk6Y2q5ZHR0B3fDJmejKQgir5blgyox4jJ93zOQhhLXynD9laD/N5SvEt3HiuxMvH3j28W8+MlZry7c0ukAIKifeOP7kc+z6+6/edPlNpVr1hT+7//Ds3z9+6iNt8b5M5DzmLllAA6dWrjt+GDbmW1OJdDGhAqDADhy9bPh+yAAwaKlEMpaNhYFes/Q529Kmxk8XcihIZFJgeK5Ts0IAADmKtVQxG01ExWLBlYDPaPXknpOG1LH5t37zuiJ0ma9Yhx/4woMTr+3Pf+y6bhXOuRdszKVapl4xAwAKKkLxbEsyHlcVzqhbsyy7YgYAAFIEaalCVlU925yfs00IpOjoqVNBuphTUYIbZSNwAwoAoKbjyUQ+ExWz+SuceP+1O1q6d1za9idfA/OsUTF1a1PHd5+YoSf7fvffrToYjs289Ny7Dk/qjj01duqkLeGFOc3q5OR83eEpCkFQH6+88ciz3336yZdPTapAvS1rrr6ZXdF/VZKnp0+ceuxbDzw79uJwXQUIO+647EZ/8+XRiROHhw/8eGoS6j965eTczJCynteeqB19/m+fnUCUo+RA0OFm2xNdwretbKhTtk899dxDe/71iKq39d7ypqGDeGnV2i/cfU1fZHNJBzj6/d/4/uE9uw99/LpMctG3ndMNFuZbfcYJyADxdCGZTEdUAObqjm2WDZ9xAKyAls6ltRh1g0rZrrt1nY+fPiW1thWikRTUa6ZveQQAQElo8WQxG8WAlyzqLjurgbVEZuvnPl7atPGKV77+WKGj0WJwev509PizN3fdletsBYzVTP+G3tHq2tfnQz+0AM5j7tIdt0d3//NXvvvC4dERiAJce+29N//Cl3b1A+CJfaMvfuMrDxw7PGaAEofV995+x44v3Jo6+dB3Xnx0/56D6MTw1/quumfTLZ+7B/710L49f/vYMABA6470xru/dN/2K9YUNfHYrUAicanY1qcpyvnHKDD2H3r4R//0Vw+eAKjBgBq59pe/fMd1V/X3UGIc/PbDjz/1Vz84AQBQ3Kyt+9iX7hvos/Ydvf//2/cSnLS0557Jrbvn965ZHbmF/Nsff+/YvpNVwDKsvvf6m2/8jc9eWhJ7jgTvHHPMH9X3/v2j1s6guOV3tpdaPO3g2Hu8dezxAz8+8fSzCQktrqEklq31z+Xv1WFi/MCxfb/9VfPG37ztE9de1w/Gq9/bMzv83//lyB9fVusYHb3/f3Vu+vVfuOfqVf0AI8/uCeNWBYqrrrsjwL27A7jzF7bt2JZtw0cf+nN52rv9d76+q1+W8NjU8DMvtcUcA4CLLQsrGDXXn7/6i/+hc/e2V8a+/piWO/NC2+WtRXIvqEkNABSAQrozkgvc8/ZK1rGR3U/e/5XvHrbcWWgDuPbnf/f2Oz62qR/APv7IS8889Mf/etRyCaT6YPDef//pdTuL46e+8fcvP1d/aVp5eU9izZ2/fvnWobvhX//hkdcffXUGAKDvjo1X3/bb923vVTVlqX6lZRfbEZaVVEdrp66EM4XnQFvIt7mBi+1qISIrEQ0Qk5Ria445XcdnPTd4i2+jPky/+vrk3pr+dKzx3+Mh2MNHZ/PjcIkHMxMHXp/4tx9MK30tO9YPJpkzVnWto9/8cd8v99nBwdPPPBQme7fvGNLSFJUrTsav1qSOTO/q1j7aMi9v2dk7uLm9Sz556PHypNu64da1BYDQ0jxrOKQbLIC8eOxWQGDBcq736o3uobGjX/3yt+LAmc/dQCrtHNzQlXrbE2VNkBOvP/yPR/Y8mV5IWgQVao29OLZ1bVsbDU8f/P5Dh/ZPuetv31QAyXXcmYMvH1+LUvQzbfWXn5gdGcuvv3V1AYDZat06yWgvzbR0DG0sjQOH7ObL+/p7QmW6/Mgztta+ZftAJMdRuUJy3kwZIAMgln4L3optVU6fePGJvXPVeeVIeCAOzvDYaHV4GB58MlKX8T07e9/cc5rsLq7Orr+8J47RQm/kjE7osZdmQXMq9SA86G/YsGbztiu3bC6BqxyqPXuCP3Bgvi8hU92bOHjipVVS++qtd2/YgoBTCkgt5IrZlu5kErpXDQ2ujRadec0dn38Dao9tbr9709COtm4NQ3sxIUzbygYrMTXX18Mnq/NeWnpzJw1EMhpA68IQIgBnpoJT9VRxcxonzk62uWUYffXZ777+xoFivKElYoA9vGdybawrx2D8+NNPHHvugN5zzeqMtBF8Z+zYyYmBh/bFf6XPOvjjyYP7o/1X3ZiUsOLJ5cqYHPZ68Vzr2vUtI2ZPJLFpZ8/Aai1vjDz1RN1PD15y69YCQL0WyToTNb61BWDJUsUX55gcY0imowHKj1R8N3TfksIIoHzw5PGp3UciC9tJgAN1ncwOZXCjT8dPH9j//HeOpP7Tb+66YecNLbXq7r/4h/3Tf/fg67d+3DTemNn9bPayP//Ujl3r1sfR6PcftAsq1UoDV14/ZQ8ddCKf/7UbLunVpeEf/+krzB+49I4v3LOjJYmOHpzc/QLEIBTP3IpAw1K2e3v37Mih2b98cJ9KJ/wY9Ttv/f1bC2s63r6+25klY8+98NBeV5MXkhY85JzW2vpamUG9Y3se2juD1q770pfvHoB2/enp3X/zxSOndvvmXTfV977g1FKbb/u9n9vektRGjo8//hgk4smWtevu/Ni6WRgqDXz+N64s1J59+Vsjf/1wbOdffGzHnZsvyUfHvv+gEeEegFiIKXgHnh+48zXmnXp5ZP7lkecBmOu5Yc0A8+VBpbXvxst71TN7Tlt2DHT3fOF3drVIeGEh9vzTu3cPV74GCdv2ldTcqns6VnWtbgEEEC91lpTKwO7j3i/tcEvxdatmnn31NV1NDG6IdMRLpXgi+7YSJGoE1I6OTv/1A+PPfOP5rlYUv3awfdW2bCIpdn0JfhJBYJatNw5NBhkz39efUTJnz3P5OszseXWGG7sXt/BzCtSpt2Q2dtqMnDz4zCvHDobd//F3b9uUXccO1nb/+e+/Pvbkk/KnPm4e3Fc/dar/6l//zPZVpWJ9duz7D5BsVCu0DNxy51DFjxhtX/idXd1s/8gTL//Zj+SBX7/lxvuu2t6SLD/9RKVSAWlJQ+6Hbi5FjsGqu665suOajzV2oQIwD2p7n3slePIgi+u1cqSnvOlzV65vW9sKWFIzfUM9L4+sfurw/N0DJFFJ1//t2/8VDY9/5L7fvKb9xpujsoIAomd/fjSG8+mSsveZx994fob8hz+64/LBNUOt7ZDLiZ19KwRGgrFnvjntoch//t9f6quRY4/v/fY/PH/y9eTh7tu7+t7y1uwadduv/ernt68ZalmwdO5YUH7t648V857Lq8F8+w2RwuCudVCIgAbF4pptgw9Umc2P/XxHRD0w8fyr//0L9Nf+8PZrtvYP/dynIJdTyMSbH44QpLLxpNEW/uD7fyYfm7Bj/8/N7dde14kxAkiKdhK8nVRxzc3X/fa6DS44jVGmvvfggcn7H4SPfPbWa3dtKKGfvT/o7Lz0qu3/uPMOXhk98Or++z79dXZl7pobf/nLdwy89ZsArLvi1/7z0Kfnfgkq+7/2je/+rb4PrvncH9xxy21rB0XKTfB+TM8eP/jI7+2hd9yz6bYtLZr8lp432QFD933yzk2X7OzNNMok+fOg7/3O0wk9CKTKfC2/jW7MX7Ne68yC6qfz67YN/Mik1dGTvziAoiedI6f+4lfhM793x513rFn18Z+TUikJjLc8FImklqYd6PHnv+YcmHSVP7pj1bYdQyQETUsI3/aTek4GjumqvNadVSNvbTYsQaw117lm/SVbi40qCdSB+erE5OyeAyCTkOBYkMynEpFEBBBFSiwRZXK8YgS8tW3Htbf9VqQfCtw9uO9P9xmwum/ruu27ut/yG0lpNT102Wc+kRy1RxCrP/qtRx/PkdjgFXdtGOxd0pYTXKDBXoXWTu0/nphVei65/tJLSrbSiYuq474xFx05fKje1xOD1JllDkoCpzPdazZsvKSr0PgXK+FPV1peAJkxCFkQKWjJfCEBKoCkqFoinbAmHVtxY2u33HtP6+bKSZC95773xAtpRxm84qMbBlvPqnqDECjtHZuvuu1LrA8KITq2/09eew5Wt29Yt/OOXARAFY0leAuKlihqieKbyznm664hp1LQ19nS3ZpSz9EwxWJaOFsY+fHM6ODp+VWFArjlqTLRR7atisScqGuewP3rukq5CMcjE5Xdll8/PWnw9hDACeC06Vq+E9rcGZkhBZod3NRt4mtGPef1iRcPOfUryg6sFhsTBO+OC1A+9ujLR18es7ZeM7B17dredEyCt6xwk6KQ7GrvH9pwydpCo7arOwnlud0HgmCeoyAI1QxPtuQSUkQBTGQ1kY55dbXObbl/8NbbC4XTA5BW33j8uRPPGbD60ps3rF+H3rJsXW7Jr9p+w//5uQ4npkszJ7/6lwdRT6pn7ZUfTXdq0pLlbi4K34YAVEVjkWQ9oCQIgGNKK7O6FEwMtkRjauLcP0aSJOYoru24gRsAx5z6no+ol0ooKNexaWtpaNet0dOvf/u7P/gv33y4tm3tZ+/JX9Md5wCEghsSxiiLKmrXmk/+6nq5guzXv//Fv3zoGfcV5QppU2umO1sST9aHnrBKzSPHJ7tIcfU1LSiuJlL9l6ZK+fkvf3N65tRhG3LaWb7tfcAIZKyEVeYYhgsZFRghoWd7EZlGUnHU2nLPfTuxrsHxH3zxLx96ZP4Z/zJYW0gVtQHOIaAsICFHnKbya6/a8X9dd0N0+MTDP/zB7/3tw7XtbR/9SOHmoaQEcdFYKxjq1qzKTHl0rqqDrSpjp07yfGsxkUwoP/NBivFc0p8ZCl6YfmPX3lJbbgD0/SdOmY595+ZsfgZGDzz+fNHflhvoblv12U+Y2tNVyqgNDEcVSjOVE3NjJ4+PGAp5Y8+rRZ8Vtctz8a2XbYqkqPd0KgrUXcJVQoKLStC+M1srH3r1kSPjc/Ge3//Uhs5Y/3nFOIRAliSig6ubLguiwBilru0rKIwnIzTffeMntt/gfiI2/OR/+eoP79//cG37z+UT6dV9WQAICPMI4ZzReKpjy5Zf23GFNj732jM/+K2/eWy0L9x6c/r6wWRCzSzVhtKLwrfJAH2F3mcGr3183Lg3OwtriqE+fHjUwkfb1yjaOfs2jCGTS3hvFA4+eejwZbGW7tZSWD99eFSjJ3ZdWpCOm8fqL8z23rqtY/VNn/xM11DL/U+5udp8BUICULHZkapuB5Y7Ea8ceeLk6kIhd9W6bTf+p/+Y37p7zeNHIsQ3rUadX8GHmkgU5bKFqe+MzEw/dfSOO/shpdTY/BvHj0esttxAAdRzfKS0KMolCpPfmZ+ZfPLonXf2gazPzx3bd2ztlcVOdWD2mWdODSRTxV2bN1/7xS/ltuzp+e5LSe7VTQ04h9MVz8+XgeaMA+OT9KnR/tu2tfZdfc+n/2Gw5f4na/nKXAWCothQuqIxDj/41BM//NPvvDJT5hSpLzyfvO4L/+2mG265tf9n/+zOrk3F3j+v/9M/P/Lo7/6vb0SAWIO9l137O//v0IaM6r3wDPz9f/2f38SzGgCQ1st/8YrrbrqriNNovbR67M7bH/regz/+4QsbN37kI9oD/1R7441/SMgckXjHxradv/S5vlUb0+IIEMG7YR4beWnv/V95OX39TWt+/sqdnVr2fLNbigr5fK7yRPl19tyR2yLrowlWr73xysmOtbM9hQFj95GTvQd4223bBrd/4f/IrNvXdv9TKdWq1YExgEk9nFXKhLVYJ4yZ6qOnBi4fyg4O3fyxr3YW//ezI7U5U2dOBmCpNpQu17q7r+1+Yvdr+16D+ORey9+7+cp7ugsDgzdeMvbiD154/slXUsQ+NV3v2XTTrv5S9tzLpskgd/YMrUW3Hnvx5QcePvLk3jSxh6fqXRtvumttZ8dI9ZXXTn33wa//OC4nKGe+1dLX0z8wEJWjMNDSdnKo4/HdD5ZPHO/ub0mcfnRfSMhLXVEAy3cj9JIrOvKZFkU8WysAKS3HBrftGqIHyq/83ZfLJYhLPnd8o3dD/6WbVqnnnOWSUlJ01bZdQ4cPlff93ZcrJVCcuj2hFnb1bbukEFdOG88/uH/KeaUnCmAHnuJvvbqtlG+LJ7G8fk3fPx6YPviPf3piw2AOzXrjT33/n3fHlTQHcKxMe/vA2jURiIsCbisbNdfftf66m501Z2o7r1nV1va2MW6su2N18t5PwJqusw6ektOQ3nT51eDLmQxCylvf/IlPwNru1lwOx3feeWWtJdU/PgMAsKZn3cbrOpItUpfdu/XaT9VaGCsDAEDLpTuHNvQUNMAomenZsO3eL9hH2azc0dq/IXOTYw+t6gDgAPHW1a3bN61uTyXFYGNls1B396XdT740fOw4/PC7r0/Nbt985cf6jZPjR194Zv/eZDQ85Z88+gxICKL5ztKWW3b0Zfrz55AywTFQ+9dfPiSHr7/0L3/1L3k5DrY9HMJlXVfu6M2kRuxHn3j1teqxZ+JIckkI1obL+jvaumMJGTb0dR+amX3xe/9z7OCaUorA6GOPT5dUrSAB2A5OpdatHUgq2SWU7nKtu7vnhW8/dhIAoAzT04fs3BWpqzdf1s5bvvM/Dr567CWIAdxw08Dg56/vaXtLw6hYTRYKkElH5DfXamCQ4rFksrUlElW7+i5N9uf48T/61nPPnH4EYgC7bugbvG9XXxtQ58cvR1773pOvwQyAksiu/eQfrF9zyeasArC2e/3eK68d/eunR1+fu3ryulvajr84PnLqRQAAaLvsni0fu7O/I98VFQ/dSiApqasv/cRHHfzDvX/2tacAqtCqRjd98v/etPm6Tb1vvg2BHIslkm2tcuzsM22xCkoylwcpXdTkgW2f+ChWH3r5K43PGdSiN/z7XxnYdWkauU5y6tszz7z2PAAAlLbcsuHeX+npzPVlozSMb7nq/qkf7fvBNw7OfvLzvY5TOPivTx+EcQAsq2s/9Qd9Q9svyYAs+r+VTbz/2h391+74yPu/aVXPEHx26G2OLwvqtmtu/ElvVrdd/eltV7/9TaXEutLNv3/9ze96t5ahvpv/sO/Ma9svEc0keBsLdXefO/CjfdMAsH/3wbl61e++U/VtNzBYD50c/vHk8I93AwBAZtWla7Xt7bnEgm/DES2WbGmFRGzxcFIAQDLIyXQmyKt5FfdtuPnmVBRe/cNvvWQ6M9ABsOvzd63+6M7eCISJ8sP27id/uBt8gEz/1rWf/IOWvq7BbAJgy7rt35srv/6jB16fuOnn+grF9iOP7NlrHQUAgFV3/uZ1m6/ZmFezSzjbhjjny6fNCAESEmLOlGvGTM1b6OlkJd3al0mqScmunp6u254JGCCdKWaLnZno2efKU5cE9mwZ5GgkW0jIZ86VJ6ZuhDUT51uSMZWAZ8xOlA3H9wADpNOFbKkrFQXPna/UJubrACEAkqRovjuXSRbjMgAE1pxTm5ipA40kI6msWp7zfa9RhVxN5uK59pakHNewIlJuKwDOOXFNvVybm6q4AAQUhGOFztZMOp6Q33wTENOwgnIN5VuS8fji9Cn1WGjNVgAULV9MyMS0arW5ycbnRBBOt/bmMmlZZW7t9LRu2AYAACjxTCzf0ZJU4irmjHm14ZpuzJkoWihpjMqVsgHgAwBCsUJXJpNpSciyDJJIua3Mno8CIRfrl8cYZPlnXoEnuEiTbSEQzyHWzFTFXjiOCECNJdOtfUlWpU51ouxS9qZjkSPxaL6rlNJSjSOTiOU43mwF0vlEMrWYu2EBEGu+ynym5FuSKnd8Q5+dKDuUBaACpEtd2WwhEgWvPj5bK9cNALb4ycWUlo5IAODpY0atPGOAkslHZEUpz1mMNQqQRbJt6WyhJSlrKlqykLvsfBulF3HEEb5tZfg2IATY8j4cVPi2FQtjy12c79chIcBY+LaV69suXukuZciVl9tDe/EiYo1g+UhRqHHFgjFgsbZfIPrQD/EPtazybZzDcvo6orMUvLtKz/wt1CgQCATCACxlyF1evk0gEAgEAoFA8F6IfLpAIBAIBAKB8G0CgUAgEAgEAuHbBAKBQCAQCIRvEwgEAoFAIBAI3yYQCAQCgUAg+GkRp+EIBOdHYws258CAM8YJYwGhAaE+oQGlIWGEMc75mwetfdAghBhnAWU112UACU1dV8rl4uKcNcFP0C0HYHxBtCGlPmEN3YaENl+0wDkElOqeRxiLaeqaUq6UiIl2Eby/ViljAX1LjKWUseZrNaRU9/yA0pimrC5m21IJ4dvOqWsEAN5oQg6M8zN/OIdmly9BCBgHwhhhTMI4qshxVRyGIADGOOUspIxQFlLmE+IGxA5CywstP7D80A3CgFDCeTOCCgIAQIxzlxDd9YarOmDozafzsYjwbYL3FC3nlC0oNqQsINQNie0Hlh9afmj5gdMQLWuiaDnnHiG655+u6SFnndlUSlOFbxO8m1Y5oSxktKFVrxFg/dDyAisIHT/0CTn7tKsPXqvAfULrnn+6pruEdGZTH9s0KHzbObYfMM4I44RQJyROENp+aPuhE4ReSAhrlm9DAAghAPBCMmfbM5aTj0e3drVc1d8pHiqBF5Kq41Vtt+74phcYnm/7oRsSyjhlnHFGGeeLA48PvBdsKLPsuOOGeapSm7HsYiKWjKghZaJpBO+FH9Ka41VtV3c80wsMN7CDwA0IZZxyThljnDPeRNEihCqOO2GYJyu1GctORbSIIvsX75mGgqYREFqzvarj6Y5nuoHp+Y3BMFnQKmecNVurVdebMq2Tldq0aUUUSVEkb5md+LvsfBvj3PFDOwgb3aEbhI4fOgFxQ+IT6hHSyJcy3iS7jRCAT6kZBNOGPWEYZcdd31bszCbFEyUAAMPzT8xWh8t6xXJIP4DRAAAgAElEQVS9kDhB6IckaKZtQovRBKHGDCk/VdNH9fqEbtqERFSZcM5AVM8WvCeWH5ycqw7P6/Om0xCtF9KgybYJnyVaABiu6SN6fUI3LEIQRoQzUfJd8E7cIBwu68Pz+oxheSF1g9ALSUBoU7WCEMINrQICBKN1Y6Smj+umGYb5RDRkjC0zrS4730YZL1vulG5OG3bDbpte4IXNyosuNtub6QyEUM31xurG8XJ12rR9RgvJmBuG4okSAIDpBcPl2oHxuXnLAQDGOG+mbUJnyRJjjAAoZ8PV2kTdtDwfJGmxcxQI3hM7CE6X9YMTc9OGdUFECwCna/qYXjdcHyQJFg2daBrB23BCMlqpH5qcG68ZS63VxVA6UtVP13TD8znGZ/+78G3vCaF0pKIfGJ87OVdrLCRqrJltnuFttImEMcYLzTNpmscr1bLlupQoioJFzyg4y+JjhABBY82lhJCiSJosY4QAPuDoggAQgpA2FuQyznhjRIgRxo3Dw4UsBeckJIQxAgQcgDEuIaTIkqbIDTk1SbQhYR6hnLHGyAIDRkiIVvCT9YMxnNEqRkiVpUgztUooDSjzQ8qBAwBuGLVGgF2uLDvfxgHckNQ9v2w7jX17DVMlYYw+6H4RECAAzjlj3CcEGtENwA2J6Yc+pZRxBZq3bUVwEYMx0iSpNRXPxaLJqPbBi/NMF0hY3fVnTbvu+iGlwBuyFekKwfmLFiFVkVqS8Vwimo5qzbtLSKnp+jOGbXi+TyhqBFuRYxOcY+TjgBGoilxMxPKJaDqqNSl1ghEilJpeMGvYddf3QsLfTObAspXrctyXgNCbTkmVpJiqxDVVkXDjX/kHqQ5ACChlPqGGFzSWzWGEECDcGBeKKCN4N9UwzlUJ5xOxta2FzmwqHY00tiLwD/pBwAhRyuYt5+Rc7eRcteZ4lLNlHE8Ey1e3nHMF42w8Mtia78mlM7Fmipaxqu2dnKuenKuWLZexxm2EagXnBAcuYZyJaQMtub5CJhuNNGpzNEOrjHHd8U7O107OVWcN+6JYdikv0xADwAGiqtyRSfYXs9lYVJUwNCGlgRFinLkBGSnr4zVzzrTZmRojIsgI3jWkAAfGUxFtsJQfKOUKiZiEUZMm8hFCMkYxTdFk2fIDLyQ112MfeAATfPhlyznnCU1ZXcqvLuVaUnEJo0ZNpSaMbJAsoYSmRmSpsaus7npiF4LgvLQaU5SBYm51KdeRSUoYGIfmaBUkCScjqiZLbhBaXlD3fLbstSovz2YDziWAllR8VTE72JKPqQpGqBmdVSN5TyjXZJkDWF7gEcJEiBG8rzwBoagiFxLRhKYqEqaMNfVmmiznYpF0RNMUmTschG0T/FTRTpPlYiKW1FRVwqRpouXAAZAqSblYNBXVIoqsOyKkCs6vX9YkqRCPpSKq2swA26jeq0g4G4uko5GoqtQ9jy/7gfGyrbsLEsZtqWR3Lt2RSTK+UGGoGQqRMZIwljCyvGCyZvo2WchniEgjeC/RIKRIUlxVMALCGKGNbepNydAyzhGAKkkRRVIlLHJtgp+yf2qIVlMQgsZ5Cc0TLee80R1GFFmVMQcRUAXnoVUAkCQc02SM0NJoVZZwRJE0GV8Uo+Jl6tsQAoxxQlM0WWo0W5NS+gBAMcIIyxhFVTmmKdhBIsIIziWp0Di9AxYrQPIm3gsYMCZ0KfjZRcvePG6m+aIVowzBzzBkZY3DkhY3EDZVq5zzi2cuf/mel4AWKjcu/qCc86blMwAYAGAEEhYLvgXn0QvyN9XavNPyzpz7JnIWgg9CtAumDfElWMR7MfWGguWmVeBwJuY1vWu+iGbZ5OXdbItHkfKmNxvnnL2lJxYIziGmLPEtBQKhIIHQ6soGL/OWW9LGE0l9gUAgEAgEwrcJBAKBQCAQCIRvEwgEAoFAIBC+TSAQCAQCgUAgfJtAIBAIBAKBQPg2gUAgEAgEAuHbBAKBQCAQCATCtwkEAoFAIBAIhG8TCAQCgUAgEL5NIBAIBAKBQCB8m0AgEAgEAoFA+DaBQCAQCAQC4dsEAoFAIBAIBMK3CQTLBAQIAVqKO/HG7QChd3+RN94hEPxk0b6HjJp903cVNRe6Fby/VpeFUHnjL+Hblq9QBILz8m7vaag+WFm+3x24MG6C85ETWhLrhs50veidfSHnwrQJzm1svARqRe8bYZdhgMXLvtmazxkz/R4pFBFhBO8xCAOMEEZNHBkiAIyRhBBGiPF39HacL/wRCM4tznHgGCEJNzedgRHCGCEEnAN7F9GCGGoIziXGIgQYYdRM87aoVcThXbXKl6Fxk5d5lEGNHgsh1LQBGkIIY8Q5AmgMA7lwboKfYKY490JStd1CPBZRZFnCnEOT+iIJY5+QuudbfuATis+MZhhPRrWOVGJNKZdQFdEsgvfXLAD3Q1Kx3UI8FlOVpopWxiikzPAC0w+8kDb6XcQ5MJaIaO2p+JpSLhVRRbsI3k2riAMEhFRtt5SIJyNcWuigm6VVwpjp+6YXeCGBMyk+zuOq0paMDxZzmagmfNu5em3CKGUMAWqe3UacN1ImIXDCeEjZwmoitODEVYxjiqxJYkJZsOjzAXEA2w8nakYuFlUkKaJInDcjh4AQgpBSw/WndLNiu25IMMYN3coIOlOJDa2FbV2tmWhENIzgJ8iWgxOEk1UjH4tqihxV5CaKljHTDyZ1s2I5bhCeSZhgDu3J+IaWwo7u1lwsKppF8F6DDC8kU7qZj8diqhJVm6tV2w+n61bZchyfnBkXSxxaE/H1Lflt3a2lREz4tnNqN0LZvOmUkm4hEZclJEFTMm4IMMaIA6+7fsVy6q7PGD+Tz0gock82ubWjpS+XEU+T4MyYAiNkB+FIWUeAypaTi0ebMRZsjFh8Qucte6Sil02XUCZhxBjDGGVikSv7Oq9d1b2qkI2LfJvgJ+kWYeSFdKRSRwhXbK+QiC7q+YMXbUBpxXZOl/V5wwkpkzGijCMEyah2WU/H9QM9q4u5pCbybYL39FM+oWNVAyGkO14+EcUINU+ruuOdLuuzhh1QKmHEOAfgiYi6rav1htW9a0v59DIbGC9L34Y4AsQ4nzXsmKpIGKciqoIxb4rdRpxzn9Cxqj6hm25AGraRMa7KuDeXuqqva3NHS1sqLp4lAcDCeh0EQCire8FwWa9YbiqqNml3AkIooMTyg5rjhYQ1vkBEkdtTibZUojWZIJSNVuuRkhRRZNE6gvcYanDGOHAgjJk+HanoNcdNR7VmipbaDdFSuiBaWWpNJlqTsfZUgnM+WjUishwT4w3BO4bFjDEAThm3/GCsYtQdPxVVMcJN0mpIqROENcf1CW0YD02WSol4azLWmUkhQOM1M6bIy2psLC/TpkMAAGXLoYxZflBIxCKy1IxWwwiFjNp+OF6r12wvpAwhQIAwQrlYdE0pf3lPR2c6KeKL4MxzLiMcUaSYKlPO645XtdzFefWmTOZzzgAtLJ5t7MQrxKKpWGRNMU8pOzFfq7huazIuZp0E75NXkDCONkQL3PSCmu01hsfNEi0wWFzxDQCMQy4WiWnqulIBA5yc1+dtpxiPFpfZ9JNgGWgVJIwjshxXZQrc8gPdWQqtIoQkhAAB45CNaKVkbG1LUcF4uKxXHDcX01pTCeHb3u9XpIxzxoED5axiu3U3GFPqMsZNKZeFEOOMMBpSxjnIEg4p02TcmoytKeV7spmK5e4bn/EI2d7dJh4qQUJTegppCWM7CABgtGJM1s1Z02ZN23O0sEYWwCVEleVCLLqxtZiIqIzDyxMzcVW+flUnZ2LnjOA9ialKTy6FEerJ+xij0YoxqZvThtVs0QJCLiEyxvlYdKhUSEU1hNDeiRmM+HWrOpnY7iV4B1FF7sqmgENnNokxmqia47o5Y1qEsiXQKkYoH4sOFnOZWAQhtH9qziPhdas62TILsMvOt2GMMlGtI5skjAEC0wuqlld1PMIY503auM4bG1cZcMZ5RJYL8VhHNlVMxJ0g2DM2tbaU7c0mxRMlAIBkRF1VzJaSccPzdccLKHMJMYMgIJQx/sHrc6FEHDDgEpfimtqSiqejmukHp6o6QtCTS23qKKWW2XYnwbIiril9hUwhETM83/D8kHA3JIYfBITQZoh2sUQcA5AkHFOVllQ8HY14hJyo1Bhnvbn05o6WrNhMI3inb1OVnnw6F482tMoYuIRafuCGhDLWPK1yAFmSNFlqScUz0Qih7ESlFjDamU1ubC/l48trNmPZ+TYJo9Z0AhC0pOKc8+m6dXy25tRCL2heiIFG7RaPUJ/RzlSyLZXoSCcqrnfSsE5VagP5lIrFflJBowtUY6pCGJ8z7YCwTDRSSMR8Qt0wbOx9boJzAw5AAdKcZ2Jaayped/1TFf2VqZkbB3uv6Ovc2tWmSJIXLizNbOy+bhTQwUgUkxZATFViOYVQVrbcU/O1TEwrJmIeIW4QkiaLlnKejKjt6YThBaer+stjU9et7tnZ17mtp12T3xQtIIQXRbtklYEFy5CIIndkk4SymuOdmq+lo5FCIuqGoR2EhNLmaZUBUM5jmtKWTjhBOFoz9k1M7+hpv6Kvc3tPezKinq3VRlnNC6jVZejbcHs2WUzG3JBM6mZIue4GThjKEvZD0oyfaDGfAZrCAKOeXDoVUauuv2dsGkvo+tXdN63rX9tWEE+UoAHnMG864xVzsmaGlGWikYgsU8Y45016gjkgjkDFUsio7nmvTM6M6gZGqDubykYjU7pFGGOcIwQyxqosabIU09SYIkfFukzBImXLHa8a4xXTD2kqoq3KZwljjU36qGmiVTCmnJu+v39qdriqc4DOdLIUj83UbcoW5lAUjJWGaFUlpipRscNmxVO13fGqOV4x3ZAkNbU/nw0pXQKtMs7NIDg0M3+iXA0Za0sl2pKJsumWTYee0aokqbIU0xa0ekFGGMtvnhShqCID56bHbC8kjCU0tS2dTEe1sDl2e7HlABDCGEUVueK4wxV9wjDWlPIbW4vpiOYGZDIwAQAjwBjLGCsyViVJlSSMxdBwBWH7wbzlnpqrTdasqu1y4I3pewljaI5v44uloRnjFcc9Mlc+Wa56lHZkU13ZVCkRwxgBA86Bck4Z9Qm1EKq7gSJhVZZSETWmKVFFGLiVixOEFds9NatP1IyytSBaWCrR6q7XEK0ZBKV0ojObbEnFJYwYB86Acc4Y9Qm1ERiu35irSmhqQlMiiiwSbysNLyQV2x2e08eqRsVyaWPpLl8KrXLGdc8/Ml85MV+tOm4pnejMJNtScVnCjREOYwtaRQEYnq9IkirhRERNaGpEkZdycmPZ+TbOeUhZ2XJHK8ZY1bD8UEKoEI/yWIQ1LZ8BAICQhDHiMFqvnyzXXpmY1lSlkIiuKmQJYXOGE1LKASSEZAmrshRVlbiqxFRFlbAkYQkhEWJWArrrH5upHJkqVyy3saj7zbrQTWt/jJCCcd3zj1dqr07O1B2vJRUfbMn35FItqTgCIIxRxgllIaU+pX5ITRI0Yk0pGSsl48K3rWRMLzg2Uz0yVZ4zbA4AwJdMtIYfDFf1fRMzdcfJxqKDpXxvPt16tmgZCykLCPUJsbwwZIwxXkxGS8m4KG2zIgfG4YnZ2pGp8pRuLrFWzSAY1Y1XJmeqph3XlFXFbG8+3ZaOI0ANoVLGgjNa9UNCGeU8H4+UkvGWVBxWsm8LGRup1I/PVk/N6V7Y2OW50HLNPNMONQ670D1/3+TMifmK7Qdt2VRXNt2ZTTbSp4QyyhhhnDJm+2GjQi/GKB3VSslYOhpRm1KpRLC8sLxgpFwfrxp118cINQ5G401+ZCWMJIzKjjuhG7rrJzVlY1vx7vUDg8VcY8FsI4PCARjjlDHKOWXMDYjp+RXbBUAlUYBwBeMEYUO0FduRMOYNmixajJGKcdl1x3Sj5rhxVRlqzd+zYWBdS/5s0QIAPUu0XkhML6jaLuNQSsXFUHil4YZkrFIfq9bnDFvCmMOSaBWBIuGq648bZtV2NUVe05L76NDAxrZiPh57h1Y544wy5hNqeEHVdqfrViERW8ozlZadb6OUTermqbna8Ly+eEoYb6z9a9riIUAIKRi7hMzazmitbvlBJqpt72rd3FEsJWKN05Ep541OsTFADCkNCfMIcYJwUrciiix820ogpiptmQTn3PT8kPHT5VrN8XzCmjKYAIDFk7kpYxXPq3l+OqJd3d+5a7Bne1drIRE7W3WNY+c5B855Y8Wb6QGhnDAmGm4lE5HltnScMVZyY5TzkYo+bzk+oc0aBKMFEVLOK66n+35cVa7s67h+sOeynvaWRPxtoZItjH4WhGp6AWF8oe6DMG4rDE2WWtLxgNJ8PMo4H63W50zbJ5Q3X6s1z695XlSRt3e3XjfQvbO3vS2VeJtW+UKNMk4oQyg0vYAyFtKllumy822Mg+kFphd4YYgxDgh1w5Dxppf6kRCygnDWduquH9fUtaXc9QPdWztaMrHIO0MM45xxTiit2t503ZqpW53ZpKgU8uGmocFsLLKpo9hfSDsBqXv+nGWP6YbpBYs+64MeCAKinHuEmH7gUBrTlPWthbs2DV7V39WdTb3z6/GGMhn3Q+IEoR2EiozFfNMK120qqm7oKPYW0rYfuiGpuu5IrW64fvNEyzj3CDWDwCFEU+U1Lfk7N6zeNdjTm0uffcuzRUsZ9xZFK2McVWVh2lagVhOaMtSW78om7SB0AmKGwemabrg+503Uqk+p6QcOJbIkDRSztw2tumVtf28uLZ1VR6KhVcaBcUYZ98mCViWEo4qyxIukll1AVyS8piWXjmq6XfAJOzZXeWVsxgkC0pzCdwt7gBl3CTGD0AiDuKZc2df58S1rtna1tibj73x/Y6adcUYYa1R/0GRJFFxYGWEFNEVqScWLPBZQqjt+VJUDSu0gaMZ28MbRHZQxKwhrrpeNR3Z0t957ybrNHaWW5NsLzXMAxrntB5YXmn5gur5HCOfQnkkURFX6FS5aWS4lY4VENKTMCcP4CSVsmmgBACNEGbPDsOJ4mZh2SUfxk1vXX9LR0pp8l4rzlHPbD20/aAzX3ZAwzlpTiVJSTJKuRBRJKiRjuXgspNQNyZ6RyZAyJwhZc3KvDa26hFQcNxnVNrTlP7l1aFtXW0c6+c4+nXFuB6Hth6YXmJ7vBoRyVkrGS8m4hJa0Upi8zEIMlxBqScVTUc0PiRsS3fNCRq0gDChtUs29xk4I3fMp8ISmXN7XecNgz46e9kI8qsny2d+NAxDKfEK8kLphaPuh5QeKJGVjUU1Mkn6oCQh1Q+L4YcgYAsAIhZSZXhBVlFIirklSc3wbQgCUcTsME1GtO5caai10Z1LAQHd8RSZJTTmTxmeMe4RM6ZYTEFXCUU1JRlRFkvKJaFwTmxJWIiGlbkCcIAwoaxSaooy5IYnIcjERUzBujm9DGAHl3A1JVNO6s8n1rcXebBoD1F3fDnAyop6JlpRzPyQzhmV5gSpJEUWOa4oi4Vw8mogI0a4gCGVuGDo+8SltaJUx7oahIknFeEzFuDm+bUGrHiFRTW1LJza0FvtyGRlj3fUUSWpsaj5j2nxC5wy77vqKJGmyHFMVWcK5WCQZUVdovm1hfodyypgqS5osQxTcMExFtYVcJQfelOJtC3cPGYupcn8+fftQ//bu9kIs2kh1yGetNmwclqo7nhMQJwjdMJQwLiZindlURBG+7cOaruCcgxOEs4ZdtlwvJI1dMpQxJwxjstKbS/thojlzOggh4Jz7lLmU9ubTPZm055MRpy5LOBXV+vJpRcIAQBl3Q2J4/kTNZJx3ZVP5RDQZUSOKLKqYrkwY525AGqJ1grBxFjPlzCdExVJPNtOaIE0VbUCZTUhPLt2fS4chHasaGKNEVOvLpdVF0XqEWF4wVbPckHTnUoVELBUVol2JWvVCMmc4Zcux/AWtMs59QiTAPdm0l2zStqoFrYaM2YR2ZBL9+QwjbKJqIIQSUbUnl2qMMSjjPqGW70/pluEF3blULh5NR7WIIjfqRS/xLyYvn5aru37N9gzPXyz5Dm4YugHpzqTy0QhhzTjlCmEADpwwVg/CbCyyupRLqppuebYXRFUlE9POHHDBARp2e7RqFBOxQiKWjKiKhDVZUsU86YcaNwxn6vbRmYrpBUFjNfdia8dUuSOTavbyy0auV1NkQth41ThV1SnwjmwiG9OSEZUwVrHcmu3VHM9wA1WWAkLLlhtSVkxGZSxJQpsrDy8gc4bzxnTFcH3/LNGiRkn6THKJRCtLjPLJmnGqWvcZbU3HUxE1E9MoY1Xbrdqe7vi642MEIaEV2w0oLSVjioQlEVFXjlZDMm86R2cquuM3jiU4o1VFwu1LoVXgwFVZQoxP69Zo3bCCsDUTj6lyPh6ljNUcr2Z7NcevOT5lLCS06ixoVZMlaWX6NkKZE4TjVXPOsBd9GwAgyighrD2dJJSyZp0pu1DKIaAspimFeMzzwxNuVff8fCI6WMrlYpFGgtT2g7obzJmu7vjpiEYYCxmLa4oqS5I4BevDm2wjjM+b7nTdKltuQOiZLTKNlY4YkNJkW7Rw6jEgjFEQ0prjHZiakySUiCiEsYBQw/NHyvWy5bgh9YIwJNJ03So7bikV36G1JTQkgUgGryzRMg5ly52qm/OmExBKG8v/3yJavASiBUASRiGlM2ZwaHo+5DSqSiGlIWWW549WjFnD8ULihkRGaNawy66XiUV29rUnNFUSMXXFaLVqe1O6NW86bkgoe4tW0dJqlVA25zuHZ8p131eV1oBQSpnpB+NVY7pueyFxA4IRmjVs3Q9imnx5b0c2pi29AZAveLM17HbFckcr9TnD9giFxUJtGEGj6O4SfBO8UNgPVS1vrG6cqNRWFTOpqLqhrRBSVnO8ad2qu37d8QPC3CCcN/m87a4qZLKxiAgxH1Yo424QTtXNmbq9MBA8a5kF50CBA1+iZ0VB2ArDybp5fL6SjUc0CaPGUNVwRir1suViBDLGXkh11zs0V+7Lpze2F6OKLObwV5pofUJnDGu6brmLooU314QsqWgRYIeQadM6Ua4qMr5CascI/JDMm+5oxZgx7IZoMSDLDw7PVYqp2Kb2YlSRQQw2VgCNnMisYU/WTTsIz6TV0FlpsCXTKgAOKJ0yrRPlmk/Dy3vbMEI+pWXTHa0Yk7p1Rqu2HxwtV2MRZai1kNQUbclt1IXPt1HOa453ulKvOV5A6VtdHRDOUfPbDQFwBBLCGIHh+8NV/eD0XGsqhgAY54brj1WM47NV2ljrxGG6bpddd95x79o4EFcVsSnhw4rtB5O6NV23DM+/MAObxqACQMaYMj5r2vsmZ+ZNqyUZ7cqmFEky3GCiZnkBAQDGAQHyCZm33YrtllIx4Fw04krDDcMp3ZquW7rjX6jvwM+IlvN529k3MTNrmL35dFc2rcmy5QcTNdMJQgCgHBRAPqFlxy07TjQiL1lHLbjgeCFZ0KrtXahY1cjtyRgzziuO++rk7HTdKMQjHZlkVJVtP5zULdtf0KoMEFJWdtyy7WYRW4IKZcvRtzHOdcefMezpuuWeVesDvaPran6UQZxzj9JTVf1UpVaznbimxFUlIGzedOdNx/ACAJAxkhGes5zxujHrOJYfUC6Kmn4I4Zy7ISlb7mi1broBYeyCLLdBAICQhBBCMGfaw1V9tFrvyWe2dbcNlvIIoGK7ZcsJKMWwsL7A9MPTtbodBghALLxccaYtIBXLHanU645/oUTbUKKEkITQrGWfruinyrW2dHJ7d/u6lryMcdX25k3HJw3RAgA4YXi6Vrf8oNGDik0JK8S0VW1vrGrojhdeUK02ZvbKtjNcrQ9XaoVEbEdP21BrQZOkmu2VTccLSUOrCJBLwlHdMHw/l9BkjC9IhL2Qvo1xHhA6azSGht6FTQ1ICIWU1Vzv2Hx11rQSqtyRTqSjETcI50yn7vqLx2whzqFsu3O2Y4cBZVwEmA+pb4Oq7U3UzLGKQShjF06cGDjjEHI2UjPGdYNzdkV/1w1r+vvzmcmaWbbcuuNz4AgBRkA50z1vVDcKCS0T1TRZFsZtRaE73qRujVbqIWUX8JiMhmgDxMZ0Y7RmBITs6G2/eV3/6mJuWrfKpqs7HuO8EXgZZ3XfH9XrmZiWjWoRRRabElaGVv1J3Ryt1N2QXlitco5CRCfq5umq7oXkksGe24YG1pbyjQGGvjgT2NCqGQRjuhHTpGwsElXkC7K6/UL6tsaytvGqWbM9dOH2fTf2nEsYzVru4dnKaLVeSiZ2DXZf1tuRjUbmLbdqu25AEICEkISAMDZeN6uOl4zImtiU8CGFcnZipnp0pjJjWPyCztwoGAeMGl5wolyNKPK9W9Z+dMPAhrYi53zOsGcN2w0JIJAQUjCueX7ZdjwSbu3subSrLarKQp8rilPztcOT5am6xfmFHAjLGFPGzCA4Ua4hDJ/YvOauDau3dLUigLLlNBbecQCMkMqluufNW44dBNcMdF7W2x5XFVmIdgUwUtEPTcxP6dYFHReDjBHj3AzCE5VayOhH1q+6c+PqHT3tiiRVLXdat+wgpJxjhFSODT+YM20r8Ld2d13Z15mOajJeYfm2iuW+MV0ZKeuGF1zAhsMINZYfjtaMUb3enUle3td+x/qB7mza9cOpmqk7nhsSAC5jHITM8P2K4yb+f/beOzyu4773/s2csr1j0Xsn2IsoUiIlqksUKcmSW9zt2Hni5L7Ovcnzxkmur2M7T+Qk1zc3zn3zpjix/bq3SLYlW7Il2ZIlWRRFSiIlkiAIopfF9nLOnjoz7x8HAEESICibAAFwPioPdnd2F5jzPTPf+c3Mb1zSdueASIEvbluDMAYZVUuW1JJuLkXIyjRNVVVnH/r9fkmaP9GohbFBSMk068KBtnj47u6WddUVQbfLsOy8ZhTKhkUoQsAwAgZl0/LK0vaGqusaa9rjERFjHri4psiV9WRJLekGWoKBsGVZiqLMPvT5fLIsL+TbTI/uEl4AACAASURBVEoKulEd9NVHAvesa91QG494XBahBc3Il3XLps5gw2aobNmyKGypr3Jm/2WRJ665JsiXjanpDBJXPseXbVmKqs4OXrxer8vlmrekgLFNacEwKvyenkDsnnWtm+oqo163TWhRN3Nl3bQJA0erULYsQcAba+PXNdasq65wX6UJjavs206MpzKqZi7BCccMgBDCZsKvGGNhAYMlYIQQyuvGZEmxKNnT1nRnd8v1TbWUsWRBHc+VFN00CEEIAUOqaaVVjQFtiYX2dTRVB30i3026RhEwcksiZUzACF3phiVRyA2ePjX9RQJev35DKOiff1yBkUyoIOGtsaot9VU3tNRhhChlzknLkogDbhkjwAhhQH4ixUPetnhoc11l1VIlq+SsaNG6JDHglgV05Z1bSi0O9fXO9oU9PT2hUGAh0VqEgoA2RSs31sVvamsQMKaMOeNzSRD8bhkhEBASAGlEivhdLfHQ1vqqmgXuAs7a1KooBFzyUqSuzenl0bN91sx+6q6urspwcKHAjc0oCKgnUrG+puKmtga3JDoHATAAEWO/S3bGGBhQgJKAV26Jh7Y3VNeFrtqZ5FfTtxk2KRmmbtk2pVd8QQMhJJ1OG8b0jip/IBCNROYtSRkCBBalzbHQ7ra6u7pbOuJRhBAhVDPtgm4YNqWMIQSEUWeee3dz3bbG6u7KmEcS+dBwTSIKeG9nw47mGmcVzhW/yj/68eA3v/cfzs9ut/sDN/zPm2/YuFBhCkAZc4mC3yU7d4qAkdclXtdSs6mhkjE2fWougEUpxsgjiQGXzC/iNciu1rqNdZVLJNpnnnnmWz/4ij2z6/+df/M3+xcWLQOwKXNLgleWBIyddSYuSdjWVN1TW+HMrzi/oU0pQuCWxICbi/YaYkdTTXd1bIm0eujll//z8e8UCgXn4b2f+tQ7brjrUlEexmRR8MqiSxScpVOyKG6ur+ysilygVXC0elUb2Kvp26pDvutba51cplc82Fgqlb7xq58NDg46D2+88cZ9u7fMW9LZcKAT4pHFyoC3szIadLsQgIBRPOjd3FBpEepsa0cIGTbRiV0R8DSEg7yVWcNghJb0OPYAIoXxYedn0+OJSKgxFnprty5C0WVJbchZRUR9nqVTRUiE/PgwmfFtQUzfqmgFhMJeN79MHACI+NwR31KJoU/GpcnRQi7nPPSB/da1CiGvKwSulRhWuIrf3RQLNb3Fqrx8EonEv5w80vv8887DO7oaDm7ueEufIAlCQzTYEA3yG4zD4XA4HM6KCCvwKuBwOBwOh8Phvo3D4XA4HA6Hw30bh8PhcDgcDvdtHA6Hw+FwOJwViMirgMO5cjCAcm7o5NArzx1LQlqbebqiWWzbdV9PrDU2z14/27YfffTR3t5eAAzQ1ry+a9c93TEAmngzefLJlwZgIg8ACKCytqN70y3XNXogKPGq5lxByoXxMyOHnj6WZInZbNCRemjbfaAn3l05/8bqn/zkJxMTEwAA0Frf0bX7YE8FRih9JnPisZfO0pHsdLFwXXv7Dfetq8BVPJ8g5wqgKVODwy8//cakOVaaeS5YBW2771hXvbl2/vx/Tz311EzK6Kaqps7dB3qqPdKcojpApu+pw5OTFtxwsKPaU7uy0wiuRt9GKbH0QkbVTNWaeQ5h8IYDPk/MO3+HViwWh4aGAABAxoI3HPd53LP56Skltl4oEUFCvqBHAJ6um/Nb+DYldeaFl770l98cDQ2osgsDAJDm7eJuVu/fFfPVhlwYLAUsda5ve/zxx5955hkAgerX7XzggHtv2w43tYdfPfbI33zjiOfNhIABg9XYte/eOxvXHWxx+8IiP6aDc+VQc0OHD//Hp781EjxRdLkxAACt22DtonH37upAY8iNkaWCqcx9z89//vMXX3wRAKi+fdNt98g3t+/0CXKi9/RP/+57L4mHR0QMAFSv6dl3Hb3xPXuCEZ9LWoJMXZxrTauFiWOvfu2vv90HR3MejwAAQKvarV2WV9zTGG4LeTC2y2CWYM7xhM8+++zRo0cBgBqbO3feIexq2V0l+GVnvpHYZl7PH3vlu//6ypumGLn9IS/3bUtgt011+NWv/92Tvz7588GZ5zxB2Pt777pj95/c3DDve5588smTJ08CAEB3MHbTRx++54atdY3nPnDi1W/8KBNqdt/99h1hiLn4vcH5bYhKruv2f/xDFd09W8MAAJmh5weP/vVrx/7SgFveu9kHI7+E8V/PlpZl+ZOf/OSePXsYsXJHfniGjD/+bLJhRw5U/8nkH/7OJ3ZUtVeFqQ0Dz/1qyPz3rzzb9LEdleHqMK9mzpUkBLDl9g+//8EN27aHASPIjx0ZOPTX/W/+xX/i0Id2RISxF2D0ubl94Sc+8Ym77roLAHJHfzxQHv/Jc6na7bgOolPwsXd/YutHG+sjACh3tO9o+ocPf6vvb++ON3W18mrmXAH8ABtv/p0Dd265YUcEZAzFqRODL/3TWC/5lhT70I6Ib/JlGH4aiDn7ho997GMPPvggABSO/Ww4N/7cK8mabUJLsxMBVnJD/Ue+8pM3U0Op9tqq1TAgXo2+jVBbz49kbRqKb93c5AWvAARYRv9Vrt94vPL+XY3eCpqA8VfAKMy+p7a29qabbgIAM6NbpeOnR7bFqqL1caSNvnzs1MnnXh3sf2Ywcp13261gMX5XcH5LZCxEqlvXd2y7bmcFAEAxmGxM+z6fVelkgqyXTj755ulfjcyWxhh3dnbu3LmTEVuJKlV55MfuiCuI6ru23NPQtae9qjHipxY05VO/HI0dTqOyafE65lxhJIBQZdO6pq07d8YBI1Aq1LZk4G9L5fzEFAPl5C9PnHh6EOYcJN3W1rZz504AUKJqXUaTwVPhRv6Kxo6bDlZtaY3WVfgB0HCyOFw8ZZT3EZtXMefK+ZZgRX1X7dad18XBJUB5DNpSoS8W9JHRqfduVfpeOHn8p/22cU5yzc3NjlbVuNmQzEjgr/ZOG7Rs37PDJ473eTd5695s8YPBfduSIQA0duxYv+k9H781DtVuMEtTZ777gSfT1pcP39gUjvlLp/Ov/NQupmffsGfPni984QsAUOp7auy1H31HLycmdRZB6tCLr/z8mX95dEAvNFzfDtv4HcG5wjAA6vGG4jWb1QFXXksRvfTLp86+9HoKmmZKeNiUZ2oIhpCA4l17t4J3KwBADCLQ0DlTBiEajobD6mbJjGDEJ0k5Sz08drsDlbVbtLO+cjkD9tiLz5791eEp2njOt6V8qSEYAoCK9us2tPs3TD8d3XlvA5hKOZ8czpdheGqSMGVvi6fSH+KVylkarcoub7x6k6kEs+UssydefvHsM88nzCo6OyufCWQcrcZaNne3BLoBAIDaBtULw8d+0Tea0G/+1443XxOLfa+uhon8NbIvQZRczZ03ir3uNxNTipnpffnM4/9rPDluXFzS27CjKdLyEYi73T7sgvC297296datBwePfvUps47fAJyl8G2FyZGTR376RPuOe9qronbmzOH63tffPwLvnS5hYvNv2//2X+Ff3eB+GB7eA3vma5pI4fihkyOFJ+pvuNftCvB65SwtxeRk79EfP16/9eaqujhKHTlaffrIu4bYBwFmBg3/2PaP34RvAsBfwV/dBecf/jj+wiu/fObPvvQ8qbmx87o9//CnN2ypC3HfxlkaSrlU/5EnflrRvr6hqUbKHTle0ffSA2fNDxGY2VHzpeYv/Qh+BAB/Bn/2IDzoPGnlhnJHvnpI7Uo3vvOd67zqOAwUV4nhWROXzSB2PjE6SdXa1sqIxxo5q579qdiXfmcZKqZLvLrn1S/AFwBgm2fbrZ5bZyIdIIcb68LhSMRT/Nmvp/hhj5wrg2Jb/cee/MbRo88d9jEAVVdLavDeje3NQm3qi9bjRz0DhRoNdk6XpkDPwBkAkED6CnylBKV74J7zPk9NWFMnHn9V6y1X7r+jrb7Sx7eTcq40ZYDBY8989/Cbr7zmBwSKoSlF3/6u1nZPff4fzMcOuc7kg2XYec63DcDAAAwAwNfgazroB+Egnk0s5a2MNa7fuxdosMYvG6mfnEreuy4QdMd4NXOuADrA8IkX/vOl/hPH/CAi1dSVorivrbkz2KR+ifzsedepXI0K2wFmBrjDMDwMwwDwTfgmAXIADniyo6NDJ7/T5/U2rd/WtakpIo6snvPGV69vMzQlo4wOjZZBdyl6cejIa2doJH7njfUWPfqG6/RLW8/CnwBsnC79Irz4IrwIAB+ED3ZARxzibuDHG3OWyrcRa+DYM5nZ/aTVO/Zvevd/37wu+lro6F8kHgULwACwAfB5KRQtsL4MXyZAZn0bY4zqeWWid/L4Lx4fag61bfrM/tYor2DOkvi2kRPPPzq7nzS+4eZ17/3s29ZXTsSf/GTmB8QmAAA2ALow7+e34FsaaPfCved8W9W2DVXb/u52gMyLh3/82hc+cYjUBlydVVEMiG8o5VwB3zbW+9LY0dzTzn7SSMeOnvd87u4NjXbdoY9nfpizc6ADWAD0Qq0+Ao8UoHAb3CZPvX62782/P9P5Jw3u9Z5MYiwzliylcnphaiRTi3PhQMiD8UoV6yr1bRbAmTefe+qpx378VQkkRES3p3r3O2/btm9vp/a/lB8+Cy8u9M4n4ckpmHoYHt4KW7n8OUvDhftJJX/EF6+oDUqviQAxgDGAAkAKIAKLDB+IVTj+/SdfGf2n4/Vvu3/nzdtaKnjSRc6ScOF+Uskb8lZW1wSlCQkgDpAAUACSABUAlz81EWyINI5dv/lZUVALBYAIr2fOb8+F+0lFt99b2VQdch+RASoA0gD9AFMALoAFsgYqxWy+72X2xCNf+oX0I78EAHpuSNN11fe7ww/+l6ED9314R8Qnc992JcEAwXBVR/e66f2kottXu/vmrT3tlcHiWTw5YmZhGCADoF3YxEzB1GvwWglKXPucJePC/aTn4QZYBzAA8C8ADwB0wewiDKAAGRguWj/Uitc3eoLl01Mnn3iqXxskDTft3nrTxsZ1NUGeo4azNFy4n/Q8BIAugGMA/wxwEGAzgGdOKrYMTOTtR8qFXbG8aFuHBr07umONTppdSzVVI53z+pko8dl9zhXzLeftJz0PF0A7QALgqwD7AXYAeOZE3bKQzNs/Lhe3i50dO/b/F2tCM4nzSu6Mkcrlpqp2d7Y0tERkAa/ov381cuF+0lkSUIQgAAKYAugDaABoAhDmNDE2UBtyhJREEnDxbXmcq3HP3QHwY4CvAcQBEMDsxCcBOANDOes/cbEhRKzhF49+91P/Dv+1cWP7/76tCqCUHSllAXlCFV6vh69x4ywrNwMoAF8DCAG4AGJzGtUzMJa2vs9KtZ1npUL62z8W0N0dsK4CACBzamgg3V/s6nAFYwGedJezLNwAUAT4GoAHwA8Qm+PbBmBqivyQlep27Lxj+63bDp57U99//v7xM32vbvvcwQ3R3bUrvQ9Zi2wEeADgOwBjAH8IEAZwnbPb6hD9ejZv1Spv38R3OHGuxqBjC0AFwC6A7wF8+fy7UIPG290H/zxaTY8Nnjj52I+tBHxr8Jkn3v616dGJKLv3fvTh2/btubOZVyVnGdkAEAXYCfADgO+eL1odane77v9svN7PrGOju0b//pufd32+LAIA2NV1ndfv+uJ7t1wXb+B1yFkeugHCANsAHgX4KIB0nlYrN0n3fraiuXYV70Nco76tBeAAgBegAPB/APxz/tACIBX590meoEgtfSbvbn//K6+VfOOSRk63bN61pf3GLbVevpCI85ZBAN5IU/eG+++H1uq4Z4EiIQD3zDqMpgtfr9iBd8RdYSVa2XXDnvdKrQBzTxcSRKmnIRrne585VxJPsLZj44MPss76qHeBqFgQwA1QCZAFqLrwxchGfF3cFRPidt36vffcK43TkemUCrV1nRt339TYGMBeXs2cK6FVf2VLz3332z0tId8Ch1IGZhrYAsBFB8sEO/C2Glel58LZtkjHHZ2RLd56d+2KP0h3NToThLDsiUR8Qb97obNEqwHiAD0A3wT43xe+6Iqj698V7Gn2MS2vDr5w+Ge/+OcfngEAgBE4ffr59e8rYt/mLbUu7ts4v4lvC8Q7t8Y7F9v14gKoAvj4/G1OKwgQ6Orc19W57128TjlLjz/asmHnRzcsUkoGiAJ8eJ5XfABtACL4oXnXzt/dtZPXKGep8IXqurd/oHuRUhJABOA9AO+5yPcBtABcPNcW3/RQHGDTaqiC1ehMvC5/0/YP/K4leXAUggut8sEAYYB3Atx40d8sQUsb1ABglz+8/f3vaD54w/v0mW5XAG9lRUU4dn5slcPhcDgcDof7tt8AAYvecGPzIqUQgAxQB1A3zyteJ/0CFuVwY124sa6NK4HD4XA4HM5KB/Mq4HA4HA6Hw+G+jcPhcDgcDofDfRuHw+FwOBwO920cDofD4XA4HO7bOBwOh8PhcDjct3E4HA6Hw+Fw38bhcK4IPvDVQ70b3PO+igDFIR6DGK8oDofD4XDfxuFcZfbBvq/D17fC/KcpyCB/Ej75B/AHvKI4HA6HMy/CZz7zmbX091CgFKgG2hAMzVtgK2x9H7xvL+yNQIRffs4y4wNfLdRiwNabVv/X+uHXAL8G8bB4f/z+e6P33gg3PgQPdUEXryjOysEG2we+DGQykJm3wH7Y/xA8tBk2Yx4I4FxtrbrBnYf8FEzNW+B2uP0d8I7tsF1azScirbUTOIMQ/EP4Qy94+0hfOp02DMN53u/3R6IRADgIB/8S/pLrm3O1kEH+KHxUPCI++X8/6TwjeaSPtH/kQNsBXjmcFchG2Ph38HdlKGfKmXQ6Pft8LBbz+rwA8DH42APwAK8ozlWnEzo/B58zwZzUJzPpDKXUeT4SifgDfgD4IHzwffC+1f5nrs2T0++BeyrzlZ/6zKdef+316Wfeec8f//EfA0A1VHNxczgczlvij+CP6g/Xf+q/f4oQ4jzzic9+4s677gSAdmjn9cNZOfwe/F7dG3Wf+u+fKhaLzjMf++TH3va2twFAC7SsgT9wbfq2aqjebm0PnAjAyzPP7KzeBbu4oDkcDuc3oAM6OrOd8DLAtG2D9kw7b1Q5K5BWaF1XWCccESA3/UzLVMta0ipfjsDhcDgcDofDfRuHw+FwOBwOh/s2DofD4XA4HO7bOBwOh8PhcDjct3E4HA6Hw+FwuG/jcDgcDofD4b6Nw+FwOBwOh8N9G4fD4XA4HA6H+zYOh8PhcDgc7ts4HA6Hw+FwONy3cTgcDofD4XC4b+NwOBwOh8Phvo3D4XA4HA6Hw30bh8PhcDgcDof7Ng6Hw+FwOJzVgsirgMP5LWGMAQBljFBmU0oZAwB06bcIYjBW4fzs8XgIwqph/iZfDcAYIASX/kYGYFMqYux3yfx6cTgcDvdtHM61bd0ASro5mVfG8yXFsBDAtJly7JTzs+PvAABAjzW8/08/4/yMBSEth58+NXxh+cuAEGoSWxIEAWOE0NyvcBAQUAY2pSPFUnMs9MDGDn6xOBwOh/u2pe8XGSOMFTWjoBkl3ZyJLlwUZ5jptYpFtf26GyFS5TwMt3S9MZY6Vwxd/heDTSkCwBih6d73vNed5yhjqmlpxN5SWxn1ebiwrh0oZRal6VI5UVTHc6WMqukWQeesGhBKGQBGyFGQIx/q8rZu3DIjRqQL8mRBcdRFGaOMXui/4GLVIUopA4YBKGOAEEJIxBgjNOv9ECAAltOM4Xxxqly2GeXXizO3UTVsUtCMgmbolo3mNo7owhYVAFQ5sOfgQ5ROq0j3hn+zRpUxZhMqYOSwYKNKWc4wAm55S10lRohfr2tcqyYhRc3Ilw3Nshc1ADnk2nnXfeWyOt1Khyt/G61i7LTelzIAed1wy+KW2kpZFJa6NhC7dP+wMi4YAFiUaqY1nC4OZwsTecXpl9CcK+V0Ued6U8bKqmrbtvPQ5XJ5PB6Ypy26DLnYBAEIgtMlXth+OH2xatrjJaVgGp+4aXtPdQW/za6RpoQxMGy7qJu9k5mxXClX1tnMa7M6NG2bMhAxkgQBY3wJ7SEAxphFiDmj20uUdGTslYSQR1YMS7NsizCXJIkYY4ydMhgh1bT6MrmXRiYQgoMb2v/63pv4heMwxhiAaZOcqg9nCsPZYr6so3Nt6vyNqmVZqqrOPvR6fbIsvaVG1fk4Qqlp2yIWBAFhjIFd2I1ihGxKVdMeyOdb4uE/2rtdFPhS7GtaqxYh+bIxnC4MZ4tZVVtcq7ZdVtVZe+Pxel2y/Jtp1bKJgJEgYIzwxZYPI0QoVU17qFCMB71/dNP2gHvJ16KsjnibSWiioAym8lNFtWiYNmUIACHm+E6LEJtSAWERI2FOvyjKLkGarkGMsUXobFdqEZsuEtGYvh6UUo8kEMZUgyCEREF0ieKMTBBGCBjVbHJ0IjFRUtySqC/W43LWEqppTuSV/mQuo+plwwLGKGMWpZZtWzYBYCJCGCPKmGYylyQJGMN8umMAGCMBYcqoTYhlW25JFBBiCzQoJiG6abVVRtuqoq3xaKFsjGYLvYm0YVObguwMMRgzCXltMvlmIjWUyVWFA4gHLTizwwlCB1L50WwxUVAN255pVAGAUcZMmzAGAp6O4Do6ZAi7PN45TeS5RtWxYmyxjhAhZBOCEXgkQTcNm1KEsEsURUGYCZ0gASGb0YmS+urElGKaPrfEgPFLdo1rdThdGMkWEwVFs8kcrQJl1LIpZexCrQKSPZ5zwsHCeVol9iITGtNapQiYRxIMi1g6RQjLoihdpNWUqh2dmCoY+gaIk2WZ01jpvs0iRDPtREEdy5fGcyXVMC1CKWOEMUIpo8xZ0kMZNRkSMJZEYU6wYw6EAqUYIWBAGTUtCwAEvGA3xgAMm3hksTLkrQsHEKCCZiSKimYRw7ZFwbl0jDCWLmsD2cIbkynVshqiQUJ5E3NNYNi2olvjudJ4vjRZUE2bEEoZA0KJiMDnkb2y5JUljyQWdT1f1rOqjoAuNNJDAJQCZQRjLGFBkrEsChijC6WMAABZNpEAJDeqCHh9Lpdq2oppm4RJgkgYAUAYIcZYVtMHc4UTU6nhfFG1bcIYcNvGATAsu6AZkwV1NFtMK2XFsChjlDFnmOpsc6GMMsYoQ7IoCBjP28nZNkEIHLHZhJi2NT0nsQCEMdO2Iz5PZcBXGw4ohplVtERRcRYSiILgzELZjI3kS72pzBuTSa9LMmzCL9k1i2mTomZMFtWxbDFZLCuGSc5plTHmGABKHa0KgiBgNm88ba5WKTUtS8Do0lq1CAl5XPGAvzbs10w7V9YTRYVSagKIghP+ZTZjY0WlL5V9YzIpSUJHZXR55i9Xrm9zFrSphpUslk9NplOKppuW475tSm1KCKGMUZcgiBgYA8W0LIopsOl/5uscBYycqShKqSgglygsFHSjlOnUCrjcnVXRtsqYgIWMUrZHaKKo6hYVBcFZA162rIFs/tcjExP5osclNyDMQxprGyfwblNa0IzxnNI3lc2qmmPWGYDT13lcYk3Y3xQLxwJelyQOJHPD6bxlE3bJXZ82YQYhkiC4JEkWBEDzSwkBsqkhYRx0SR7ZVdCts+lCSTMNmwISJAE5X1EyrcFc4YXhsYlCSTUtJAjAlclDF4wRygqaMZotnpzMlE3LsgkAUEqdRpUSihA4japFWNmyGJMEAS+0nAYh5ISQnX7UJSIR43mbXwZg2cS2rapAtLs21lZZUdSMkUxeMU3FsAllkgAYIYtQ1bLemEodn0yOF4qNsTBvUa9ZrVLKCpoxniudmkyXdNO8QKuUIgBZEDAGmzLNtCmjIhMupVWEnE9gjApIkAS8UCjXsqltWxX+UHdNrK0yVjbt8WyhbFoFzSSUSoKApqdHrZPJzGsTiYl8qToccNYUX9O+jTCWUbThTGEwXSjphmkTNrPKGyiJ+1zxgK8y4At6XCXdHMsVJnIlzbIRZmjBHpdahAkIy5LklWURY4zRBdbcib6aNtEtK+rzVQT8HpfrbKpQMsxC2VBMKgqSG1ERY8aYallHxqdOTKXG8kWTUg/m7cs1AWFsPFcazhSHswXNtGcjrM56MkmWAh5PxO/zuV1lkwyki8miWrap3+O9xC2NAAidnpwCAIvSucpEc/6bXc5hEHY2VWDATJuymbZKwIgxptnk1cmpNxOpsVzBoAwwXxvEAQDQLTutaP3J7GReVQzTWStCGRBCXCKqDviqQv6ozxP0uMdzxfFccSJfQggALdioEkot05YlySPJktvtLN9mF2kbIdBMC4nYH3JF/D6TwKsjiULZLOoGgCCLCNj0mrYJRTkynjiTyqbUMmA+2Lh2MWySUcpnk/nxfKmomU5Q1jEAEoYqv7cy5I/5vUGPa6qgjOeK47kSBYYW1iql1LKpJEhuSRLdLmHOpOrFWhVFXOmSo34fYejYWKqoGUXNIAzLokQZExAijCXV8pHxxOlkJllSCUbLqdUV59ucDkg1rayqjWZLE3klo2hzo2ICQoIkRXze6lCgMugzCbWZSRl2y7IgCOySO0UMiwAgAWMBY0CIzu0XYa6HQwhhURA1m47nlKJuaqbtGEeEQBQwoyyplvuz+RNTqbFCSbdtwBj4LNRaj7RRxkq6mVLKI5lioqAWNfOiIR0ghA1CUopu2NQmNKNoZdMijAmzW0nnjP8IZbPRYcYYA0QZY4zCRZtsnFlYhMBpbjDGNgPTtKZzxSHk7FcllKbL2tls4UQiPVYoaTYBjHnnx6ULAPmyPlUsj+aKiYJa0s25jaooCF5Zqgj4asIBn0s2CSUMMBb8btciYxjKTEwELAgCxhgDgks0qhhjSRQLmqWYpZJuGhaxCaXMGWwAYWwoX+xNZU5NpbOablIKMzujOdeaVguakSyVncWXBc2Y1SoDEDH2ymIs4KsJBYIet0mITQEQ9rtdl16yThkzLIKxIGAsYOFSWkUYIxBFsajbuq2UdFO3bJtQv3PM8wAAIABJREFUxgBjhBgijI3ki73p7MmpdLqsGY5Wl1Gq4kq7ZoyBSUiqVB5I5YczxbJpXeCHRSy4JdEtuwRBtAgbyRRTpXJRN0VB9AjSheb5/DlTUaA2oYRS4nzTnMt8zrEBY4xhhAiDrGokSxpjgBE46RWcTrBkmv3Z/K+HxxNFRbdtEAR+v10Lpk01rcmCcjqRTSuabtkXmTbkTBgVNTNXNgQ0dwyHrIs/E2BmUdxsUG1+h0UotYmN0fRXIEFkAIyx2cg/ADhJRkq6dTaTf35oPKkomsWVyQHGGKHMJGQ8XxpMF4YzxYsHG6IgumXZLbsQEoq6NZIp5sq6aROP7L7w4+Y0qgiAMiaJ1FGxTekFU1TsvDcBAmRRGM8rjuZnG1UBg0VpyTCPJ1JvJpKJogIY8yDxNapVxkybTBSUwVR+OFO8wIqdp1UsKIY1ki1mVF23iCzJF1qni7QqCtSZ0J/Zlsjm1ypjgJBNIVFQyUVatRkr6eaJZPr1ialESaGAll+rK8u3EcY00x5M50ezxamiqlvkwhgmAAPQbeIEPCQB6ZZtEUooswm5uB+lDAihs9aNOT/NLtBm56yaYVkWIYwxURRlUZAFkc2E9xiaDp8KGBHKirp5eGzyZDKdKJZMPgl1bWARWjLM/qncWL6UVbTZrUmzXgvNLB5y9qNLl5w0RwhZNtFMExh1vNfsVOtFb0MWsf0uuTkWbq6IMMbGssVEUdVtWxSE2ZRCAkaUMtW0j4wnTkylpoolk3FlcgAAbEozijaQzk/mlayqX2zDnI6qqBvqlD2SLTLGdMt2xhMmuli5aHpJOMz0e7MriufGiBEilBqW5SR7k0RRFkVJwGx6Sdx0cYyQgLFByFihdHgscTadzZZ1Pti4hrXK8mV9IJWfyJcyqnahaZtpZku62Z/MjWaLCIFu2o4Js34LrVJKDcsi01oVnE2jF2jVyY5pEjJZUl4ZS5xJZ9OqRtHVaWNXim9z0qRly/pkQRnNFjOKXjbtC64ZIOSs+wbEbEJ0y0ZzQhqEXdzXOuEMiuZmrp/H2zHGmM8lhjy+gFsu6aZi2LpNhOlUu9PBemdWK1FS+zLZE1PpiaKi80moa2MIqJpWWtEmcspYvpgvG+bsBjcGFiXE2XrHKDDmzGAKWBAv7dtmtCiJoiggYYGb38mt4HdJNWF/R1VFyOsqm7bPLcuaYVJrbjDPJjSlls9k8ien0uPFkk64MjmOfmiiqIznldFMsWSYpn3hSJghRCkDJyYHRLems0VfnGIUARBGLZtQRp0CbP5GFSEEhFIRo6jXFfG5BYSKulk2bZtScbZHBcAIGIBFyWA2fzKZ6U2mC7o5PT3KpXtNajVZUifyyki2WNQMY2GtUmAWIdMzHvNpFaaXszuBYLawAZjWqoBR2CtHvG5JEIq6UTaJRYgw07qi6RzmYFEynC+cSmZOJedM5V8Nra4I30YpsyjJa8ZQptA/lVMM81w2jZkopxPVtAmF6dDXYjs3GTMsmxAiYBAQWqgwZUAoFRDUhkPtlbHaSKB/KjuYyo/lSwhENPMtzv8LunEmk31pZDxVKhuE8HHhmrZrjjyoRWiqVB5MFfpTOfvcrCYwYJQyyyYWJZQyYFRAABhTxpylPLDQYgs0HWlwyZJHEiVBWGjfqG5ZBrEjfk9NOFAZ8qdLWr6sWxSJgigLjDDmNBoIOcrM/WpoLKuWdZsrkwOE0rJp58v6manceL6kGtYF2gZnRQhjNqXO+khhNkA7nyIRACVUM02MQEAgLhDNZQCUMkKpX3a1xsPtVVEBoTNTmcFMQddMhKTZhhsBMgnJafqxRPJEIp1SVD49es1qVbdIrqw7UTTVsNgCWnWMgZPqctqFLaBVi1LNsBAwAQNeWFSEMkqpV5KaY6H2qphbEvunMoPpgmZZCKHprYsAGJBFaU7T30ikj08mU4pKEbqKWl0Rvk01rVSp3J/MJUvTu5xgevYSLEqcJYGEEsaoLAiiIIiC6BxdcKm8xwhJouCSRLcoLJBTCDFgiq57Zbky6O2qjntdcrKkGYQJouiRZTZj0EWMLEKLuvHS6GRvKp0qqSYD3r5cCxR1czxXGkwX0krZImTWiVmEGJZl2ZbfLcf9nqjPWxHw6qY1mi2kFU03ddOa/1wEBowxJgiCLEouSXISnC707aZNAJBFYDyvThZ1zbRMm1DKCKNO6F7AmFCmGMYr44mTU+m0Urb59CgHAADyZWM8X+pP5gqaoZk2zDl4zbBt07YtQhklCIEsCIIgSII4k89ywUYVYyRLolsUJRHPO9pACJk2Kel6RcDbGAutq42bhGbLJkWCLMpuiVE2PdslCliz7JF88dDoxGA2n9f59Og13Mxq5kS+1J/K58q6Ztpzli+BadsGITYhlBCEmCQIoiCKIAriYlpFWJacJU943kStCCGLEEU3on5PfTTYXVtJGWTLBgEsSZJbIrNaFTA2bHu8qBwanRzIZLOaRq92G3s1fRtjQBnNl41EQRnNlRIFtTyzP87ZQGcTAsDcInJ7XB5JdIm4pJmqaem2RRldyLexme11oiAIGKFL7PRkwABhjAVBzKh6StGLuqlbdtm0McKUMedzTEonS0pfKnsqmZ4sqQahfBJqbeOsVEsr5cm8Mporpkuadv4uBMZAErBbdDXGQjUhf8zvtSnNMJAE0eeSRZEunIyGEcYYm07052RhWCBsAQghWRRNwmzNdBZxOksz8Ux0xCJ0SlFPp3OnkpmJomISCpfYjs542vm1D2Og23ahrI/mSuO5UrJYdhIoAIBNKSHOoT3gd4luUfDKImOspBllixi2RRhdKEjMgGGEMcbOQWpogZ2esxITBcGiMFEoFzVDMUzdIhahCGEEzBlx6zY5m8mdTGZOp7KKYVqU8enRa1Crpm3nNWMsVxrPlaaK6uzYmDJq29Q5WsMnYbdX9soiAihphmrZpu2sm1xEq7IkihgjjNh8wmIMGEMMQBAEwlCiWFYNS9FN3bJNmyKE8YxWTUIGc4WTyczpVCavGytBq+JVumBO8lKmmdZorjiYLoznShd0nKZtm5bpd0mVAW9NyF8R8Hll+UwiPZotlE3NYmQBN8YIZQhhURC8bjdGyMn7Nu/v4GS9IgyVDDulZE2b2IQ6+/KceViMEAOW0/TT6exLIxPZsmYSeulxIe8ZV3lTMn1uo2pYzilAaUW7uIyAkSy4Ah65IRqpCfm9LqlvKptSdJOCx+X2XlIelDLN2VQ+ncJj3oLI6fwQEpxVt856IDQzznM6zpymn05lnx8az2uOMnmk7ZqWLgBYhOZUfTCdH0oXcuXzdiEQQg3LMi0zHvRVBX01IX/U79VNu28ynSgqhmFRSi4x2BCw4JIkr8tFKb1Eo0ooRRhbFFIlbSSrOEuMEUJOajfnX822M5r22mTyVDKTVbVLT4/yFnUNazWvGY5WL2hmbcJM2zYss8LvqQz6aoL+WMBrE9Y3mZosKAXLXFSrsih6XS4GsIhWEbIopBV9LK9aNqUzawZm1rYjk5B0WTueSB1PJHOqTtGKmGq7avE2m7KpojqUzo/nlaJmXNxryaIY8rjqwoG2ykjU51ENa7xQUkwiSXJlSFywrwMglFmUWYQidql0LggBQsiNJYSQaliMMSd6P/s5zuaRnKb/emTidCqTVTULGFxqvTnjjcwaQDOtREE9m8qlFE3RzfmUgwSEnG1NJyfTg+m8s5pVs2xC6GWld7+0ji5S9QUfKWJsEZo39MOjk6eSmVxZsy/jE0UB88O513b0wqZ0MJ0fyRbHc8rFeWowwj6XqyLg7aiM1keCUb9nIq+kFN2g4Pd4PG73QvJzkquZNmUAzv7QSzSqoiAIArYIs4lNGcNzctUgAEkQFNMczBUOjUyO5ApF3bz0YIOHiNemVgFsSkeyxeFMYTyvaKZ1kVaRV5ajPk9bPNIYDUb8nmSxnFRKOgGv2+1yuRbRqrPk+JLp3JxUrIIgE8o0y6aUYQRoZkoVAYgYly1rtFB6aXRyKJsvaia9dBvLlk+wV8G32YTqlj1VUsdzpbFcqaSbc7MqzF42jBBG2LBpWtE1kxQNM1FQyoblhNMu8fkYM2E6AwssHM+YtmcYIcZgdkUdmt63CgiQQch4odSbypxOZqaUskkvOQk1vaedB/pXMU6YbTxfGsuVJvIl3SKXOCSYMSCEFTSjqJkYo+kdCwiAsUU1MLOfdPFb/KKWhyFAmm0nSmpvKnMqlZlUVOsylOkWhY3V8c54hF/ltSrdom4ki+WRbCFZKivGPOMNATtRBKwYdrKkKaY9kVeyalmzCEIAgC+hVwxMEIAyNrMOZdFGlTmzs7ONqvNk2bLOpHMnkun+dFa1LJstsiNPmJOhkLM2sAgp6eZUsTyaLUwV1ZJuXuyvnMNDEcaq6WiVJItqWimXp0cji2hVxEDeklbPNwDOk5ptn80WTibTZ1LZomFYi2nVcSxr8JwrJ3lp2bTSSrl3MpMsqqppLeCFEQIwCJ0sKImiKmJMGbNmNpNeTnxiphi7nH5xzmc6ZyIgxli6rJ1KZQ6NTBQ0w6KLTEIhAI8kRj0eiYc0Vi2qYQ1niycnUimlbNr08gePDNjynKLoTOJnytrpdOaF4bGSbi6qTADwSmJN0L+vrWF7fTW/ymsM5xjHom6M5UqnJjIlw1hop4szRi2b9mA6P5wpiIJg2dPriS4t3tl9ewh+m0YVNJskVPW1yWRvMlPQ9EV3jyKAgEsOuGV+asIaCbMxRigr6eZEvnRqIpPXDMO2F9QqgGbaw5nCaLYoCoJFCKHLp1WD0ISqHptMvjmVKmgGW2x6FAH4XVLILS+PcROXuYnJlY3hTGEglStohm4RsmCqhHOJ8oAxys4VXDRGweA3n650VhFptp0r6y+NjvelcwVdtwEWnYRyiWJPdcUDGzsq/V5+f65SJgqlX/YOJYqqapjsrUiILVfH4iS0GcoXzmbzRU0nsPjyWBHj9dUV79rSva+9sSEc4Fd5jWFYJFfW+6ayE/lSXjMIZXThRpXN9FWUMcJsxi6rUWWX2fJeslEtGuZgrnBodHysUFJMc9HBhoCQWxJvbKnf01LPT35eG5g2yZWNM8nsWK5U0AxrdsvM5WgVlk+rJdMcLZReGpkYzRcUw2SL6c+Z0Li+qfaW9kaXuBzbopfVt1mE9k6mT09lR7PFOWdhryQQCAgXDGOsUOxP51KKuujmEQTgkcXrG2pu72i6vrEmtNiJfpwVS9m0JgqlnKobC+fmuLpgBAhQrqwXdcMmFLBw6RGFgNHWuso7u5rv6GpuDAe8ssSv8hojV9aPDk8OpPNZVbcJfStvXabhBkJIwMjJWD6QyWu2TRhbdMqpNuTf2VBzS3vDuqoYX36yNijo5mujibPJfEop25S+FXe1rFpNKurZbH4gk1NMy74MrVb6vdc31tza3rihJr48E27L6ttMm7wxnjo5mb54I8LKQcQ4WS73Z/NppWxcRgpTryzWhwL3b+i4s6u5rSLMb87VizMXb1NKKF2hvyEARogwxgDBYmspZEGIeF33rGs50NO2obqCX981SUYtvzQwnlUuTFWzgsbCCIkY9efyg7lCSTcuJ7lu0C1vqol/eOfGrXWVtSE/v8prxLeV9cODE07CrxWrVQGjoXxhMFcoajq5jOS6AZfUUxV7//b11zVWL9uExvKubwOwKbUJufgs0ZVz3YCx6bT4l5GjBSHYUF3xto2dt7Q3NkaC/M5c7SC0opfSzJyFelm/Y3tF+EBP291drV3xKL+yaxXnhECLrtxGFSEEDE1P4C6Q+O38AAbc2t54/4b2nY3VQT59seYGxhZZ2Vql01pll6fVPa31D2zo2NVcE/N6lu33FJe/laErcX50zu83YzEXRRLwhuqK2zub7+pqbo4GfXwSarWbttl7dyXPy1yGtUQIuuPRWzsa71vf3lUZ4Z3fmvZtziEcKzdhhpOdYeb3W0S7FT7PhpqKu7pbbmiui/k8fIZ07Q0zGKxsA4DQjFoX0V7E49pQU3FXV/PelvpKv285tySKy38To5XfL15y97CDLOC4z7t/XeuBnrYtdVX8huSsEESMAy751o6m+9a339hSxytkzY82ZnbQoxX+ey463vBIYldl9H3beva1N7bF+JqTtSrXlWsAZpO3LfoLukWhLRZ+15Z1t3U0dlUu94SGyIX0m9ERj9zV1XJvT9u6qhivDc7KoTESuLmt8YENHdvqK3ltcFYRNzTXHuhpu6urJebz8NrgrGSua6i5t6f17u6W6oDvKgzO+QV4y1WGcXtF+Nb2pvvWt3fFo3wDKWflDBaboqG9LfVv39S5saYi6uWdH2d1EPa42mLhu7tbb2lvrA35+fQoZ8UScMltFeG7uptv72xqCAdkQVj+34H7trds2qJe9y3tjQd72m5ua+AVwlkhCBh5JWl3U82Bnrb961p5hXBWCy5RaI2G37axc393Sw/f+MxZwciC0BgJHuxp37+udevVWx/FfdtbozES2NNS/47NXZtr+SQUZwVR5fdurat65+bu3c21vDY4q4hNNfH961p/Z2t31dWYcuJwLp/11bE7O5vfvbX76uYw577tchEQqgv597bUP7ipc0N1RdTr5nXCWQkggKqAb2dj7YMbO7bVV8X5iR2cVYJflupC/ru6Wu7obG6OhDA/GIGzUvFKYl3If3tH0z3rWttiIZd4Nb0T922XZ9owCrrknY01+9e13ruujTcvnBWCc8TKppr43d0t79jcJQmYrw3irAokAdeHA7e2Nx5c37ajvprLlrNytYpxddC3r63x4Pr2G5vrrrpWuW+7LKr8vi11le/Z1nN9Yw03bZyVQ8Tj6ohH3721++a2BlkQeOfHWS20xcK3dzT97vWbmqNBrlvOSqYpGtzX1viR6zd2VERWgla5b1sEjFCFz7Ozsfq+9e3b66uqAl7E2xjOyiDscW+urTywvm1XU219OMCnmTirAo8kxrye2zqa7lnX2l0ZlUWBN6qclYlLFCq8nn1tjff2tK6vqvDK0krQKvdti5g2ryT2VMXu7Gp5++YujyQKGPNqWauwVaVMlyi0x8K3tje+f/v6oEu+KtvROZy3ioBR3OfZ0VB9/4b2G1vqXNy0cVawVqNe97b6qoPr227raPJI4gpZhcJ926UIedydldEP7Fi/t7XeI4l8Fop7txWCzyX53OF3b1t3R2dzyC3z4QRntVAd8O1pqf/Y7s3dlVEXH2xwVjCVfu+uptrf27V5Y03cLQorp/tfdt+2SvpFjFDQ7VpXXXFPT+vuptr6cEDkXeOaH10h7JJEl2VfzjknvyWWZeu6NvMIeTweUVy8D0OAEEDE666NBLqroje11rfGwhLv/K7tkQaDlXzi4zlkQYj5PDe3Nexf17qlttInS3y8wQfGKxNJEKJe940t9ft7WrfVV4U9rhWl1eX2bQghNH0C6JLrg1I6e9oyRhhdxuofBAgjJGDsFoWWWPjWjsb3bu+Jed1Xd9MvZ3nwyGJVwOcWBYvQpZ67yWTSU4nxab+IcVVbWygUuAx9AgD4/e72ysjd61qqAz6fS+IX7loGoelWaxkmAxhjlNJzg1uML+dbMSCMkIhxxOuuC/vv29BxW2dTyC3z6dFrUq4zx5OvSAMwq9Wg21Ud8t3b03pvT1vU6xFW2NJhcZmbGI8s+l0SZRQjtKRXjlJayBdMy3Qeer3egPdyEuUhDAACCvhd+9obdzbVxLweSeCDwmuC5ljo7du7bUoZY0sdcHv8sce++41/cX52u93v/vzn9+zZfJm+jTDmkcSo1y2LPNJ2rSNg7HfLFiEiRmiJexdDN/JKaTZmEgqF3Jdxyh8ChAHVhPybgt59HY1b6ipDbplfuGtTqz6X5HNJAoKl1qppmoVSibLpYUYwEPS4PZep1Wrs7/C6bulo2FpfHfK4VuB2r2X1bbIgbKqrrA74dMte6sumKMr3D/9qeHjYeXj99dffvvOeyzKXgGxGGUaba+O1Ib+Ld43XDD6X7HMtU48SRCQ3fNb52ePxRCXUWhHml4DzVqnwe29oqy8bpk2XPEh86tSp7z/2s9mQ20MPPbRxXcvlDTaQQUnU59lcFw973Hxm/9ok7HVd31Jb0k2LkKXW6sDAwPef/KWmTa9FOXDgwI51PZepVZOSgMe1ua4y6nWvzP1ey+rb3JK4s2WZDuFJJBL/ceylN59/3nl4S3PlQ9u6+Z3D4XDWElVB3509LcvzXY8MnTzx+PcIIc7DP3/3fbxR5bylMcat3c3L811PZ8c+/9SPcrmc8/AP9+9bS1rlM4AcDofD4XA43LdxOBwOh8PhcLhv43A4HA6Hw+G+jcPhcDgcDoezEuFpyTicpcfM2croK784fnYsnQYAgMOHD19QRJ06mer9+csDMFkAAAQQr+3o2rB3e4MHAjxHG4fD4XDWlG9jDKihlzWlpFkADCCZTJqmOV9RyigxSmWCReT1uTAIPPsjZymlCWCbhbHCqWee/MqjvzjafxYDAMxuUJ/Byg8fOf6Dz375JfnYhIABg926/vb7DjSs29/k8oZ44gTOskNtoGapoOqGZQEAQDabvaAIsTRby5V0MO3pZwTZ7Q5EvCKSuGQ5y9fKEiCGUiprmuloNZPJsAVPEaEAlpZXTItBIOqRsLzatLpWfBs1IH/0lR899f0vP30GoARgWVZvb+98RTVDmXz1G49lQ02uOx7cFoEYzwHJWUppAowMHDr2zMPHAg/8/kc+3tgRBgB44oknHn744TnebiSjNpxM/sHvfGLb/9VaFaY2DL74wqj57199rv4j2+KhKp7bjbPcmCnIvfqjf/jhL148dQaAAWQymdkkIA6lkcODP//0//cCOTKdKBPqN+3d85G/urNV7IzyGuQsm1azkH/1iX9+7OdPv34GwAbI5/OKoixQWgEYevnfv3XilA4f/tzN3cENFdy3XQVKZnni1KNHzpxUoGtHpxeQAOVyeXx8vFgsnus/LV0be+WN3lPPvzZ45un+0A7X1pvBolzynCUdCDLQkul86fVc7MZ1m3fsW7/BDwDQ399/fjlPuLZzw5313Td3VDdF/NSCdjX3i9HAkSmmGhavRs5yk0kP9PV+74VJNehfv2O7Z1q0p0+fnhPG0MplY2TIHayqXR8PeQBAG7Os0tGvvtj6oXXRaGVs6U8z4nAAcrmx/t7v/Xos4/L07NjiAUAwMjLS399v2/ZFhTUlOTb6ynOvv/rcybwvkLe3mavvD14Tvo3m9OLp5755WunYdtPnPnpTBVS6IJFI9Pb2jo+Pn+tAbV09++yLjz31948OmKWWXS2wlQueswy+TTUst6ysb3C5NChOTBRB8oUVc+6IAQHUNnZtaOyaeRPCNBqPRrXtoh5DiO8e4iw3ZGKi9/QjX+hr/p//7aF37NkbA4zgkUceefLJJ+eE3MpEjGvBDz1w/+7GDc0xADT1zAs/OvaZ//bk4J5Q847KGK9GznIYgERy4PRj/9gX/5MP3/eBO/fGwCXA008//eyzzxqGcUFZW0ukBk4e+v7rQ+W01uLzr87Z/DXh27QyKeanmjuC7c3dFeBdYBE3ln3hbe97R8O+LQcHj379F6SO652z9CABQpsbqwfvjP+/j3zxW18syrLk6njgT8aHSpdsiezC8UMnRwpP1F+/3+MK8mrkLDPFQhnhsU07tzfFGoMLhc2C8cb2W95T64kH3dPvyhZAO7a59r6Ih4uWs0yUigYh4+u3tTdVNofh0seJT7z8nb7TveO3/UH7oNLFMsPct101hLDoqWtueH0kMfyDf37TDxBp6MGxlkyZnN+BSnK0pTEaq4gHtV+8MuXleucsg2/DIEfiTet33bU//yYMZwAh5C6+kJo4seBb1CkrefKnr6q9asXtt7fVxn18OylnuZGqguGhde3Heg8pg30xP0B8477jI+XzV3pLbl/A3RKATG//ib6fHhqktl4UKu/7wIae1liI1yFnmVxM3BcKdLU+P/h6bnz8WT9AxbobB0ZVi5ynVltJlkdfeWPCHBI3rt+23mdFisnM6Cr9i9fCZXNXuyrwrtb/M/zTw//2HQCAmuvvrd39tmShzCXNWQkEG3cGG3euexsAALG0vh/83jdf+9VjFxVjjFGjpCV6k2889cOzTaH2zZ890MYnmzhXAX9HVfWZu7te+PufPftiPwBA10PEsOz5t+hlTvX9+sdf+Pun7I6Hdt+66S8eWtcY87l5HXKWB19rrGr89o5X/ulnuadOAgC0Hfg48kYMe85aFFtXUwP9h77/Br6HtdzywXbPRC8cT65ap7pGDLc73HLX5z68vXh3AQCgOPKrgSN/ccY8m+aa5qwwsCA33vJndeON8OjDF75GrcLx7//syMi/vVF/z/6dN21rrQDgwTbO1Rps9Lzn25++mxU0AIDU8a89++wvXmZkHudWf+POh7q+fd3vMmti7MToV987cPP/uGPbHZ0tvBI5yzPKqNnY/c7/+OTt9sdUAID0ye8dev4br1L13I6uyZdP93n+fPy2t+3eeGBL2C2t7jXDa8S3YVH212zy10AbAADkz5KIORD4WQpA4ZrmXE0ogWzvybT1bDa+vzvWHHUjLPiq13sqOi4oqE6dTJ1+6pm+Qr9Zs23b1r2bmjfUhXjQgnO1kHwVoZaKjTPmK+HqnxgZR2gALo65eSsrGisrGgGU48ezR14afzmT2Z4qQ7MHEN9QylkGH+MJB5t29TRNP0z6xwqJUVEcBpheK6VnhxN9R179tbsiO0RPhAAgeezNiVRqbOTfvIXb6HU91zV45dWTynVN+DZiEMvIWZIkSiGPCADhtptbfF2eL/cBTHBNc64mzIbUa6+/lv6r1xqj93fJrRHn6Xw+f769M7L9Lxz59p/+K/xx8+aef7i3AUArTmhFQO5AxON2e3jYjbOcWGXNpjlLinhEjyQAQPV1H6oZDQL62WxfCNQwDa1kYL9HdDmTZftDAAAgAElEQVRpdj0V/nioqyUtYEMtA3h4PXKWHlszLDtrSUG35JMFAKjc8u66dAWWngOY3k+qmbadHa/qO/H869bzjmvQC5ZtW9IXVeRB0abNNW559WQ3XxO+LXM6P3jo031dnc1t/3VvPZcxZwWBRWjc3jXw0/ef/cy3/tL7/xjTd1wyOXdtBYXC8ZGp4uOPWQn49vAvf/7Ob0z3eKLsvvHDn7tl7w23N/Oq5CwjYy8cPpv5dF/X/7ij5faOyPxliidPv/ni11+Ovvv25m1Omt3SaHYk9fKx+l3EG+YbSjnLw8ShN86Of7qv8/f3tN63fv4Uuv6uu/e848Gv3KESOh0tHn3uC/1jY32dn7vz+o17u1fZzOma8G2y/P+z9+ZhVlTnvv9bc9WuPU+9d/fueZ6YJ0FkUEQQZ2MSUBONMSYnRs3JuTm5J1HznORkujnXxOSnNydR4ywmDnEAJxQQEWSGprvpeZ72PNRcq35/7N3QIChglAbqw/PwdFe/tbu66ltrfde7Jowh6bY3mvYTv9/tyxUpyeTg4FHJNqRJYt+OA60t7+9pP7Rrb5IfoTW8s7RxTmPZBVOCnLlXq8nnAYYDHyosn37lJT3ufhgc77dvbm5ua2ub8CLaPOXVc679bv7RXfsESZcF7C6zu9TkC4ZjcWmU2bn1rbG8gy5b9tjevXuP2juIJPT0gLzrlXVj/vezMelYOs7ZV11SWBoM0OaiuyZfCCyHa3Fm7zMbB93d4/OYW1tbJy7eRtnz/aXT/BNGXB4aeZIi0mL9vIoSd8nZtrfHOeFVnAVcyYzLyedf3Lb3l0+OuzSEYrHYxChDlTId777/j7d/+1K2vmyHffveqr9p7EtM/ZQgbfo2k8/HuAHY/DVL/TVLL5xw9LHHHnv77bfHv8PBVlOzdFXN0tXm/TKZFATqS/J6blV/+8RL2hMjuWOSJCE0YY6etcBjwS9QXnzyJW1XLqauYdHKm39xZYOPyDfvockXg78qPzh4o/6Hp15LPjOeq1EU5WN7QB8FwTpYm8fGYPRZOEXh3PAqHM2Xz7zpF0WXp1ePP6lIJHLfffft3bv3cND4ursr5x4OwgiwBvx+jzlrz8TExGQCdl/1JUt+WFaTMdLjGwFt3Ljxvvvum7BfQi6mNmOkcjE87/QE83CHuemzyReHzVVy4cJ7Hq1M6slxre7YsePee+9NpU64vHn+3G86pkoNvNV9Fq7kem74NpKgbO7Sae5SGN8oCIaHh+32o0ZYjK+7W3p4NyETkzOAqsK6dbVvvXXn+AFa00peeQU6O4EkYcUKKDXXTzA541CsPcjWB/MmHDp6UObxY0xMvnitMla/v8bvn3BIkiSS/CR7w3krOADv2fkHn6N9g+k0PjzsVZTg+AFHJgPZ4W48Dw5zKW+TM4QgwNAQ/O53czdsmDvRyf3pTwAALAtWKzid4HKZt8pkUhGDWJSNQj7A+FbdMS42CIMA4ASnBcz9Z0wmC3GIR5iIETRgfGRwwpLIatUBDh74s/0PxIzjL4B9lvO3vym/+U1LS0symcweCAaD5WVlAADXXw93320q2+TM8Prr8LOfQUsLHD34MgeOQ00NrF4N//Ef5q0ymVTcB/etDa9taW2B8RqjqqrK5/dlf7QMlpm3yGSS8Gv49ePxx1tbWjUt18goLy8PBAMA8AP4wdVw9dn+B55z+bZMBtatg2eeobdvnzLx+NAQDA0BABAEWK2wYgUUmBvLm3zhjI7C1q0n/ClCcPAgTJxnamJypmmH9vWw/hV4pcXbMrFj6RAcOgSHAOBJeFIBZQWswAE3b5fJGaQXetfD+pfgpSZnE8w7crwDOjqgAwAKoMAAYwWsYOEsnqV/zvm2VAoeeAC2bDlhwKZN0NoKVVWmbzMxMTH5VPbBvrvhbv3wcrsf43F4PAWp5bDc9G0mZ5ZDcOjf4d9jEDtRwFpYG4HIIlh0Vvs28zUzMTExMTExMTF9m4mJiYmJiYmJienbTExMTExMTExM32ZiYmJiYmJiYmL6NhMTExMTExMTE9O3mZicBXAc+P1An3gbIKfTXBfaxMTExMT0bSYmk4DFi+Gpp2DGjOP/lGHgRz+Cf/kX8z6ZmJiYmBwX4v777z+n/iCEQJZBFKGn5/gBU6fCV74CCxeC220+fpMvGqsVQiEwjIOy/Exn5zaAbQA7SdJ7+eWu5cvhggvgS1+C2lrzPplMHhRQaKCjEI1C9LgBy2H51XD1dJhurt9mcmZRQSWAiEN8DMaOG7AEllwL186CWTTQZ++fec6tu2u3w913g9WqNzfH43FVVbOHLRaL3WYDAFi1Cn72M1PfJmcMmoY77tjOsne9/Xb2AEdRRbffXrpqlXlvTCYhU2HqA/CABNKYNBaPxw8fdzgcLMcCwO1w+7VwrXmjTM441VD9S/ilBtqgPBiPxw9v42m32zkLBwBfh6/fDDef7X/mObqv/MqVcZ/vvvvu27N3b/bA9StW3J3dljQYNMVtYmJickrcDXcXbiu87977dD23ccJd9921bNkyAKiCKvP+mEwe7oA7QvtD9957byqZyh755g++efXVVwNAOZSfA3/gOerb8vPVuXP32e2Ht7uakZ8PF15oCtrExMTkNKiBmtpILWyBw/tdVY9VXwhmoWoy6aiAioZ4A/kheXi/q4obK84lrZrDEUxMTExMTExMTN9mYmJiYmJiYmLyz+Pz6idFCBD63K8ewwDHAcPM52hiYnJuYpalJqZWTa1+Qb5tfPTq5wtFmWWNySkwPsHoi8BUpslnR9e/iLoQxwE3e19MzgatZn3b+QxpSs3kfGsRfjEtCpI0fZuJiYmJyfnj25AKYn9nr9DWR9bNLPR5LOzJn7tnj+XVV68bHJw2fmDR3r3w+98DAEydCosWmQ/+fOaLSbmd8LeoKqxbV/vWW3eOH6A1reSVV6CzE0gSVqyA0lLzGZn8M1GTIPbtPAgKaa+fGeIwjDr1z1gP618rf834rgHjCZU3qt4IQxgAlsPyaqg2b7PJPwEtDWL/3lY9pVnrZoasFHEay+NugA0vFr4o3y6DkDvybsO7CigAsASWNEKj6ds+od5CSE6LkpyWcvkNDMdJzs4xtIXGADQlI0opQQbQgcQJ1upgaZo8fEEGUlB09/7tkee3uG4rtDKcpiTHg3HW6jwq+Ai6DvE4vPqq/Sc/uWvi8U2bYNMmAIBvfANqa8Hp/KQ9Ik1MPtmRIUVWdEHGLDxNUcQp5OxFEYaH4Xe/m7thw9yJTu5PfwIA4Diw2cDtNrcoNTlKcbqC5HRS1GQ1Z5pwiqY4O0/jNAkAmhhPS5IiAwAwNMvyDpbEMOLw6dIoGnnv7Te5jKW0YIZfS2SwjwV/goYlkOIQfxgefnnqy/DAkeOPw+OPw+MA8Ef4ox/8TnBiYGaYTa2qSEmnRFVSxrVKUqTFztMEQwKAJiUykijLAAbQFMNaHRyJT9CqHEWjmzdtwPvkQn+jxxBVQhgPplmrkyNx7BNciwxyHOKPwqNPVj8JvzxyfC2sXQtrAeBX8KsCKHCC86ze2+Nz9G1ITsV3P/HKO9uefC+35RTFu8qv+P7y+dOvqOMAulrXv/7OQy98CBCGarvnwpt+fOmcxmDB4dNVJdHZlEY8Pn2W0zY68MbfNv7x7x8ChKHK5rrw5nuXz24Mhj7+W+NxuO8+WL/+hJe1bh2Ew/DTn8LUqeY7ZnJ6JRMk9+7fNfryRvLy1TNqa/ynYLLeew9+/nM4ePAEpY4Mv/oV9PfDj35k3maTI7oYbYnvfuLBV9u3HYpkj7gq55WtunvNDNeUoAzQteXBxzZu3L0VAGD+lIVLbvrJpSUYuA6fnozGD2yTfSuZfKcPO7j5D399/71dHwAAzG+4cPHX7l1egoHnxL99O2y/D+5rgqYTBTwIDw7C4P1wP2kOvDnvUaJd8d2P/8/rLe8dGM0esRdPKV91zw2zgrMLNYDubX9+auO6rVsBVJhTNXPRTT+5tNLKeA+fnk7Em3eIjgWU2+ch2vb9v+c2v/7BVgAVZldOX3TzfcsrrYzvxL99P+y/H+7fCTtPFPA/8D/DMHw/3G8Hu+nbjkWNdoy273xt2/ChlLNsiosDIEABAkfhMWF0LFHhFVtf7x3uHPZPC7nBm1aVzK53myrAyl1T6sz5Nh3FhuMEbi2qdMldz0eG+o4Ep3e921Rp8FyozPmxX6zCnj3Q0XHCKxschA8/hETCfMHO5xahOLCjpa1za0uuFsQI0tuwpKqsZFo+AxAdaW49tGFnN0ASPCRVNmt5dVmx+3AtaBi6ONg0NJRsluqWomi0pW3fOycMPpaREdiy5cRtHQRNTdDaaj4jk8OI/R8d3Lf7tS1Smi+snFLIAQCIBsfLre3pitooNSAeeqxHNuTQtCluEAeiYnz/41vrbq72uLyWnG/LyGPdYWfIRtrSkQ+e75dBGg+W4/sf31p/c7XH47ec6ALCEN4Mm3U44bDQFmg5CAfNJ2UiDe1pO7DrtQ/SETpYMSWfA8BAMliH2tGdruCjtrjY+lRvRszkT6t1gzSSROl9z22v/XJd0Bvgc75NUiI9EZvXQnvU+M7nBzLyeHAaZfY9t73uy3VBX5A/0QXEIf4BfBA7vN7ux2iH9n2wTwPtrL7Pn4dvMwC0dO/u9g3PPtW+aOqF19x/00wPAAMpMTWy5YUWWo1ERXLgnVfGqJne7//6S1XgHnyl7cNnv9/SyXK+K0udOAAGuq6rkSGccbI1BdjYP9ZH+One7/+fL1WBe/DV9g+fvqelk2G9V5c5DfNdMTkldWqymo7073n9rXUbHny9AwfAwMBptuI669UrXA1BLxJbuz588eWfPfk+CYOojKIW3hpcsyLP7mJzL4uBUKKvU1BpdkYlT3eMbnnj5Z89voWEAVRKURfdGlxzWZ59JmsmHkw+OwhAi+57Y9vWvge7Fv3yewuumlfsBsAg3Nfct+XFZk4vGO5v63/uEWH+YzNvuu5LVRDb8tuX9g7960st89c0TvVaMAAMNElAQ91koIEDY/jg2kczFzw648brb6iC2Jbf/mPv4D0vtcxf0zj9xL7NxOQktRpr2rBry4GHOhb9660LvrKkwgOAQ3Sos/+DF1tsemJ0uLv/hSdSjf9Vf/3Xv1QF4o4/vrW79ftvtE6xcHMCPA6AgSaL+nAv4S3hdCra9tJTqSk/q7vu1huqQNr5/729u/nuN1qnWLh5J/Zt5wmfR+2iAXT1HBje8RJz0S0zZsyt9ABQAAAczeVPX+bAmSSSerdsna5UNdRXgdUCnCeQVzGt5oDqiqciAE4AGqKa1NG21SZXI//S3p4d06mJwZXTaw6orlgqAuAFIMxXxuTkW4TDewe2/e33W21q4Td+92SFE4AGAenJQwdwT6J/TLPH33tyUELsT9b+rxKwJprCBza93NGq25wzFheN59sgEQUW42ZU2ZM7/5YSdPYna/+tBGzJg2P7N77c0arZHDMXF5u32uQzkwTo2vdOMjXkv+0bS6eVOmy543ZfUfnirwZ5f6xnk7739VWBC/NLQoAB2AsrCgeoxs2juCAlARwAAP3xocje1wsLF0cxQt/z+qrAgvzSw8GD5OFgr3m/TU6fNED3wc2xkf3uNbdcNKsqzwHZ0Y42d7D0wuvzOHd8eI/Y9Oalztqi8iIgCLAVlIWG1MYPo1RaSAA4ATAYTI2N7H8z6GtI0hzb9NalntribLA1v6xgSGncmgv2wXk9lPJz8G1IB3EkkjG6Udm8ioKaAjsz/rsIkvTkWwDk5GAmPeaGQofTDiQAaXNa/IWFw2O8PxEF4AHo9Jg8emg35/M6nDPJTHvEjYvO8WCHJa+wcHiM9yUiAA4A1nxlTE62RRgNd3btealVKbq+dMYFSxdW8AA0SLqW8jODBosR2mD3B2qcCpXceNGsAOTFqTFHyxsfJhM9kRQUcQAkZJA+MtBCZyxk0aXRkbWazOaX3HTRzAAEEvSYvfmND5OJ7kgKiu1mi8LkM6IKIPb2iTaJDy6eHsjnYXwuFc3ydKDUDhAxRCPWHyrELFYeAIDy5LnoeHnrEEqO+7Zoz1gm+q639mtWyp1S9/SHiuBIsJPJBSdM32bymdI1Eoh9g6IlyeYtmBIo9HDjWqUYjsortgHER2QtPhj0GLzNCjgA6fY5+HBp+xieEBJZrcb7Y8nRza7KK2xMPtL2DwXzjgoeOxzsOb/3evp8fFsynmEskaqGQB7v45GBNDmTlGRN0jEgLRynIABjol9mOcLq9Ax2QiAVAwgC6NGRTM+BA40Lp9V6SiGzFcD4WLDhT8XgLO+mNvkiMRCgvuHu0Q/f4Kf/tn7anIrxUWgsQbK1F/gAhuR009DeKiFYMrUcrAAMeD1V0yo2aGQ4EQbIAyD1GJJa2potUoCeae/e0VxJ+YuPCcbDiTAAC2DOWDb5TCgyRMMxb77KlFS7wQZIVyQ5kxRVUIEEymLn9WNXObXaWYPObxnRk1IqW5/2t4+q4e3LF94W0AMpATtBcNq82yafqY2hQDQSd/klqqDMQzhYpKuykkmKqqEYJJCcjdeOHSDJ2xicDbSPGXExlR1fNdgVzgzuXLLwihBeEB85ypnxVobgssHJiX7A9G2fD6Kc7tn91P99Z3vre8NWKL/6suXF18wELdd5enyiY129h96dFry8PhQA6DBfCpN/hm8zIBFLk8xQw+y5IWfIdhKnsBzu9vkG2iQ9HgZwAVjiEa1j30e1+fZC9xqAFgD5SDCbC1bjYQC/ecNN/skkRls37nn6gVfa0SGohrKr7lzDuj+tDuvv3qXFxJVTb8939QIMmDfR5AshFe36cM/TD7zWkjmglEL5lbfdYC8D+OTNFIb69gmjXRfXfb3IE4f4iHkTv0DfhuNg4VlVsvWPxmJSXLJbCYstUFFYkqmAxK7B6NiwWwYrOrpZiaR00mPhnBYrIALEVEIe7SPza2xBF/exNqiCxEzSY+FcFuv52hWF0Be6X9NpMCm3IjFAVTScEJ0ezkJzlKKrqYFdG9u7B1tjBHgbyistM8uPnjVHEECzrKBqGUUC0AEysaHhls106DZPRcgOYWqibyPIXLCgyAC6qUxTmZ+1eKbAZrcmujKI7U8Cz5E073GVNJZrfZEhddfB4XgicGzrQxQUTIsUunALzYEKIEZGNCXJ1M91OizD2seD4XCwyac0+r6AHZw+e917xvZoIUiw2flUBz2CDSWRiyQYzuUsqi+TusYGtF2to7EYpRzz3kmiipRYvgPjGQtoAGJ0VBOjdPVMu8smHPv5kqgieTz4fF8n8PPwbQQ4fE5jb8Hg/q7eqLskWJxfUn/NDxsuPrCqa9sv/wJ+wDGMpFgZIxRFAUQCyqSV6OhQyJYfdHgMRKFIJsWMjjU4LLzTSoBEUqyskuPBQlqJjgyFbMGgw/vxpB2Og8cDNhukUse/PIsF/P6zfdFdwwBNm+wlyGSsHXECNwxCkXRN15GCtNHOTU+89sb7zx/CMqVfW3Xt7LJyt3qUDTFA13USN0icAAMDlIgOdRz8sGr2ncUFeQDhYz2LruskjkicOFHJwnHg90M8Dopy/Ct0Os/qRXdNZf4zYVhgCgLC1nhE+qhH8BRyVWUL535r4byxDVu2dP3qEbADSZDA8BkEmqYBEIDikTTKdDfkEw7OYUiAhqPRgCjwIR9wLJEhgeYzCDRVBSCPDv6EqwAmAIEIRCSQjhvgAIcTnOd8g8QU9idBs+AO+qVtg/1je7szHtpRXzhn1q1zZkc27/7o0K8eAScQOIHRFsEATVXBIAElohk11VOTN9ttcRgyjkbicW86bQt6SJ4lMQKjLQI6EhzLKLlg54l9Gw10HuRJIIkgHjfADnY3uM/2BaI/j+dMApQWNQRmXS1v+mjnhm1tEYCj6kLwkGxx5QW76UBTUxtkBBAjQyPte1qsVMxl8yCVSnQOp40D+Ayf0x60uim2uPKC3UzgwHjw8Gjb7hYrFXXa3B/3bU4n/PSncMstJ7y6FSvgT3+C2lqzBXnegeHgcPKqHDywY3gg0Z/iCLpo6pfu/9ZPH3j0V7deVVN4nGWcZdGIjY0VWIVCpw8MGhJShgoPNPK03fnxVRtlKRcccnlPNLht0SJ44gmYPv0ENSQDP/whfOc75rMyydUyUDdlqcNWPvrnv2zY2zWaPDYg5AiQU1e+GtcHu/sAAJJ97X3h3v0hP7KwNjkBY/vbZf8oU1nvwxxMyBkgp618NYEGu/uPDf6ERUjnwtxn4Jn5MP9EAd+D7/0AfkCY83DOa3iAmrqFrrwp0aee27Tz0GDi2B78fJvX0njpWxmyt6MXdASpgc7+4c4DQbfCWxxKGgsf7BKd/VRtlYdwc0G719J46Vsi1dPRAzqC1GDXwFBHLvjExqURGv8Cf7kYLj7RVd4Gt/0YfmwFq5lv+7gXtLrK6mqWLZ65pT++96W/DL9rBSClISk9MkwvKvLkuTgPuaQhsy/a8dc//C0ARnwoMYIH5hZUVXkpXRX7W+OqmihpcNt5J8VQnKdsSUNsX/yjbHBiKDmMB+YWVFd7mY8/P5qGadPgmmsyqdQbb7wxODiYPTxlypSLFi7MVZzz5pkv2Xnp2zCg83159mk1o3vb2tWAt2p+vq1kqsvLFfqkTbuBBguG5/nL+2MWvH8QytygJGOJ7uZue5nT5/QYBi0OxdKoVZxZa3XkWS04nucrG1AZyAar48EOv+OEvi0QALcbvva1Zqv1nXfeyb2EJHnZ8uUlJSVA07BqFVSbWz2ajKcPgA7OmteA7Z+7Zcvet5p7P+SsAJA+NJSyGqUXsVZvIK+Av37W2MHte5t6BoOQbmsbZf0XXlyRH7Bi6e50x84YX6u5SkMMWHCeChXUXz9r9OBH+w72DgUh3dY2xviywZ8w2tgL3oWw8Ea4kelg1r+x3kC56njZpcuqqqoA4Eq4sg7qzKd1fkMBOPKmzq5H5JwtO1rfPfTn3bwVAMt0hFOEnL+Itfn8eRh31YxI0/7mRyNjQRC7O8JgmzW/rLDAjguj6a7dMaZICZXncwRPsCgvv/aqGeGDB1oe+0M4CGJ3Zxj4bPAnaNUFrvkwfzWsJvqI9evXy3JuGMuixYsaGhoA4Bq4ZgpMOdvv9ec1L4EJTC20Ft2BHnjipfW/f7QtVwjZfXU3XuMqyfOyvPfCr461PmM897NnAIZhiivvsrtuq1zU4EOZcLynSUBBqrHSYbXwAMBaQxd+dajt2cPBDt/ye26rXNx44pHfixenamoeaG/fPO7b7ly06KLsvvLnBkhDqpxJCrKqZ5P3BM1SnI2ncYrAjsQgJSMARpKchcazueXxvTVFGeNOdW/Nz376GYYAKAhUFs79su2VbQcjW+m5ZbgbgM2MyZGkDHaGclNkafm8oUMRoWnHcFkVSLHuoT3NA9YaLuB0GTqKdYXTUhM76wKHM2h14Epp2bzhdDjVtGO4tArkWPfgnuYBaw0TcLo+4dWiafj2t7dx3J3jvo2jqNAdd5SsWnUuKNPQDE3JpARJznUrERRDWuw8jdMTlGkgJSMC4ATHM0eUaSiKomdE4HiGpk9dmZ/l9EmMtXL5HNpZjn5371OvPbUvt3eQt/HiujW1bo89kF8VuPIH+9f/dvtr//MIgAHL5q648K4rKqtxTO6KjjVvU93TudKQGwMcgMmvqrzyBwfe/O/tr+SCZ1+24J4rKqvxT+82ugVucex1vPm9N3U9N3Tz6099fXXV6vPGl+igK5mUIElqtvsIJ+mssBlyXGuGDkjJiAYCguNp/PCur0hRFS0tAmuhaYbET3V4FlJUVcsIwJze6V9kzq1syTTGU6j/7hfPrnvmo1zl66qcV7vmVpffmee35q28s3Xjg9uffeRJAAUWT1k4865llY0OVulvi7TuVOylTKjIRRIsAPhLylfe2brpD9ufeTQb3LDg8nuWVTY6Pn3hr6/CV32tvk0/3CTHcr7tKw995Y6GO84ZLX6O80lx2uqcfvP1oSvmfDk3xhAnKT5YmefOTicorb7s1luqLrsKQAYrxXiKqvwuAITUeLgdVKbA56UpavwiS6uW33JLxfJcMJ0LPn+R+sWej5598B8fHuzJbv7qm7KsduXta6Y7yz3j6+VJA9Lo/mdfA0t+8bJrGh0ADAAYKiR2794RXr+VXrl6Rk2l99Q2aTNUSOzeszO87gN65eoZ1ZXes24oFhucGlp89534y+9t/8v3bvw1BUDoIhgyPfv7l5SG/CTtXLwm9frGnf95w68sENNchlw6/4dVF8/NNxBK9rSkFB2bNc/utNkAcJIuWrQ6vG7jzv+84TcWiI4HL51XcP4qUx7Rh3e+8ODLm3e2dQEAgLt2YeXld66e7qzPY4/ERHe/8DrotoKVX5k+vgSjAYn9B/cNr30Dv3zNjPr6wCkOmDIgeaB579Bzb+ArV09vaAieS+OtGF+Nb/GPflCTuTWVGxZJW1180F/opAFIgLoLv3dvzVcTXwcwwO3w+oowsACkxMTY0F5rOXId6dS3A9Qt+O691V+OHxNs8mnCDkN412sPvbLh/QMdAAaAo2xG+ap7vjLTP6NgfFKHEob4rtfW6zEj7/LVMzw0kftBqrn9YN/Tr8GSa6ZOn1l4yspMNXc09z39Giy+eur0mYWOyT0qn3KXehb+63erUl9O5DwTZXHwwaKQkwUwAGrm3vbvZatuvxEAgcvm8hbylBVAlFPhkf1c8Eqby4nl5lbwADVzvvHDssu/uQYAgcvq9BbxlNWU4ufq2zCCoj3lxR4orjl+M9JRUOEoqDj6YFpQxvqaXJrXV1nMWHLlPA5gdeRXOPIrzAeWQ4yjaGeEzSNCjgYnAojKYnTwhQ1tzsUWPhjM3jdd0IWR7k6wg0s+PNTAMECJxkZHmlvoCzKyesrZFAPUWGwsd/rZuHgewbn4YOOMGYM6xsawwfEWBV0wv3ZGlZvFSTYwu6Qe5i1QrQBRyMlkgiYAACAASURBVKeYxqX1xQ0+i6FkEiPtqmxzl4Z4C0sBAE7ygVnF9TBvgWIDiECQYqYsrS9u9J3H9aCUgHBrjPZAAdfgMgBiipIcWvtmu3Wx016Uq+CQZEgjvd2gO3kJ4MiMSDWWGBtpasLmpU5dmQCgxBKRkaYmbG7ytE6fzKJlHUSgsT5w/B8C0P4ap//YYjaajkqHthbbq5wFefR4TU+fINjkU9WVhnBLnLRrwSn1bgAspqrS6N/f7rAs8rkqCjjAMQBdBnmkv1cfNWjRMI7MKFcTqejIwYPQsFhUj1m79GRQE+noSPNBqF8kKpNfq4yNyKuryYMTSMzhrXR4K485GIskMu3bQ9wVrkDwcKqcOkGwyefm2053NnISaeHRrjkkX1VX+ulDB7HzdjawqhI6Frr6X6bkla4sVwGat//l3Vd/+lLn4lp76bhvOxmQhpAipEQl19/KMBzD2VgSADQZKUJK0lTNAAwDkmUZ2kJrupCRhaQs04lYJBazkizPgqipSkbSAQAICiM5m4XimMk7SBkjaVvtFUtrr1h6/E6egqK5BUVzr772qIO6ZijR0WFNhKKAm2MOtygKiuYUFM256lqzLMkpU8MEKX/FrcW+mqsrEUDznuc2/v3bz/ctrHBWFxWc/GoThm4gRUiJspLtb6VplrXYWRIA0xWkCClRUzQEAEByDEtbOVyTBCmTVBQ8GY/EYk6KtXEg6pqSFrWsNweSs/H0ZFbmP5UxMUn1NV1ZxxWUBM/3dRP+CWg6pDJ5S7+67Lqp11UDibe2rN/y3NdeHJpV3DKlIsgCjp2ssAEpQlqSZDUrbIpmLA6WxDBcV5GSSUuarGaFzdIMY7UQek7YkExEY9EYzdk4kA1NTkuaYQDgBJCc1UJbJsGeyKdbI0ekNOpvuazk2pLygk83Jdh5r+bP60njOFDUaZznsfmnrfxZBVgtPAUWMB/hCXBVM3W+iyGPogEAA3BaPLZAPdCnmkSWBqTBj5598B9bm7p7gAZYcMGqpTfcvagEgBjcNbhj7YOvtjf1JoDgoPzKJZfM+tpyV9e6Fz5Yt+OjXXjf4BOlF6ysX3bz5fBK+74dj7zdBQDgnWqpWfW9NTPnVXs959QdjyOtvXN7fcZeOOUWsJsdSyfCWYrX3XgR+PGcMh2c0x6cArT9VJU5jKK7/v77lzbvbOsCHGDB9KWLb/zfy4oBmJGm6K6nHny1fUd7FACH8qsuWDL3O18q6nr7Hx+8umnPHmz4/qdLZi+pvfzOlfDqWOu2P77WDgDgrsXKr/zemhmLpgR9Z1eyjQDidKxmqGyB6+a1U63Vfp4CylTmZ8QWgto18w0vorIWzcbaHIEGDD/V8TrZvtSHX92weX8HAIK5NXMW33zvpRUsxUfa47ufePi11s0HxwAASlZOXbDgztVlI5vWvf/yur27oXvw6X+sn1+z6u4V1Eala8uDr7bLqg6OMii76ptfnnXZnELvme5CPd21SPKLZjhWP9bIlXp4ChgwmxlnLt92Wo6KoVmmYJrbfDCfdp/sBGEP5nJmBkgJwcDHnCW1ds45MdmGVBg9cGiw6Ql8tzW7ZoqhQbr1YL91ABolCI+0tI+8+lJXiidCU+pthjQwGB47+Nz2spsLRTjQsfkfY6q1INRQbDfwWCZKJEaieIDx+p2+kN1BFFeEKgpt+UZH06b+gRjhaZjiBtBlqzhySFBq0jBJfdvpLrtKUoyjeP6SgM0dcoHz01bQOV39n/1QNsxpy8ulFgyQkiKCIWdZnZ13T0y2GQjCB7pa9z35UJM1N/fWgPShtkGqDxpEiIQ7Bg+99GxHxAoFUxqcIA6MpqJNT26tvalQsLW1b3p+SLDmFTSEXIBFMykqNhzGKii3z+EP2WxYUVmoothdRHS0be4bGTHcDVPcAIbCx4daJKkyBWeZbzvdRbl4m5+3+c1tO/5ZVaUFHKVHlCOmJE0bdpaW2W1e7uiXPXJwoHP3s39qsZF4Li+fae8ZRt16Qwbisd7ezhefaxuk1eCUWjfIwwktuf/Z7XVfLdGCg22b/jaYoDzBhqAbIJGRmOhAxKgkXB6nP2S1QWFpfmWpv5Tu7t7eG+1T7VV1NgzDVS421qYIFQko9JytWrXwHkvpAp+psjPs20y+KHQDidJA+0hM67TNXuhyBPmJvk2Boa1NezrXvU8dmYWEFMU7j6qrE1Ff165tGx/ezP7HY1ddtmRFKBXZ/Ju/7uv//d8PLLoiphwYfHNdYPFDa+Yuq60hjc4Xnk86MYkOVC1aHtUa94j0rT9YOqsizfZs/vVvcalk0c0/vm6GnUUH9vZseAssujSJa8HTKlwcFOW48DvmsKCTBxmGIg92jUbEQ7Z5F7jc+UclgxEMf9T2fvOb2yYqU1VcU5XyegH19zftfPP/rGN//PiKK1ddU6FHNv/6b3sGfrS26YIrYs6WgZf/5l780Jp5V0+baqU7X3g+RhhpzFs1/2IRVdQOYbd+b+n8aYZ79L3f/BFGmAtu/K/V0+0s1d7S+dLfwaqL5pMx+WzCBtCkkZ7waKKVn93o9BXajs4Pje3ueX/Xu7towI4IW7VXC2W1KWNwuK11/W9fI7/zwNIb1nypClLbfr9ud/s9Lx6cujyNwkMvP2+b/fPrrl8zd7qD7X3l5YiQkXF3xezFYBTUDsL1dyxcvMDii7z3hye07tiM6x5aMyPPbhvo7njheWTXxPN+107Tt5mcLcTk9KF3HvyoGy+YdePCoqDzqMqRYKHsigVTff/r6kZHNqthKBDftW2/9tY+ZEvE0nRoZMotl9eHaoOAEaSjtK5kV3fNW/sjl5WANerJvPz3/8Lbuld+/a6F/qXLQhSJwdFTzzgL5nX5qZ2b3jmw9RvaHfctn1tRWefxgD/P3DbnvCeO9M6Nf97RlrDPueWKkuKjFyrGCChZMTP05Xu+Mt2ZnekMBsR37m0W1m4BeyKewf39U791eUNpYwgAw+xFVUX72hpf25W8uNSwpQv0l1/7b7y1P/XNH13iX7g4iGEAMLHBAgwLXr+XeXHf1u0/X4O+9ZNLF04vqVt9E/jzWPPJmHwmUgDdW5/cebDTmL76xrJKn/2Yfr3Ci+uvvfw7q2d4KCIntuTelrbY0++R7lRSZOz9DbctbqieUQQ4DrZQeWGL0PjGPnFu0ahdKcBe3/Cw1jSQ+dZPLg1dMD9PR0CSFoDewx9OM+D1u9lXEns2/eYWdNMPly+7qLj6hq9inuOtZmpi+jaTSYYOEB1uOnhow84BPN9R31DXmOezHj2QBSPAVugvq5m9cIEvu9qCLsOYkk4OfbQPSEVRcV5yuRxOi8MCmI7TVgePSMdQXDF8galzLr5NzAMPkTyw+0/NMpSG6iqmX2hnjvKFdspePf2qi/HaVDshxt59aeM2D6LLZi13lvGmcztvMQCiY4daDr39YZ/i5utrZ08LBI5RJmBgzfc4y2YvvMiXbQwYCMYUJPe+tQUoVVUwVnBW2p1WpwUwA2jezmO0c2BY1Wba62ZefEc4AAFdat338CEJSgKVFTMv9h6tTCvGVUxZscQoGMvDtPTW1zcfcMlYyexLHRU23mE+IpPTJBrr7mh9c0t30krXlU2bFixwUceusM0HHJbCmQsWBhky14oOAwNt6zcBrao6Q2ccFVaH3cUDBkBZbBaScw4O6GojV+Ff/M0r8hSfgHW1PPL/9uPF7qLyWZf6jvp8wgJEWf0lF6n2Pj/g6p53PuiyS1A6bbGlxmGzm8/H9G0mkxekIVUQ0m2tG3dteKi58Od31S5umHWqI2RxHAeFUBRV0VUNDMwwNEXDDJVjccgrnjM/NPPyq6i2fc+ufeGHf35duKhqzbXW+YUNBoCOQNURMhDiSap8+je+PxMLG+L+v9/xq1c2CFupJd8v+Tpf6DRHK5yXnk0zNFlId7Rt2b3+V7tDP7+rfsXsue7TUKZKKKKqqKoGBgGGpmqAVAuDY76CKXVFv7hsFd3W8spLL9z5369nLgpcfbVtcWU9ACAECiBkIMOCQdGUNd+dcmOMxlte+Pav//HK8HrxonsCX+fLPHnmYzI5jXayrgjprq4du9f94qPAv3+r7rqL5rqBPKUcF45hoJNqRlNVJbufrK5qhq5yNIZ58yqnF/906Qqqo2fT+he+/etXwzOYxavuWVg+3QBARrbINQwWUEHtdbfXXJ9kqbZX/+2Blx9ofl1Y+I0Hb7LW5nnNlJvp20wmL1K/2LPrmQd3jECg8JffnzujsPhUZ5LiGDhc1t4d/n1vHmiaagkW+fO0eFdzDyk0L5vmoTrSrannh4ovmZ5fcfENNz5SGXx6q+iJjoVBUQGiGXRAjKfllDRojx18p7PM7nQtqJ2x9H//yD3ro8o3my26lEwBeMzndP4hj+jDu/7+4EfdSUf+//332TOKyk4jCWB3WjJNoX1Ptx6o54srgoVGovdQL4rsXznrVr5PaxOf6Sm9ZLq/ZP7Va54sDTy9Ne6KjIShQgWIi8b+aDIhJqURX3z3pq4ynPNcPK1x4fd/4Jy2I/TsNhcmJJIAZpPC5JSFHYbwrlcf+qi5j/T98t9mziyutANxqnOPbA4WdYUOPNZ1oMhaXR8oAaG/o18Y3Ld8zjXOUbJr+/OdZRc2eAqnrbzh0QL/c1uHjLFYFIkEQEqCA+FUTIgrEV9814fdIRH3XzK9Zt7t33XU7Cx4+oM8KhNLgOE1p2Kavs1ksqIkhqNtW7Zu/6gHzysJ4OFucFCAU4ynblF1aWFj8GT6KAmg8wvKSy9c5N61e/3bvbta3Fq6rXfYXTn/qtqCgh7x4N62F9+M7bSyDoT0TDQ/lFdaUsTgHFPk9bbV+DfteksaHMov99Etb+/TVaOpzAKQyiiInDYj4LZ7TWWdl6ip0WT7+9t37DiQtJWEmGgfuGnAMNxTv6iirGz6SS7gRgcCxcLSy/J3tWx4d6SlK89IH+oYsRZceF1jUVE36mnufO7tF3ZZLW7DMDIxX56rpKyExni60OXpmFq4pWmzMpwsqgtxrW83iymt7UMrQEpM6/jMWXlel89UpsmpowuxVOcHO3du/6CbKCnio0PETgYAwF2zoLSiemYBR5zMAm6k3+eDJZeFdvdu3fzoYH8AxK72McI598qG0vIhbLS952/vRbdbrD4cIBVzuK3+ymKWsNL5mrtzatHrHduFMbWsoZjr3NSUHFU6t1lxQpDSCpo63ZfnDZBmss30bSaT2belk4nB7ig7cqij5dBDG98EAACKd9at8Vx7mTfn2zASI1neChaOOvI+YwA4TbOs3U7TZGHZLFe1D7X9+K9vvXioDViAS5fdWPntlRVFgDq2fIC/+fBzb8IAAGlx1K35xbW1c2a7KYD6wtpdCxftfOCtnRubF9asvK5g62u97c2bAAAgOPfaaV/58XUhb6m5wtn56dsy6UR/d4wa7hje3/HwB9kdWDGCqrvRdsXKQM63YQRGsDwPmoUmJiYIcJpiWYcDY8hQYV2w8Seo6z8eW/fi/qcBB1i+4OrFd11ZWQFo6OAu7p0/vPwOdAFgOFl34y+uqFswz40BVKOqg5eu2PvA23vfPjC7/qu35m9/evTA7j8BAIBv6qX1N/7XVUXeSnOjHJPTELYoJPq6Y/hwd3yo+8873hs/XvPlny6/IjQ1yBI4BhgBOGfhNSs6RtgURbMOBzB0QbCqrP4/tMH/fOLDx/76PACCi6cvmX3Piso6jkpuOMhv+tMbotwKAADVN9y/vGHxLA/JUhVUefeylc0Pvrlj/b7GA2u+GdqxObHjg78CqADumgV1a355SWlBje2k1/41OcvBDOPcnDs8PDx8ww03bN68OfvtnXfe+ftzaF95ORVJjw10DKeTwpG9pnCC5IMVfo8r304BAGiCJif7hoHkOH++g8oOfTAQqPFoTBmJYnmFThurY1Ksv2MokhQEwAHcnqC/oMJtAUEcGhlrH4gCSNlPDpT7PO4CBwUAcnIoPdbWGwWVcfJePzPULwlCDAAAGIfPllda6KTsHEGZa32emMcee+yWW27Jfs1x3Nq1a1edE/vKK5m4MNbXMZyOpY/sNYVhGB+s8Ho8hU4aAEAXkZLoHwaDZPMKnRQAAdkt1OLxhDwwCoFCp503SCXe1zEUjqUzAAAep99XWO3jQZBHx0Zbe6MAYvaTA+Verzf7yUp6VBht6Y2CSNr5vHxmeEBJp6LZFJ7NzQcqipyU02Iq8zR54YUXbrjhhsP7yj/11FOrV58v+8qrQlII93UNp8LJo/aa4gNlHq+/0EnhGAa6BGq8fwRUYAKFThrHcuslq4lUUuwbAV/Q4bBjlBof6BoeCyczAAa4bG5fUY3fSkhaNDLa0hPVUSb7yXmlHl9eyEEROKYKUWG0uS+qp4HnAwXs2IiWTEQBEADFO/hARcjFeniCJM29BHK8/fbbN9xwQyyWrZfgoYceuuOOc2df+bPJtxmGYWT/NwAZho6QhpCGDB0hHWW/NTQd6Qghw4jF4w899PChQ4ey5158ycVrVq/GMQzHcALHKAIncIzEcQLHCRwncYzAcQLHcAzDMMAwDJ/c8td10Cb35qCnu2HGWcxhfSLDQIah6TlxashACOnIUBHKahUhY/P77z/yyCPZE2ma/va375g2dRqOYTiOkThOEoc1eUScBI5l5YljgE1WfZrKPJtFC9nyUxsvUXVkaOPfImTs2LnzoYceQghlz7399tsvmDcPwzACx0gcI4msXLNaPfzFWSDac0bY57ZvO0aruo60E2u16WDTQw89nMlkPTDcdNNNS5YswTEsq0kKxwniSOma1SqeNQBng1Ynu2/LXp5hgAEGMozcs9GRqiNZ1URVk1RN1nRZ0xVNl1RNVDVZ01Vdl1UtkUioSq7Rb7FYbDYbReAUQTAkztEUS5EMSTAkQZMEQxIsRTIUyZBE1s+ROI5hMPHxTaoHOfkLEYIA8lzvhM+J87A+kaEhpCOk6kjVkaiooqpJmq6oWX1m5aormq7qekYQk8nkYWk5HA6OZSkCp0mCpQiOohgqK06SIQiGIjiapEmCInACwykCP9zAwGBy6dP0bWdL/QcGoAmi1XSk6EhUNEnVJE3LlqiKqouqKmm6rOmqpguSlIgnDn+Ow2G3cBxJEDSBsxTJ0SRDkgxFMARBkwRLkSxFMCRJZStIAicmq2hPBoRAVU3fdoa1mkvW6Iaq69naf6IByB5RNF3RkShJiUTSGG9j2Ow23mKhcIImcYYiLLkClszW/gxJsDTJkARFEOS4jZvMWp3svk1DSNV0RdMFVRNkNSOrgqKKqiYomqxpiqbrKJfeQIaBJnxtGIamaQgZ4zaCIEkSxzASx7JGG8cwwwBV11RN03RkY2k7x9otLEeRFpq0MjSf9XYUMV7iYJNJzTD586T4uT5K1jAMVUeKriuanpHVjKxmFEVUNFHVREWTNU3TkZ5TJhiGMf61YYCh60ibYHAoiiQIAscwcrwhiAHoOfFrJI7ZWMbBs1aG5iiSZ2iepniGyrY6SALHJk2xYipz8qPquqLpsqYLiprVraiqoqIJipZtVBxHtIZhGJ8oWhwncBzDAI2LFscwG0s7eM7K0hxFZhWbLVQpkqAmk2jPGWGfe9vrqbquaEjJalVRM7IiKFq2jJU1TdVzBsAwAKGjtIoQUtUjWiVJkiQIHD9Gq4aqa4qqYRjYWMZhYW0cw5Ikz1DWbAFLkTRBkAQ+2TJwk863Zf21piNV10VVFxQ1LSsZWRVkVVDUrLnOFjrZjOip/bWAITAQQpKqyaoqqqogyZKqGoYRcNh9DpvbaiFxPJt+4yiSZygrQ/MMZaEpliJoksgaPjA5j3MVyDBUHcmaLqlaVpxpWRUVNZurkDU96+R0hE5RnoABhgyk6rqkapKqiooiSLKiaTzD5DntXruVZ2gKx7Pi5LKtC4ayMtkGBknn8nCmPk0+VqgaoOr6uGjVjKzkRKtqYjZFoenyZxItklVN0lRRVjKSpGg6R1MBp91jt9pYhsIxhiQ5mrRQFM9QPENbGYrLZjhIAp/041JMzoBWdV1S9IySLWCzdu2IAVA0pCGEDOM0tKohJI8XsBlJVjSNJomAw+G1W+0WlsQxliRZirTQZFaoPENlO0Bogsj2pZ7xuzS5urKyTlnVkaCoSVGJZqSYIMUEKSnJsqoddmlHvCaGwcktWGNk24vIkDUtI8vxtJCUpLQkSbJsgMFSlI1jrYqaklQd6dmPxzGMo0g7R7ssrItnXTxrZxmOprK1IwCYFeR5V6AA6DpSdZSSlJgoZfWZEOWUqOgTCpGJ+sROXvnI0JEhKHJKlOIZISVLgiRLikISuNduc1otgqxquqEjlNU8juM2lnZyjMvCuqysk2NsLMOQBDnesjD1aZKVVrYbNCUpcVGOpqWYKMUFOSXJmn580Z5koTqe2DAERcmJVpIysizJMkngLivv5C2CrCIE+nh3VS4JxzEuC+u2sk4La2cZmiRIHMdN0ZpazQ6F0lFaHteqICVEKSnK6mfTqjHe1yEqSkqS45lMSpIzsiRJMo7jDp5z8BZBUQ0M0/UjWrUytINjXDzj4jmnhXGwDENltXqGDcDkyreJipqUlNi4XRNzg4FQNnuRXS7aOK3HpmhaRlaSGSGSzsTSGTAQQxF2jgk4bEGnzWe3IiAzip6UlIkZUQLDCAKncDw7wMhrtXh4zmNlHRxLk4TZRjzffFtSUhKCHBOkqCClJEVUNU1HqoYUXUcIZVP0p+fbBFlJSVIiI4STaVGRMcPgWdpj5QIOW9BltzCsDkRckBVNxyfM9c/OYKAInKVIO0d7rZyH51wWzs4xZ/swcJN/FklJTghyTJCjgpiSFFHRVT1XqJ5ItCdZqIqKkhLlpCCEU+mMJIOBeJZy81zAYQs67TaO1YGMi4qkahPVmBMtjmdLYI+V8/Kci2cdHGNmi89zUpKSEOW4IEUzUkKSJVXPlq6qruv6Z9SqmpakpCCGU+m0KIGBLAzl4tmsAXBYLDqQCUkRlWO0mpslxlKklc0VsG6etXMsiZ9JrU6KfBtChopQRlaiGWk0memLJkeS6bgg4ThO4jhFEOMzPvDD/cxG7t+RR4jjmGEAGp/sNPGOZosDHaHRZColijSBVeT58112n533WHkXz/EMM5oS+2PpWEbCJvgx3TB0TVdAFxQ1JeGCoiUEKZph8+xWN8/aWJokzG7Tc9+uIcMQVS0tq2MpYTCWGoglw2lB1nQcxykCJ/GcPrODJ7Lay6ozm5DAcmT3X8rpdeJw12zZk5HkgUjcMHSfzVLud/vsvNfGe6y808KpyBhOiklR0Q0DnyDt7PwpSYVMtudLUmIZyWuV/XbewTEsRVKEuRLneYqOkKTpGVkZS4lD8VRfNBFJi6Kq4jhO4QRJnFC0WcF/qmhxDAPAREXpi8QMhNw8U+H3+O28J1uoWjgE2EhKSssqQgZOfEy0ABkFy8hqWlLiGclj5fLsvINjOJokcdx0b+ebVmVNz8hqOC0OJdL9kcRYOiMoKo7hJEFQBE7gBIHjBIaRxNFaBUAIfbJWAcstEyGp2kA0rumag6Mr/J48h9Vr5z1Wi8vCYTgxkhIFVcsghE8oMzVkaEgHTRcULS0rGUmJC1JMyGqV5ZkzptUz7NuyN1nR9bSs9MdSA7F0fyzZPjw2mkilZdnC0BaattC0haEtDM3RNEUQ2eEQBI7lihgAAwDDMMPIfhqGgWEAHM4iYgDZ8ROGYUQzAo1jVUHvyqk1VQGf3cKKqi6ruqiqWFrOXtHxrxNA1VEsI8UFaSiRiYtyoctW4LLZWJomCLOUOYdNm2GAqGrhtNgfSw3G0t3haOdIOC6IBoCFoS00ZaFpC8NYaJqhSIokCAzP/gPDwAwjW6wAYONzT48o6og+cRzDMEnVRlOpyjz33PLCSxurXTxH4ISk6YqmR9ICgJidunr8lo9hCIomKFo4JYbTYkKUizx2n9VCsDRm9j2dh6IFkFQtkpEGYqmBeLonHGsfHosLoo5QrlAd/5+lKIogcBzHx0WLDANORrQYhmGYrGkjiVS53zWrNLRyao3bylMkke0niQmSYYjj52HHFW12dF04LY6lhIQoF7ntfrvFytC4KdrzSauypscyUn88NRhL94Tj7SNjsXRG0ZGFPaqA5ejsRJgjWjUMA3I52pxWsXGVHtYqDkBgGI5hqq6NJlMhl21acXDl1No8h42hSEnVFV1PCDKABCfuekSGIam6pIqRjDSaFBKCXOixB+y8laWJM6HVM59vkzV9JJnpiSQH4qmecLRnLJrIZAzD4ClcVuSMKKg6AgzHAcNxjKEohqJYmuZoykJTPE1bGBrDMElTh6IJhiT9DhtLUziGZROqOACO48gwIulM10g4I0klBf6F1aUlPjdgeHck2RdNpmVF1w1RVTOySnxa52d2yORIIiMpWlyUy31OD89xtLke1LnaEDQkVeuOJPqiyf5YqmssPBxLpgSBoQgDICWkoymEUK5JRxEETVEsRXE0zTEUT+cKHRXp8Yw4kkgFnXaHhWNp6nBWOGv5VU0biMSG43EwUGMoMK0432vjY4I8kowPxFM6MhRNFxVVQ4j4tAJCN4yUpChaIqOoKZdS6nVYaIoiCPNRnkeiNQxF03sjyd5ociCe6hyNDMcS8UyaIUkCh4woxNMpfVy0JE4wFMXSFEtTHE3zNGVhaJ6mVYSSojgUTeQ57S7e8nHRaggNxeKD0biOtNp834zSAp/DmhSV0UiiN5rKToXOznj41A2gkGGkZbU3kszIalKSy3xOnqZp0hTtuQ8yDFnT+6Kp3mhiIJ7qGo0ORmOJTIYiCIYAQRQSaX2iVmmKZGmapSgLQ1lo2kJTPMPoBkqJ0lAs4bFZ3VaepchsQmeiVofjyf5ITNW0yoB3dllh0GkTVL0vluqLpVRNzy7bJGvayWg1o6h9sZSgqElRLvM5bSzNfOFLXpFn9pmpOhpNCf2x48UFzwAAIABJREFUVF802RuJD8TiSVEs9jiDTqvLwiUkKSXKKUmRNE1SNElRNWRomprS1JQIBI5TOEFTZPbBZCTJQjMEgfkddoYks+MGwTBUTRtJpEYTCVmRaoPe2WWh6qDfAGwoke6JJEaSgqRq47HGyewxhwwQVU1DSNZ1EseQYQQdVnOe6bnXEEQGpGRlJJHpi6V6Iom+SHwonmQIbFpxwG+34hiWEKWUJAuyKqm6qKiKpmtIlxQkKXI8g5EEThEETZI6MmRVlRSZJjAcx1iaAgwwI5skNpKiNJpMhZNJG0NVVhZNL8n3O2wxQeqJJPtjqdGUkFVVNo2Mn4Q+s6vH6UbGMAwcg5DLbucYEjc7TM+PihAZGVkdSWb6YqneaLI3EhuKJ3DMmFoY8DusFI4nJCklKoKiiKouKWp24Q85K1oMo3CcIgmGJHXDkFVVkGSSwAgcY2kyq9esaNOyPJpIjSWTHIVfUFE4o6Qg3+VIiEpvJDkQTw0nM9nUBYYBMoyTEa2GkKYgPWUgw8AxLOSyuywsgZvD3c5xrQqKNpLM9MdSvZFkXyQ2FIsjpNcX+PPsVoYiswVsRlYlVZNyKysZiiLLipwQsOwYKoYikWEomiZIEgYGgWOM3TZRq4Kijvz/7L15mFxXdS+69nCmmqurela3WvNkWRYGg/E84IEx5AVCvmcI+W5CSBjeJWS6l5tr6yaEkFwIlyR8uSQmXwwJD8fJTQzhxYqxAeOA8TxI1mippR7UQ42nzrTH98ep6m61uqXusiy1ZK0PA65e+1TVOb9ae+01/Fa9PlWrGxjetLb/yqH+gUK+EYnRqnu84k7UvbiDeulYlUr7jCutpNYEo1X5TCGJzzFWz6ffFn//4+X68Ypb8oJpt+GHLGkZV29YfflAT1cmWQ+jehC6QdSIWM0PKw2/4vkVL6j4YTUIGkEYcB5xqQFMQnoySQyy3GhkHJsSjBHGCAml/YgdmZwOoqCQsm/asnbH6v6OVPLQZOXIdHWkXBdKawCMIHa84nzrUoRLVfXDI1pjhHOOnTCNuTUcl+QiECFl2QsPTVWmG0Gp4U+7DSnlYFfxzu0bBzqylOJ6ELlB6IasEUYxMssNv+KHVT+oBaEb8JgEkiCccayudCJgkRv4uaQTgxMhxIScdr19YyeSJtm+qvu2yzas6SpypQ9MVIanqxU/ElrFkeaZJmZYGj4DJibqXiRkTDFNzUt+2+tCuFJVPzw0WZluBNMNf6ruCinXFHN37tg8UMjaBq3Hh+EgakSsOgvaoOqH1SCoBk2qBYxQ2rZ6MknGo5rv51IJMgNaKcsN/+XRccfAm3s777h849ruToTwoYnK0VKt7AVcKQwoHv6BMVo6aEMuJl0/EiJmYUhcymNc3AZWqVoQHZ6qTrp+yfMn6w0mRF8u9bbLNq7p7EjaxqyBjaKqF1QaftkLKl5QDcKaH9RDHvCYfQ0lTbMnm+SCVT0vm3RMErcNIC5V1fP3j50wMKzryt+xfdPG3i6TGocmK0dLtSnXF0o3K6ma05KW6gCEXE65PhPSpCRmCjuX2//59NsCzqdc/0TNq/shAOSSiWzCTtoGJsaJelALBSXYJLSQNnvzGDVpTmXAhBdF9SByw8gNo5ofKK0d0xjsyE03/L1jU1Xfk1oX0ukm+QdARyqRLGTXdOb7Ch2B0HvHS8fKtaofEoxNAyNAGrRodqtqDEt1nLWGRsinG/6JutefS9NLNeAXU7wNoBZEk3VvouYxKS1Ku7MZy8A9ubTL1NFyw6KEEmybdtpJGBSD1lIqJqUfsRiZbhjVg7AehCYhhVSyJ5d5/tj4ibo3Uq50Z7MJ09RaS61sg/bls6uLuc29nZlkarzuTzeC45V6xKVFiYMNAJBaxfhEABgtFWZMqIoXTta8pGlc2gJfJ+KG0WTdP1FrMKFMQjozGcvAXZmkx9WxcsM2KCXINKxe22mCVikulRdGjYi5QeSGYT2Man5gEJJPJgY7ci+MnBipuCOlclc2m7KsOExiUtKTywwWcpt6i/lUesoNyn40XKpFXBiE2IYBAEo3JzEgAAxLJYTlUlb9aLLupy3zEmgvdqyyKdebqDV8JijGnZkUJZliOhFIOF71bIMaBBmG1W07AxRDTKUrlRexxhwDWwtCinHWsQcKuf3j08Ol2nil2pnJpG0bAJRWlJDuTKY3n97YUyhkMiWPVQP3WLnmR9wgxDbwLFa1Ag1kyVgVUtWCaKruZ2zLzlP8Oom3RVzW/MiLWCQkAkhZFiHINmgtZD6XBCHLoDMUozYl8ZQq2yQmNRKW3Yc0wShgHAAMQtK2fbxcqwXseKWulELx8CEEBiFd2UzSMlNOohbwis/rYVRqBAHjXEopZchFwBiT0jGNXDKRse04qaRnBxk1Z22d4rdpLqUX8YoXdqcTABevlQlD2L0bRkYWVdi6FW688aLy27RuRLweRH4MMEpySccyKCAyXmvE1WxWDE6DOiYxCTEIpoSmbGKZZibhmARLpUIuDIJt03AMsxqEoVTjNW8GTBjhlGOvoriYSSNMx2u+G0YVPyx7gZBSSCWk9BmLuOBS5VNO1nFie9TsUGjhc8EzYkwpVwuiRshfL1vBwYPw7/++6F8Rgttvh7VrL+IbEJeI+RHXAJTgXNKxKKWYjtc9ghAlxI5JxU2aMGkLtCTlOLZpph3bJHmldcA4Jdg2jLRt10IWcHm84mqtAYHWGmOUtKxVhY5iJhWfsRshqwZh2fO5UEJKIWXAeMg5kzKfTGQdJ21bCKGlgFYpzZSsB5EbMr00iocLWx55BPbtW/Svg4Nw++0X61w2n/FawLyIC6UoJtmEY1JiUmPKDUpeaGA84wAkWlP+DEKStm0ZZsqxBwkGrQPOCcKWQdO2HQrlcTFSdpXWcd4TIZSwzP6OXCGdNKg55YY+49UgKns+4zG9iAw4DxlnUmYSTi7hpG0bLxGrWjMh6yFzA6Zz55RP7Xz6bVwqP6bT1RDX/SAAoWCy7imtIY60I0QwNggyCbEoSbTGpADIrnRydS5jUooApNa1ILJMszufrUdC6bhRRROMbNNMOTZC0IhE1a9yISMhIh4zhkc1L6h6ftX3uZBd2fT6ni4DY2Ra6KQ2vGax3NxNfSYqEwnZiJhQ+qK1LEEAx47B//yf8Nhji+rcdRds3drOxRGCbBZMcyU6q1xEXMYFN5QQi1IN4EW84gUAgABhjOPJaWZzrihNmIZFKcaAkV7XmS8kHYNSpXXIRS2IsslkMcPcUBCMATQgTQnOUCefSoCGqXowVmkwKSPOQ8YbUeQGYc0PKg3Pi5jUamNv9+pih2MY8eBcQDBvdi5q2Ro9B6g+EyEXcNGL1lCvwyOPwMc+djqw3XsvpFLtXN+yIJtd+bch4jJkQmlACCjGMWh9Jip+2AQtQhhjipFBsEmIbdCEZcQtCxrUumKuM500KY0LxutBlEkmitl0NWAU47hTn2KcduxcKgEaSo1wouYzISLOQ84bEXODsOb7lYbvRRETckNP11BnwTEMjJYMWgCfi4ALuLgdtyiCWg2++lX41rcW1bnlFti2DZLJdq6fToPjrOgbIGTImrMoCUYmNQEgYKLmhxri4eAopv8wKTYJsQySME2LEkqQBjVUyPZkUgYlWkPsP6UdpzObqQXcwDhmeqUEU2Jlkw5oKHvRZD1gQkRCRLGBDaOa58d80VzINV3FNV1Fm8aDLeHU4eSzzapzHICAC5/zc0yDez79NowAY6TnhAfi+0IwxrMTu7WUUinEhPQZakQ8jkBUfa8nm9rS25V2bCGVG7F4ylAgRMKypNJSaYIxRqAQqBZhLwLkhtHxUvnYxFQjigBBwjIztrW+M1/1g3oY/OTA4VwykbLthGUlbTNpWQnTtE3DbE2cjbfqJlF4a+Y9V0rDxeu3PfwwfP7zsGfP6XS+9z14//vbuXgqBXffDW960wr83qRV7qBRc1Bj8zfTqvFvzrzSSCgVcOFFvEaigHE3DBphePlAT38+m7SsuLQ2njHPJXSkkgRjrTXGzWZ2KZXWTTqbyZp7bGr6+FRJIzAoSVpGV9pRKbvqh0cnJo9PlbLJRMKykpaVsM2kZcXlawYhlBCKMUEIEFIArYHKSGgt9MULzjmBGvjCF+CBB87g233hC/C3f9vO9W++Gf77f1/5tyGu0YkPGxqagwo0ACWkFTwApRTXIKQKkfAYr4csZNyNgqrnbV/VM1jIp23LjZgXG1UhI6E7UimMkdKaYKwxaA1SNo0qRmjabRybKg1PTikASnDSMgpJp5iyq34wUiqNlMu5RCJhW8kYt5aZME3bnA/a+IPNRN0u5pNwLM8+C/fcA889dwadD30I2usH/+3fhre/fYVjFSMUR7M0mh2qQU7GqkYgmQqRIAy7IYu4aIRh1fc293YOFTvSjtWasStCLgKucskkAlBKE4I1zMdq2fOOTZWOTUxzrSjBCdPIOXYxZVf84ESlMlap5JKJpNV0ABKWlTAN2zCMlgMQd/RrhOZh9RyD9Tz3JXCppNIKmmyiukXGhlpmVqPm/yoFEnTc4u4zHnJZ8aPhct0xQ6lUwITSWigdCTFddxthJIS0TbPVLWw2i88QYIwcgw4UsgZBacfOOHY+6WQTdtULR8rV4emKUEoq4QbCDXyMMcHYIMQgxKTEMgyL0rht3jEM2zAQQChEOQh5azjGRSjj4/D442fWGR9v5+KOA2vWwJNPLm+VacLtt8PAwLIWMWC7YfcxOHbqnwwwbofbB2HwpHiwUkJJpWfBOWNuoMVJNcP9rDQoLeMRbfFuN1H3uUSWQQPG4zFYXKl6EJbcBuMcIeTMcBPGdTwIAQAlKJ+0HVJIJ6yMY2ccu5hKaoCK5x+eKJU9Xygd8SjirOIBRoQSYlBsEBIj06LUNmMuEoNighC4EWsw9rqIt730Erz88hnUTn/8OI00GlAstv/x1q2D229vb+lD8NBhOLzgn26D29bD+rmvCKW4UouB9lSjqrSUSvmMBUxEQk26gQLsGIbPORNKa82kaoTRdN2NuEAAtmnMcL/NpCEIRtmEtb67kHastGPFoCUYVfzwlYnpadfjSnPOKpxXvAZBJG61NigxKW1aVIPapukYhkEIAmgw7jKmL+6AW7kMP/whBMEZdH70ozavPzAAR4+2s3BwEG67rb0cyKPw6Muw8G/wRrhxK2w92QFQTEqpNZqDVX0mrAaM+1yEQk01AkB1xzTiTpp4QqYXsem6GzKuQTum6ZhmwjKTpoEQamEVZxxrbVc+aZuxA1BIJUxKqn5wZLI8UXOF0lywquBVHwjChMQ1MMSgNM7bWk2yJ8MkFAF4nNfC6BzPnTrPedIGY5EU8ekw9lnRTEZjNjV50k/XIDhlWwnLxAjVQ14PeBxRpQj7jJca3r7R8ZLbYIwnbKuQTvbksqs68iliYYQUQNI0hjo71hbXrMqnOzMpjLFJqUlwwPh4pf7K5PSJqjvpNqZcr+z5tcBzA8alVFojQLHHlrKtzkymN5e1s4YCXWesIXkk5UVrXxwHikWo1YC3yqRsG9Lpk3TCEFy3nYsHAfz5n7cTpbv3XrCsZbyPDWMZ94vwxUfh0VP/moDEvXBvDnIZyMyYjIALnwsuFSU4bimHOSnzuf/McR60bVCDJnM6oQGX/TDeeuJevLofHiuVD46fCCKGEUpaVk8u25fPOh053Cyp1B2pxNrO3JpCtjeXTlkWIdg2qNLai9grE9PHS5UTVXfK9UqeX/b8StAImOBSAkBMbpSwrHwy0ZlJ9+dzSRtLBTXPL/oJeD1INguZDNTrs69kMvNBUq9DFLVz8aefhqefbv+zvfvdsHPncheFFtSz8BX4yoPw4IIKX4WvdkJnBjIz6cdQiIBxJiWZB9rTGlXLoJSSbMLBGFf8qKIjQBAzZrlBNFqu7BsbD0IGoBOW1ZPL9OVzjpHDhACA0iqfdAY7MmuK2d5sOuPYGGPboAAQMP7KxPSxUuVEtT7ZBK1X9j2f8Ri0BBPLoAnTzLZASx1bA0wHQdqzLnK4miZ0dcHEBITh7CvzcvGMQb0O7fkE3/gGfOMb7Sy86SbYsmW+hT/jqdiEWgbuxff+HfzdggpfhC/2QV8GMhhwC6vS54JJZRBCloxVk5IscWKYVYOo6s/BasjGK9X9Y+NuEGqlE7bZncn05bN2IR+fB6RWWcfuzSbXFLJ9uXQuYWNMLINiBD7jw5Ol4ekmVqcbfsXzKkHkRVxIGacBTWokLDPjOJ3ZdH8+ZyaoAl0OQtun6vXkt0k3jMpeQDB2DAMDLOXLY4QQITHLfOyYx7HWqhcMT5eHp6aTJt3Y3ZE0jSnXUwgizjXo2N3WShmUJEx7oNiRT1iRUBNuQyplGdSh1LLMbYP9W1YpKSWXSigZMO5GUaURVDy/3PAqflhq+BUv9MKAiwTBcKIRlMMQExRcxCVEt9wC994Lu3bBM880X7n1Vvj0p0/S+c534AtfOHcfKQjgs5+Fr3xlGQfBO+FzvyP3wMLhlhDCP4Q/HIbh34HfmX2R81oQlny/h6QMjBUsKReOMSatQUBNJm+MQsZLjWD/2Ak/DHvSiVx3B5dyuuFLLbmScXIrzro6ptmVyazpLoLWFT+abPi2QW2D2pR053LduaxSSkjJpeRKeiGrBWHFC8oNr+IFFT+Yqnshi9yAonw2knKs4dU5K2ReB34bIfDpT8PAAPz+7888Cfj0p+H662d1lIJ77jldmeZrJz/+cRuFBE/cAHfvgr2wdzGFL8GXRmDkbrh71m/johZGJc/vxinTImppcQCCcTyigLQmhGKEIiGmG40DYxN13+9KObnOnNJ60vWUVkxKwDgOOCutbdMsZlJru4sIoBayibpnUmobxDZoMZvpzKaVUlxKrpSQ0otYPQgrXlBqeBUvqPrBVN2LWOQGVOcyXKlR16tz5tjGRZ7e37kT7rsP/vAP4aGHZl+55x6w7Vmdn/wEdu2adezOjTz3HHz4w8tNzj7/JrjnHngmuX8xhb+EvxyDsbvh7hQ0C0wjLupBWPL8joRjUevVYJVLWW54B09Mll0371hDHRmEYMr1AKlISkAIcHOikm0YhXRiTXfBwNiN+Il6zSA47jDLp9Md6ZRSirdsrB+xehhVPL/c8MsNvxqEU3Uv4lEjoCqbFlqNul6NRZog+frx26RWkRBlL6CYJE3DIKQ5o+q0MpNFlVJxrSnBkVReFB2dKrlBUEjabxzq789nTEoOTZZLXsSVNiid6Q2JGU/dkLF4eF/D51IZmNgmTZhG0jQMgg2CLZOmCMmnQGsdcR6wZu/xWNUdKdelBsMwSn54YKpcY6yYdoS6ePOkfX1w7bWQz8++0ts7v3uUUvD9di4eRWfoVF0YOhJeeGFZK06shdPkGxSoF+HF/S//CzzaPGVqhEVHbwNZkx5PGAbByCAYzlTGODfFz5VEgAhGYSSmXPfYdFkpsb47v3OwL+1Y9SB6Zaric2VbJgKkWzPaEEJMqrIXBoxX/XC6ERgEm5Q6Bk1ahm1QE2NKaNI0DYKLaRBSRpx7UdQIo1oQHp2qVoJIacS0LtUbL01OG5RsZa+DflKE4LLL4KWX5r8yF6hKwV13wWWXtXP9Q4dO16l6Rpmagh/8YNmLinD6NXth757D34bdXXE+CQBEvsejiUmXOUbTlAEs2ahq4EoCIEqwz1jJbQxPlYXka4rZK4f6M47lM35osuxzZVCjNSUaEAACxKUq+1HEeC2IplyfYGxS4pg0aZq2QUyCDUKTBjYoLmiQSkZceGHUCKN6GB6drpW9QCqQAGP1xosT04Ti1YXMRV7gVijA9dfD1742+0pHB1x/PSTmnLKKRZiYaDNC/Oijp+tUPY1UKm0kZysmPCbhNDmXA3Dg+ePfEbt7IGp2S8hct2+mplxGEI7bRdHysKriLplAiIrnD0+VGOcDHZk3DvXnkw6T8tBkuREJQiiKp2K2lgulK34kpaoH0aTrY4TirrKkZTgGNQk2CHEsI0uwToNUisVdjGHohtFwqTbl+lKBRuiE6+2ZmFYYiunE6yjepjUIpcpegBFKWUYuYZv0dK7bzLxYBCCk8hnzI2Ya1I+iybp7ZGKqP5++btOat+/Y3JVJexHvzpeHS7WJujezHCGkAALGD05WQGsmJZdKKQ2ANAIMQDCiGFuUOLEbZ5kpy8zYZncusdogBKGyFx6ruKOV+vGqe6hSe358EjDKJCz1eij9Po1cey1ce207C2s1+JVfge9/f9nQmZu3PYtBkY/9uBWOt9Qv/oq/ZeckSaRtyyA461ixyTgNPmNwxoNA3CBUWhsUT7uN0VJltFy+duPQLds23LptAxPqRL3Rna+MVFwvYrPYRlgqPeV69SBicVBNKtAQ45MgoAhTghzTiPGZssy0baYdpzOTjo89x8r1kYo7WqkPV919U+VnRyfWdeYv5kPFsgRj+MhH2lz7f/7PGUrITyNtJ2eXIs8+Cx/7+Mx5Qt/1n8KdV0/iRNIyTUJyCSuOSpzeqOLWBD83jKSSFqXTjcZYuXpkcuqtG1bfvHX9nZdv5lJNuX5XrjxadetBBM3aI8AYS61LXuCNcC4kl5LNBy2iGNsmjYcTNkFr24V0yiSEIIjHDY1W6sdq7v7pyjOjE6sL2Yu5Ynjpctll8Kd/2uba//yfoVRqZ+GrSc6eXl7eB5/+Tai1jlHvuyt6yw1TOEEptQ2Sc+x4SvuZsQrApWxEERfSMmjZ88YrtaOTU28Y6rtpy7o7L9+MMS41gq5cfqTiVv1wdi3GUuuqF+5hU0Kq2MDqOVgls1ilyVkHwMqnUhYlGMFYrXG87I5W3WPV+oFS5dnRie5skstOeP30k8YpbKmVF8kTdU8olbEtxzRwvDsuZnsRimP4k7X6oYnJiHEupUHJjsGeq9cPvmX9kGOYx8r1Y6X6WK3hhtGCjz/kIj4tYoTmzTmQSgVMh1xU/YhgRDA2KY5zVRRhj/Hphn+kXDtQquwrVU64XiHl0EvzWNqWZBI+8xn49V9f3irPg3vugaeeem3xCUhrzYUsNwKCkFQ6aZkmwXGn3mKWhWCspWJCHJmcmqzVI86khp5s6u2Xb7pp6/q1XYV6EB2dro9U3fFag4sFyiKF0oKx+IA4bz6VBs2lFiFrRAwDIhgbFJsUO4ZhEoIRKnnBWL1xtFzdM10+Uq41Iqa1vjSB7SzINdfA/fe3ufbuu+GHPzxnRlWB5kpWvJBiLLVOmoZFyUwzzSIOLVZKCaWGp6ZPVKsh40rrQjpxx/aNN21dt7GnqxGxY6X68Yo7Vm0wuUBNiFTai3hsVE8BLXClRMQ9xhEgihElxKTYMQ2TEIpQ2Q/H642jldqeqfIr5Wo9DJVOU3wJtK9OPvpR+JmfaWfhT38Ku3a1mT9ZJlZ1a8KHQUhsYO0zYhUhpUEqNVIqj5QqEWNS61zCuWnL2hs2r922qicScrRaO152x2qNaKH6Jam1z5oOADllAKBQyou4z3gZwjjNEkfjLEopQpUgPOF6R8u1l6fLh8rVShAW0w7F6Bz3z5znufLNgKdUPuO1AIMGrcGilJJWNHSu7916nFprgnHKNjtTiZrnWdTu7chet3HosoHeYirx4sjEkanqhOvruBYOzX9HPeeic1ladIvXQ7cmLSAECCBgqI4iABQJWQujyYY3XK0fq7njDc8XIh+/zULf7iV46YewsL2+DC67Hq6/YEyAZcG73w1CNHM9e/fCvffCbbctt6NzIQBS2LFj2auCAF55ZXnsIVfvg4U6Es6ETtAAoRBuyGIehHjiNUYwU/Q9H586ZnvG+YQteOT6qpBJbVvV89YNqzf0dAaMP3Hs+Eil0WBCAyInTz9o5Vh1zBh5KjhjfCrdbGJFSIYCIQQIIqlVxOWU54/VG8dq9eF6oxSEQmtAsOAOKEDsht1H4eipfyJAboPb1sCaC2+vWr8efvVXYfduOHIEtIZ/+zdIpeC2287Clbu6oKurzbV33QXbtrWzcOdhgN3tLNQxryQnOFBKK9OIi68XNapaAwDFOJewGLNrWhbSqU19XddsHNrY06mU/unh46PVRi3kp4J2xqjOgnYhozoDWo4ACYkYVP0o5geY9vzxemO4Vh+uN6b9kKtmQcuC3+xhePgAHFjwT7fCrRth4wWG2JtvhulpeOghEAKOHYOvfhXuuAM2bz4LV968uc3rdHbCiRPLLqrbchyMhwB4G1hlUnoRoxgppbVlngGr8b5BcNaxgqRdA5lLJtb3FK/dOLSpt4sS8uzw2PGyWwlY21iNyV9jByASCDGOAMUsuyU/OOE2hqv14XpjyguYkkser3AR+W1xKyig5qzSOAmVssEGYhCM5vndWsdJKAVgELK6kF9XzFYbbiGV3NDbtamv2zGNcsP/8cHhw1NVDWhVIZ+0THRKdGSx4Bia08PS/FwIIUBSqYCLRsSmvOBEvTFad080vBrjTCmNEMIIYP5bKFAuuN+F786tc58rvwS/tA22ZSBjXBBTFpJJ+OQnwbabftvjj8PevbB69Vnw29oTx4FPfGKZa752Zr/NtqDQImU1LbAdRAhSCACYlI0wis8VKTBN2qyNbfECggaIJ9tJrRFCScu8fLCXsY6G72/o697Y27WhpxhysXd08qEXDzCpU47T35FbMLQcl9wuCM4Yn6iFYoyaxQaNiFWCcMoLRmv1cdc74fmhUlJphHEreXuShBBOw/SX4csPwUMLeOlg/TX8dRGKaUjDhSVvfCNccQW8//1w5AgoBX/1V1Cvnx2/7dXIr/xKuysfOLPfZppQTMNMUjGRQJQiiaCZS2IAKN6CTIIJBnQSi81JoLUNuq2/Z3N3vup663u7NvZ1bertYkK8ePzE7hcPBEIlLHtVYRmgXdCoNonlpPYYqwbRlOeP1txxt3Gi4QdKCaUQwQvuhBFELrj/G/73A7AwS99X4Cs90JOGNLqA2EM+9CEoFuGRR0AI2LMHPvUpyOVKH3pUAAAgAElEQVTOjt/WtmzbBl/84vKX7Qb4wRn8NsOAQhoomt1WKMFNrKpGFLXiJmBRcipWYwcgxqpF6ebero1duarrDXUVYqxKrQ+MT31vz6FawC3TXFXIYYRfJVYBQCjtMV4PwikvGKu5Y27jRMP3pBRKA46xeq7xRlcCdGMHKR5MwaSMhMAYEYwoRgRhHftqWisA0FoqrbS2KAzks1t6OwgCi1LLNJhUU+X6WMWtBgwQSpgGIXjp6UvUPOLNth7HLMyhkFU/KPthyQvKQVANIjfiUmmKMQWIyZ5PjejWoLYLdn0XvrvY2z0ED5WgtAt2XQFXXIrorxS56WZ44LfnhKQIlH00WpppDpVKMSFDIhCiFiUEI62bfaAxSkGDUAojRE1jc29nV9ohGBKmhTCeqPvTrn+84kZCmQa1DYpOmw44FZ9oLv+IBgXa59KLWNUPp72g5AflIKyHzOecIkQR4qjZ5XTqW/wAfvBZ+OxijYoM2Ofh88Mw/Bn4zCVQrHS5+i1w/93Q4lYAQaAawPHp1rGzyZIVcoEQxZjQ+aAF0FoojRGYlGzo6ezLJgkCxzIJJtONYMr1h8tuICQl1DYpas0AbMeoAiiAgAuP8aoflryg5AclP6hHzGecxOT4WvNFjOqT8OQu2PUCLNqQ9GX48giM3AP3GHBpsOmKlB074G/vBtE6G0sC9QiOTUErSjLjACCEbEQoRhrNYjX+RyoNCCxK1nQVB/IpgsAxTUpIxY9KXnCkVPeYIATbJo1jba8Oq9JnvBoEJS8sx1gNWYNzBEAxFjPTAc75jaQr5IGiZmA85vjWSimlCUYoHlEQR9uUjrmJlZAqTnJzBYSSQOpq3a/4UczTQanRkcKWQSnGM1R+cGaXWGsFErRSWmklpI5kzAPCyn5Q8cNaGHmMhULGtM641YQMQkC5BP/0T4Bma5W44z5323cP9h9c7M3GYOxxeLwK1Uu/5RUkvT3Qe2PLpkg4dByCYydH9EHpGCEaAAhCuHk20Bogfr3VSQBCgQREMamFrBHxqh+VvaAasHwqaRrUMcx5NuWM+JRKKw1aK6E0lzISMo5YVLygGkb1iPmMRVLFbIhophw9iuDFF2HPT+dea2LTE4/dsigdhgb9Ery0GH/mJVlZ0tkJN94467cdOg4HhufBSmmtlIqnuswDrdZaKi2kUlrHYwaFRpSSeig8FlT9sOyFJT/MJZMmpbZpLBe0SsVpqRi0Ks6I1cL4txDWI+ZxzoSMgyhYt9piIwb798HBZ+dea3rN8z+47VFOFmXK3Af7XoQXL+bRNRe6dOTh2msBcs1/PTIKB44BmkagUbOeGFQzNKM0EIwRwXOxCkrpFp0qSKWlRpSQBhM+Cyp+VPGCKTdIJxIEY9sw4vo5tGQHoIVVLZVqYpWxWhhVvKASRPUo8hiPpFRKxbxN57GqfYX4bU2fNc4BzVApIEAxp7ZBEG6eHbVQWkjJpfIYPzhRoRhFQjQi5jERciGkyiUTcbFhPFd7Jgba8s4A4kYoFD/RZhJdaS2U4lIzKUIuAia8iLkRq0eRGzKfCyalAo0xooCkRLOJd8ZgbBy+dS8cmeOldQKsAeg/7ZdWGtwa8Oll3CfbbnO64lkR24aODnBd4LzZ0dlonM/Ps6zPDnYHdLjg8kUi+RnIzBALLYRPaNF0zL6AMbYMahBikKaPJKWOuX+k0hN1rxaEGKF4ZJDPRCQkRmhVoSNO9wul0MngBD3TpTdLQBm/KJXiSjMpmZABEz7jHmP1MKpHkRvySAqhFEKIYqQACTln6/IDePIp+Mf7TvpCHwS45Uy3LIygMb3sG21Zy2XsPPuSyUA63SSCjiKYnoZ0elkszStETDALUHDBZbDwxIs0pGeYohfH7UytWGxjkUmpSbFBcBO0SgupuFRCymnXb0SMYuxGkRdxj3EmJAJogha0mGnznLNnaX060HIpmWyBNmL1iNXDyI1YJCRXEsVd/IClUnqmpiUI4KU98K17YS6f+XsAbgE4Pa1YxMCdBlgO138qdRJl2nl4zCYUizA52Ww6dl2o1SCTgQuqncgAowAFBiyChVunU5DKQvb0KezWDNtmWjRm6DApoc2Jzk2sxq2gZS8IuCAI+YzHDkAkBAD05rIxx76UsrlNL4LVpgPQwqpQmknFpAiZ8JmYNbARi7jkSgIARUhjLJSCxbvTXkfxttM8SoKxTYltxA4cJhgRhKHJtiB9JoRSJiUakEmJUjr2rxVojLBq9SDMHV2sAWR8BtRaKi2lEkpyqSIhIyFDKeLZzCEXkRCRFM22Pq25VmeT78Otw913w3O5ZSx5z3vgU586b4/i1lvhb/6mScDbaMD/+B9w5Aj85m9eEGblJrjpPrhvF+x6Ep5c0Kv7DHzm3fDu5Z42EEIGwQmDWAY1CI5z862qCBVx4XNhEGwbFGPsKKU1IAAFgLWOq9N0C5wz26zUrbkuSkulRAufoZCREKGQIRMRFyEXkRRcKoKRoQkCOMt8H4/9ED77c8te9ba3wWfOa3aVEPjN34TBwSYB7+OPw8//PNx990kEvBeIXA1XPwAP7IJd34fvL6jwG/Ab74P3LbecCyGgmDgGsVqbYjzPAwFwpeJBgjEdEkJIGieDtsU1OM+oStBaz4BWCyXjzTUSsolbLkIuQiYiKZmSBCEDY4A5p5ezIk89Bff8AvDlXPK//Je2R5CdHdm5E77xjVkC3r/4CxgdhbvvXuFT4efJDthxH9z3R/BHi1UHfRQ+ehfclYTkcg0sxdih1DKIRQnFmOAmVoVSkZABF4Rgy6AIIcegcSguToxgIEvBqmxhNRQyiv+bNeEaScGkxIDiFmmulERoJQR0V7TfNkvYhlq0agZ14hlhlCitAyEaIfcZD7ngUonmJqeEVFJpqVTsRMe5LRlnuEBJpaSO3XbdpJ6XkknFhAyFiEMaTEgmFVdKASCAuL0F6bNaf8gFPPc8LIuMU6l2wgbbtsENN5yFDzyXgFcIeOEFOHDgQjErvdB7M9x8BI68Ed64QJAIrHfAOzbD5uWCE5rwQAbGjmE4JrUptQ1iUhIK6TPeCHnIeSTiCRxKyhZEW+l4qZVqHSGac3iVFlpJqeMQyAw+IyEiISMpmZBcSCZVvARDHI0+26fziUn4weSyV/n+SRTNSxeM4fbbYc2rbmKdR8AbE95OT8MFKJ3QeSPceAgObYEtCyq8C961Dba1Y1QRYIQMQmyDOoZhG8Sm1DJoJITPRCOKx5UKLpVUs4iVSkmlhVJSKaVA6fi/QWottRZKSalbtFgngXauUZVa6TjH1CobhbO4F5ZK8IMfLq+pcfVqOHy4nfdavRpuuw2MV11LN4+Ad/9+eOEFuNAGJ3ZAx3Vw3TAMr4bVCyr8DPzMDtjR3k8aI2RgYlNqm9Sh8ZBQwoT0uWiELOAi4oLFWG3CtYnV2AeQGlQTsaC0ljo+D8cZNimEjLOikZCREJFUTAguFJNSxCftJlDhdPxkl/y2+YZGa611XKqKEaKEOAZN2xYlKCZiiU1MJJqmIRKCCcmE4koxKZkQXCohFEilkdaqmSNnUgmhmuymQnKlmFRcxI9Kx3aNYNwsZTrdpoiAEshmoVCY81PUYNQBzvbwq8cea2dKzy/+Yps0BAhBOt3egOEVKA44H4ePn310AqjWtoMRtihJWWbKMhVoJqUfiVCIiMewVEwKJiTjiknJlYz9OS6kkPHhQmuthVJMSiEUk4oJIaTiSsbg5M0qJY0QwhhhwFiBgtOG2TACxz4JnACQjgAar8ldfvJJePLJNuNkX/tamznWlZCcfc3kl+GXXwujqppzhRBGyKI0aRkZ21KgmVRBHG9oGtIZo6pYbCeF4FJxqbhAApRSSmstpeJKcaG4kKxlUblqYjsmN0UIEYLjInO9SMfMLGhtCwqFk9yXDANwz/79ve8+uO++dha+7W2wfftJ4w2WLuc9OfvayF1w111w11kF6gwtlwZAGGGTkoRpZGxLI82V8qNWZqyFVda0tM3NncU2VjaxqkBLqdhcrEopmq/I+KACAAgD1pg0fygr7j7TCwYRGjQ0awaF0kIpQFiB1lrHVY0YYk8LUYJVHAUFTTQiGEul0ZwawpkGEN3cbhHCCGuEEcRNEE1ylyXmry0TenrhDz4LyTn+jVGBbbsAnl8Rt273bvi5n2tnYSYDd98NV14Jl2Qp9kVrpZr111wpQE1/Lo7XYoQIBqIxxVoSTTRWoAnWUs20EcyCs5U8bZLWxAc+3ERpfPjTS+o+RwDJJNx5J/ynXzjp9e7dAJ9bWXdQSvjjPz5p7M/S5ZZb4Pd+7xII2zsUx6WWcbMLIBS7VQAazzOqSiuMFWhCsNQaSZhnUfWsRY0R21w+5z9L/lyJBNx4E9z13pNqvIo/Arrr7B+G25ann4a77oJTiFuXJL/7u3DHHZfw18ZhI979uZJx/ymcvPvHWJVKE42oRlIjjDFWGp3kSsCcQ0PT9sYmOv6PagbXVm6DC72gnlvTLijQaqY3OO40aT6FuRx9M7xVi29wrTYI1Pq3GSK+1itLixMkk/CGndDbOefVydmumcXEtuE9t8PWviV99zCE3bthdLSd+zY+DuPj7SxMJGBoCJ54YvYVzztpluirI+BVClbUeDCE2jTCLWsAM4CMo7QzkYVTv2aTJWgRzsa5lbMwww85S1Kz9IplBJRC/yq4YV52+NiZl27cAL9267Jvw4ED8L3vtXkL9+xpc6HnzQ8oPv30ST71WSTgvbgOG61oRrM3K67Sbr2ysFGdYywX/yE1gYvmsDwBLH0vpBR6euD6NwOZ+4OsntkkDw3BR28HsZyf8fe+12a9R7ncTvYjlsFBeOWVk17ZP2ci+7Fj8Fd/BXfeeZ6J3FZg6KZ5QIZmHdscH+BkPn2ETobpvDoSNGNk0YxpbTG2Xgizj+h5fxSv1pHToJphVB1nr9UcMzRDsKIX2hrRa/Y1EKAsZJOQ9MBb2GcDu5AaND71WwDXLOkdSiWoVJbNYT3j83leOwt9H/7sz06n8Pjj8NJL8MAD7fltWoMQK+jHgPGr8dsWduS01s1jRpPFYxafJ++O85221xSfFlhnbFRMX3ULXPWVZb/VP/xD+3M8XRcYa2fhU0+dbujZyiHgvXDOxnp2g4QmYmd2xkUynDNn4NeIh9QEswjFMpRP07GYufwa+PKXl9dP+rGPtTnHk3Oo19v8Ml//Onz966c7wPzGb0A+/3rw216NC6BbO77Ss9Z11szOwHjxd0Fn5wuc6/ADPb8PbIUFXNqDjpatUpEZyUJ2F+xaC2u/BF9acNXtcPtvwW8to6Y4TllW2+J7e/DB9ocTv44lNgcXOjzlQgUaN8ANfw9/vwt2/Qf8x6lrDDB+B37nZ+Fn23nD66+HBx5oZ6GUcPfd8Pjjl4D3qkAL+iKYxx63kc178Sq46pvwzT+AP3gYHl5w1Sfhkx+AD9Dlbmof/zi8733tfMof/xh27WqSd1yStrbOi4BsL24pex35bQiajB5nye89958fQGuMIB7pPe9oeAVcUYf6YkfD6+H6a5YYaWvupQZc0e5kBULaDNRFEezefVJidJ5s3Qp33AGrVp2fB8Aq3Dvx7D4gydzGy3ud06OZV3lj/Nl9QJLZjZf3OUuAfkyOcAHvglprrQ2MKZkfReyBngIUXoFXFuzwMsB4F7xrsR7GM0h3N3R3t+m3ffCDcPnl7aw9eBAefnjxHyqC226Dt73t9bAXEoRwqz3zgrOpcaBOK0UxMk4BbRGKN8ANR+DIBtiw4PL3wHu2w/Zlv+uWLbClLagXCjAx0WaE+JFHTkqMzpPBQbjtNti06eLGKo4Ly+HCBGvLwFKMTILP8cc/n36bQbBjUHxe+ete/WOzCelI2Kdamdg5WxHD46+7Dq67rp2FlQr88i9DECyqcPvt8IUvvIobKLTgvhcy3mwbw4ZJrWTCwJRorUTk+owLBgBgmrblpCwySwwPOhgPR3/wnQctZ2Bj92UF2fAxO73y97/zoGWv2th9WfH0yvGhIma3avWuXJAIRUqnLSNlmQs6Zx+Fj64kj4PAr/5qm2v/8R/h2WcXN3IUPv5xeOc7X/XPfUU+4pORaRJqERJ34V14uG3WDeiUaWQsc8HP/mH48Ifhwyvi027fDl/6UptrP/GJ03HTXH01/OmfvnpK8xWOWJMSi5ILdPNvfgmlkoaRsa1zXBR3Pv22rGMNFbNp23JDJldis+3pnlqTvFfr/kzqrUP9OecibOqGVAr+23+Dj31sUYW+vld1/XAsPP70/X/x7Z+8dPRofKS+7KbNd37kA1fkNhQbzD/w6Ofv+9HT+58CA+CtV91x4/s/dcMQzI46DyuTpf1Ps/535NcmM8Ezj33+vv94at9TYABcfdUdN73/Uzeshlku+bAyFSvnTlF+0+03/vxv3Lj65EYShKA3l+rJpExCtAal1PkYH9y2YUTxUDgMsL2nuKWr4yKPMl1zDdx//+nuR3s8OKeIlKBWUgCW0vl+W3cm0ZtLmZRCPIH7AsFs/CEVgNQalN7SVdjWU0To4kXsr/0avPe9i/61UDgrLCFag5QryHvDGMgcP60znejPpe0Yq0pfQGcM1Bp4qLXeUMzv6Os0zmZl9Mr225KW2Z/LbOzu4FJW/VC2iNMuBKdNCamUUgP5zPa+rh19XWnLvAiNi2HAzp2vzaUVQHli/749//zTE1HKWr15k60AKsyGsQPT0YaEpw5O7v3WEUai7s0bMxCOHp+efOlbT2744IaOTbmmRQvcsDxSKgzkMlap9NR3jjHcUh6Jle/a0JFpKYdu0FS2y6Wnvn2MYTZH+Zs/3fihjR25jllbiREqJJ2hQnZzT2Gy7gulpNKw4qsx4ll+UmsuRdKk/bn8Ff3dQx3Zi9xv6+mBnp5zFg9aUfGpeZJPOEMd2a29xcl6g0slY9qrFf8A4/G+QkiH0qF85or+rvWFHLqIHbetW2Hr1nPwPivqmKHUSX5bzrEHO7JbeoujlXoohFR05WO1ecDQIKQ0CR7oKuzo79rU2UHJ68ZvsyntTiffuLonEuLp4RPygikD1zFJqk3wG1f3vWVN/7pC7pwnuC90UQCjw0+//ND/eqX/y79zw+1veGuHANj/7LPVhx92HRFVD7+071+/Fb3169ddfuu7Bv3SY5//xkujf/LggRs+uH1DzsagAWTQUFOjdOANCeK+uP+Rb4ZXf/26Hbe9a9AvPfYnsfL1d23f2FL2G7qp3Niz/3vfDK/++jU7bnv3oF967E/+fs/o5x48cOMHt2/pmHvGRWnLWteZv2b9qscOHJ90fXHykLMV+7ybk0+V7sumbtmy5or+7t50cilb/srwOy9u1DPOVRCB5RiGcSZLvyzllqQsc6iQu37jwGMHjo1UXCGVpheAUY3ppkGr7nTy5i1rdg709GVTl0zqed/oQPEgAqWxlYiHMJ8l5ThwY5qDHZlr16967ODxV6ar4pT2vpV6xtBCKa10Z9q5YdPqKwd7VmXT5PWTJwUAk+ItvUWtwSTk8FQ14iISMg7yr6itcabFXSjlMR4I1ZtLX7Gq62d3bHrTQM/8roRLslRJIbwql7UzaQDAAKvXrevL5VR399Shp429D9/RfUvnQB8gQrJDW1aPTG19blKFzAXIggIYLh2v79ndN3DbJK8Yex6+s/vmrpby5tUjk1ufm1RBNKNcHqnFyqJKm8q9TeXB0cltzzSVTyYBg85U4qqhfq3hpdGpo9M1JqRBiG2suPuIWh5PyIUvBJf6ioHuGzcMvufyjYP59GLwXPlZv4tN6nv2vTT+//5/cOcHdl62vTd3JuX9L41/c4nKc6Qj6bxpdZ/S+sWRycOTVSaVIaVt0JUIWgAAiITwuQiF2tbbed36gZ/dsWl9IUcu2dTzLqwMtWf/7WExxTrv+MAVnbbhLEF5Mire+Qs7z6Dckqxj7RzsURpStnl4shIbWMtYcQfjGfq3SEifi1DITd2Fa9b2v3fHps1dHec+akPP773AgPIJZ2NPh0FJLmGPVRq1INJaC6kk1WrFpKWk1vFgb6V1yjK39mZ3rOp+y5q+qwZ6ejLJxfbFi4tX9qwb7UKqgHo2vPzyT+4/5L3pyaE33LohP5BLZTICYCTyUHVs1RC1kwlAGpudfQUcrDlwgnlRAyCrJFQOjwXuj/KbPpwEh6G9o6tWn6Tsx8puU/mVcb+pnBhFe0ZXraZ2KtlSJv6aA+OxcuHkwI9t0h6SvGKgO2kaWccuewEXSkgpCFYroYe9hbt4NFYkJMFoIJceLOTeuqb/zUN9W7sKFsGLHX1XftZvxZ20g9Hxg4efeXxPCSAAAECFrdetXbvuDf02QKV0+NDBh586ClCDHMDQlW/btHZtYW5pYTCx78TIiRfcLdeKSu3w8X0PPzUMUI2Vb924dl1xvvLo+Avu1msFaiWXyqXx+sFng1U7+wu9GXuR37htkO5MYkd/V8IwMrZV9sKIS66UIZVaMbE3rbXUiksVCoER6s2kBjqyV6/tf8tQ32U9RZsuGq+5ZFSXIaIBjZEXfvzywVfGSwAawM73FbZev2NVaiCnAMqHv//M4f3HhgEUDHYOrL3y1o2dJp2Z2yX8SvDKj1+ZXF2ysgROHPnBCyP7hocBFAx0Dqy78taNRZPORPJFUI2Vp8xMrDy6b3gYQMJA56p1V966sWjR1Cm3zqKkK524rL/TMWjGtqYbQcCElEoSJVdA9K1Jz6u1VDoetosQdKUTAx3ZNw/1vXmob0dvMWWZ5z6hT8836BFB0J1OdiSc/lxq71jppdEpL2IaYlK05hi780JtB62erJihjSulAVKW2ZdLv/vyDW8Z6t/U1WEQghf3tS9yXtlXJQRgVWGQbrrpp9996KfP/+im9C12kaxx1haQaaYtPf/3nckmBOk+MBn7bVpJOXxgHLMnb73q14syC5XFlL1Z5ShWzh2onqJMe/Y3rzz/jiFkELyuM9+ZSgwVss8cmzhedv2ItcbAnx9gzrg4MbWk0vHsFx0HCN8w2PvOy9Zd1tfVnU4YhLyGn0BzxlUYge0Y9PSJPK1B8zayfitJFICIJl7c98i37/3D+w9iKCMNSK1/3+ff+c7OnX22jA4de/rBf/m9v/wBgaN6SPHrPtpx1zv7sh32rI2tjxxp+L551dZk8kj56X+fq/yR3P/97v7cfGXPM6/amu3IpCSX3PfCfXufH/mnv3Tf/ls3XbGI39YyqmiomCumEmuK2WeGJ46Wal7ItI5bqc6j39Pkt49pp+PB3hqgkExc3t/1ru3rL+/v6s2kjMVPGrAig8Qr1muT/qT/ymOPfuMfHtz9zEEMEmR2/VvW/fy6/+eW1f3pQEbPPv0Pf/2dB370QwoRf+u2697+kSsH3tKRHDSav07WqJf2vyByG+z+bCp67j8e+Nq373/shxQifvW2697xkSsH3tyRTJ6i7PTlYuXv3P/YDymE/Oot17z9I29YdXUxlTLxglgd7MgUU87qQua545OHJ6tebGBn3DYN+vxZ2bmD4DRAR8LZ0lt81/b1V6zqHshlTo/Vi9Zvm/0cBHemE5evIr3ZVMULpxp+qeFrQFJpoZTUWkFz1ONrepPQDFA0SKWZkKEQUmmD4I5UeltvcXNPYUN3YagjU0g6BrkUy39Vklt/y84P3f/77wC3NhVW/uOf/+Iv/9zYkHrr+/7rzWeY7qCkOHb4J9Qv3r79Q52ZYXZG5VeeII1crMzbQkXSMgY6shalG7uCsh9O1j2PCamUkEqS2bqMcwQHHRfGqlAILqVUOm0bm3MdW3uLm3oKazvzg/lM2jLJa+uka6i/sPf5yX/8Hn77L+zcuqU7ewblF/e+MPHAw/jOD+zctrX7AmyUqIE++tjfPP3yseJb/tf9d2Whw65qPfzEy/2FSg2gc+RH/zBSnobP3P/J1ZALDtWe3/3t0QP/9HjhjbcMzbpiFaDKumpbZ/Dil2vl0lzl74wd+KfHiwsqd2TMaGpv9bm/+8q/Pv/IodQEuf0KgCuWAFrHNPpyaQOTdZ35ih9O1r1GxOMRz1I1LSq89hYVtfZApUAoFXLJpBRKJS26Lpvb1tu5qaewrjO/uiOTtkx6Ibr0K1TGxva98G//9Sf6zf/X+7/yu+uzQPCxE2X1xMv1ZBA2xg4PP/JH1a3vuPxzn/zQavD2PrKvcuTP/nmvc+P6wU3NrAOLYPoE9G5Oc3P60D/+cXXz2y//3Cc+tBr8lx99uXzkz/55r3XD+tWbm8p8RtkqxcrbP/eJu1ZD8PKj+0pHvvLgXueGDUNbCouBxDZobzZNCRkq5Cp+OOl6bsDiqkeplDq3DL2xuyakjsfVS6Uck64uZLf2Fjf3FNZ15Vd3ZLO2dR6xuiL8tthjtQ2jM40zttnI8C4vMd3wI6G4VErreNortAZbnZUnOGe6vFYx67FWXGmhlNBKazAIdkzbNo2OhJ1P2oVUYnNPYU0x159L25SQcxC5YhXWOPHMy2Blcxsu67VP/7RaymYmt3H7mZRXhliZ/mKiv7gBoHbUP65fGRmrvuRNfPvFics6jXnHnsCLiKr256hl2MCUakyMCq3NbYO5tDNWWkTZsJvKk6NCSStWLi+gLCtN5UXBSQlJYtyfT3ckHTdixZTjhiwSSmoFAARh1ByqrZsYfdWdUSfhU8es3Eo0jzEKI7AMkk1YadvMJe2OpDOQz2zq7hjsyOYT9tKKmRQEoyP7Dz3345fLAAEAwqSw5bp1a9dc0WcDlKcOHjr4yNPDAHXIYzx05ds2rRnqyM/eORWO7x0fLb/Y2HKDKFcOHt37yNNHW8pvuHXT2jXzlF8eH51+sbH1egGk+f3K06Pu4ReCVTtXdfSknZWOVq6hOnEg9FjXultvvioNq0xX6/FkEhCioMeGnwimvc6BX7r5TT2wyss1Cs9/7ydu5fCUe8uQDWBAAFAeP0hcRta/t1x6MIqizoFfuvmNPTDg5RqF5x/9SSiyc2YAACAASURBVONU5XqYXP9eJ5UArBwju6q/a7SvjCfqSzWqlCBKTCOH80m7EfFiyqmFUSSUVAo0YIwRatG8nbUYXGu4m9ZxzkQoxaXiSkqt47xYxrFSlpFP2vmksyqX3tRdGCxkC0nnNLnRsynB6MRE/dmXYf323v5VOfv0P9NgbGKiFiv3rco5Fxgdnh9U3SM/FX3v3LTtlhvfkgaKTkxM1FMm9OUDd2J6z7cles/mzTfffH0PsO4x+szBv39ipHZZj7+p4AAgqHjV+qEns9Z6Yav63n+V8J7Nm2+5+foeYD3j5OkDf//ESG1bjw8t5VpLGdxYedMtN1/fA7xnnD6z/5tPjNa29QZQoAvdwzjqlrBwL0nlHbsRsc60U/Wj2GfSGjBGCFqzbVtm9lU/jNmcRTyKMA4SCaliUjKT4rSdSNpmPmHnk3ZfNr2pu2N1IduZTp4jrK78eFt8DwxCKMYJyyik7KFCNhSyHkZVP/SYiImJcWvoa9N7Q/Mewvz/P2fk/IKaM+NLZ4fTI4QMQggFm9KuTHKomN3SW+zLpnMJO2ESkxC69NyTFkrwoBEyMcMraxl2wjEwxSrmlY245AALsr+qYNQ7/tiD/2Ln12/q3NqRcn20uLIOxrzjP3zwX+zcuk1d286gfP4lzrIx3QhxwiI0O5TI9P/61k1X/u2L//J7B8JKuk7AsEOplZSgkdaVUp2wka09VspK60CL6VJpgCcG+4pgGwQTMOxQzShXm8rmrPIqbg+0lHWsLARorHW1VMfR8a29ZsrKnD5sgJBtUIuSjGN2p5NMyECIihfUQxZwSREieN7w4gWOiDPb42KYnJvFao38Bg26Ob8IAcaYYhxzVq8uZNd3dWzuKXQk7ZRtOgY1MMZLOlEo+P/bO+/oOKsz4T/3vm16b5oZaWakUZdsyZbk3is2JpQApoRAckIapG3abpLv281Cvk3YnGSzSU42IWRDgAQHEjqBxMSWbWyM5SJbXbZ6n97b+77fHzMjS7LBNrGxDPd3OByQfzpHft9Hd557n3ufKyYTY61trz//6x/+qQeBH4mYpkpu/Y+PbNcvLGD5ZO/A4T8/951H91IwJBZjtPrTxo9tL1BpOXr6bxIcOhNNANdQIZf2ed76y5+/82gzBYNiMUar79fffb11tjx8JhrPcA2Vaq1Szqf4dCyS6Dx1bOSFX0e3f2P9gmsgb0MADM0qWZFmRU80IQsLUqWkrKkJACYFoW34lCuETXWloALgKC1X2eDek4lNBacAzACMEAS+7Uwn58F4mb6npdslgnGmXLI3E50KTgGYABghlJPBuEwPEgCWc+uXPfBpd1XNgb7vPwaqSxlUOYZmaUol5YxKWbaA4I8mQolULJWhEaKmr9HONa0X4XwRLOYv7Z5Z6YSzX8iPotN7SwCE6Sl2LmiBxoyEoYr0ardRW1lg0MmlKgkrZWka40uYBgvpdCIZjyYyImTrpbREzrKclEEI8ZlUKhmOpUTgAQOwUqWE42hqxgeFEOw403rml09yd352mcLE8uFYelpWSDjJbDnU0X+y95dPSLKycD55HkMhLGGlWoZKC3zAG5OpWZPZbLn+egDo7O5KdO5dU7rDWmQDDKCwOguGUtUjXjoSDwJIAFBmJOSdPP6WveaGqELJnmxeU359Xi5wFhiT1SNeJpyX+dGQdyInq7ms7LABBcAVOAuMyaq8rHj3WKUplsJKKZuPVT4QiwfjqWg2VvGcHpoXMdcQ54byzBFYzFdCs+Ga3TmJMGIxRWNaQtN2narYqKksMBgVMpWUkzIUQ70vSzbXSt425xVSGGMGMTSWMJRWxmV4cbrNHcKIwpjCKLthcMbCZv42WUEUBSF/16wgCNkrvQV+RkKdEcTpbY8UQoimpCwjYSgFx2qkEq1MopFJVFJWKWEVHKvgWEnuhaFLy7LjI7GBt//wsxff6hgaBAAA08JNlVs/ubNOU6wLJcNdf3votwdae48CB7B82Y61H31glXNGZCe8E97e4+nCbRKnVBE+su97j795vOcocADLlu1Y99EHVjlmNKGN+84rswDLl25fe+sXVjsA5lFxSsxA4PiJrthLp/Q71ztL7UoQRQj6o2xmtNrOKcuthYfoja9OxHYMjVZWWPhgf8dgMN5mW0ZJOGXCn/F2daXsoCtuNFAKxqEvfKt606sT8euHRqsqLHywv3MwGG2zLcMzZEGTk3WFh3PyWFVlVg5E2u3LsYS7yPbkGCGGQhRGLEPJWNrMCxlBEITchfEUxixNITSrCCXmOlQJ2ZUIQczH54xA5QUxI4g8L2bjM3vuASNEY0RTjBKzcpZVSVmNTKKVSdRSTiXhFBJWwTEKjmVoisbo3fZaziXAp880P3qkd9K2/Me77tGAlvPzwtBbHRZ9ICzymqHm34+EI8y3d/2TA5TRbn/r31/q78q8qVm0zjH9Gxf0AQtcQ4UucuyHsXCM/vauLztAFe32t/795cEu/k3tTDnkA0aUNFYbtEo2MXHSd+ypn73curdP7ZNsbbg2Vi/UCCqdi3/Ts/fgQ3c/K196z4ZVa741o6w5eyVZAkazfrwHM74pAA2APOSHgaNH3Za0Rv9JgB6A4Bx5ohdRvikANYAiLydVxZ8EkF+urBNjikEcTckY2nRO0DL5oEXTg2r+bvnpsD07qIpitkDBC7MGVSHfLo7CWIqRgsNyjlFKWI1MopNJ1FKJSpobURUShqUomsIUusRBNdzWu3/f73/6Qm+Gzy60u7Z+bsXqDXfUa2g0MtKyf/fDvz2UzgyAFWD5zq9vXLuhzDHjwz483BsKjYsN25WGaLjlz6987/FDqXRWvv1rG9dtnCsHg6Niw/VKQzRy7LlXHvrtufI8xqoydtVu+cuLrx547GCjfOnHv7LevaX8/JVKUKokWGpr6xF8sSCACQDGBqfik69tqqkoVBWlQ8fOK/ujOXl00BPLyQ4+PFempLb2nGy9uFilMcYMYmlKylAGxdxYpSmcrXAAiGhGZXM6TrNybnQVcv/Bi0K26poRhIyQ6+qUjVUKIznLyNhcrGplEo2MU0lYhYTLDrAcTdEUnq77kbzt/GUpBAAIUQA0xlKGzpaKssOEKALKp96CiDk6+7+YwTjFY5an0jSfyvApXkjzfCrDp2ghwwu8kP1H5LNvFLKdxHMLeBgjlqJkLC3nGKWEU0k4lZSTsTRDUdPz0UtcF+UB/BOdnadebJlIqSRFZaWcAOBPM8JojydZKoumu8bbn+lPMylTmVsBidGBibH2Z1pKP1aqVai4XCoWjgdGfHq7VslOeY++Opii8/JgVr7brVWqc3JiWuY83qOvDKbo9LQ83v7HltKPuXVqLTeP3jSN0t5e36GXXpy0KtUyEAUIe3xpo+m6eqOxwG6yK64rHzvV3HKyfcDAh7sGRtWuJWuKjXophPrCA61edaXWUmSXIAkotC575bby8fZ9Lac6Bwx8pKt/RO1csqbYpJdBaDA80OpVV6inZWdhVj56qnPQwEe6+kdVjiVrXCa9jLn4+ESAAVGiyFI4WxnKzgqyFwxjjGiM8wsSNEaIRpihMEvjNC+kMzxL86mMkOb5FM2n+en4FHlBzHYxFEFEgDAAQghjoDFmaUrOMUqOVUq4bKVJxjI4uwIN7yE+U6IYGO9KxLki96b1SxRgZUM8Py6XAU1jURjrPxT3ZkxFH1vfWADWkMKvPfXXt0L+Pk94nUMKQENMFDyj3UyUYlzbfVN/SiZwTraFFH7tqd3nkekIUhUXSuUywGkpo7bZTMMWP+tNXCs3S7OAtEVLlyxkmNFTCCTeePcbvzqTBsfiYpdyXcmclQ4KKJkknmGSyQQADxAPTvpbd1PmT8odRVrws+eVYa6sLSrSXsZBFQEGBADZYyHiOwRt9vMQA6IwZiic5nGaplL8rEE1PT2oiiLPny9oEVAU5mhKxjJKjlVK2ew0Q8bS2Wt/39OgGgfwn953ov3NwZDJredEHZ0A8Mcjcc9wEOrU/t79w2cOn5YWy83g4oXEaMuxXifY9XeX6qZnNKGpUCaRctbakf8vk4PHz0hdctO07ECFs+TwVDidlyeGcnKxIMRHWo71OqBQf7dby9LzdkOeXGFxVd24ZfhkkgupgG87vqd18JgeHA2r3bG5z51haUTJA3ExlUkBiACB4Y6Qf1DVsEZrTiqGQ+i8cnKm3J+TR8PnyPRM+TLEKkIUxgAiQig/ucUMxixPpXk+TfNsRkjxfJrnU7yQyvAZPrtqczYBEGckANlYZSlKztFyjs1++is5VsbSFH7PsfrhW28731tEGIDKF/pmptgMRUkEkWezEz4hLYhpns/wQvbf2YFGEABARAhAhOxyHU0hFlMsTUlomqUplqYYGlMIIUC50w8YwT9UQOcBhvve7vjrzwZtP/nmhg21S7UpgK4jR0LNzWEpn/T1tHa9+kxy7ZPraldfZwt5933/f9uGfv5i97qP1bpUXK5VbFjwjjHOxXLa19a175nk6t+tW7D2OlvIu++RrLzm7ppi9bQs5mR/R1fzM8nVv1uzYO02e9jb/IPH24d/8kL32o/Vls6fvA1ToHKYuAM13v99ohm6/QDAANQ03fDRu769tFAPBZIFOu39J579z4PNx/YCC7B1/R2lD17vdgLEO6c8PUd561KZw5rtm8A6F0j0nz3x50fe3HN0L7AAW6blRNekp+coX7BEOi07aiW6z5748yMH9xzdAyzAlnW3lz64o9T5j80xMMB01WS62kSLmKPFDEPz+QWJtJCLzHSGz/BCkhd4QRAFEWVDW0SYyi6wYZaiOJqW0BRL0wyNmdzqPBKzzYT+0VEEA7A0q2IYihE8kYQsLMqUXNnSpQAwkU6cGjrhjqhsdaWgBOCQXl+x2L0nI0wFPQAmAFoIiKn23nZpWMU0aU8f6XBjlS1X9cvKezOZ2fLpDklQZlymAw6AM5abDO7Pl1XVNA/+6Mmza8bzHlzQdP/2BtguCtD1xxdfev4zP341ufTL269fvqqEEuaUwwWep5CAMQZAIIQCE52te10NnzYVFcDM4895WaCQADk5HJzMykaH9UoPqjODNjuo0iJmaeAZISOIPM9nt/ymeSHNZ+cYfIoXMtlzDSg7qOaDFmOWpjiK4miaZSiWohh6btD+Y4NqFKCn5dlTXWOqup9+b7WZKZb7ADqfe05MJqII0iMH/zo0FmG+8NS9FWxZ8rB33yNf7+t79U3b7cUaGlMIBAA+6EFCnKsvV8X/us8XCNEPPvHxckl56rB33yPf6Ot79U37TDngASGWk/3+IP3gkx8vl5Sn3vbu+8E3+vpeOWC/zaWZz/V9ubnaveO/3DsA/D3QtesrP335Rx1Mctk//fhueePc6rMggsgzGDDCIAIIY0Odcc/Y2gaXTTcGw+eX0bQ83BWbHFrb6LLpxmD0HFkUeYZ6b0tVF4pVkaUoiSDwgpjh+YwopvlcrGZzgHNiFTDGFIVonB1gKY6mOZpiaCr7A6LLFqsf7rztgguqCAGiEBYpGuPcjvDs4dNcQSq//2LOtyCUz7URxoDR2cX6y/qqFBjbtBpOqcg+amdpacZg4M3mqc4DXOcbWyxb9PYCwDStcVY5hvwVbVOZZCoCoAIeoN8zEG7/m7lw63jSyw2+scW8yZCTXZWOIV9F2xSfmCEPhrJyyseelSla46p0DHsrT+Zk3Tx6dRrrwhu3/POC2gjEMtmvKNRGS4EetAwAaBn54nXf/F7Np8P3AwIw6ArMRQByAH/c65s4pXZTWtV0YVPLSOvXfuN71Z8KzZEDcZ9v4pTajXWq6fRAk5VrPhX6VFa2mIouUzXqfPGJGIxojFiKEiEfkPnIFKbP2aBZ34IQ5IIT5ZaEL3d8qjEuczU+2r3/6EP3PCtbes/WVSu/vu4dyj4SCdKbjKM9kag/V/UL+oS+E0fKLaxZdw9AF0B0tmwY6wlH/NmqX04us1BG5ycAZPABAEHh6iW3FDyxqGH3/2S4o33t97hnnRZIJiAw4bXII1KdEYCDkD+GJ4bqpEs12nP3piUTEJjwmGURSU4OxtA7yu/boIoxhUWRwpI5QQu5ctW7B212ye3KDKp6jlObDEgiAQAFQOWyZSAIcYw7B44X+/yS2vuwVg1sXGuoairtZYKegFcEA4AUwgD9A8ep0RBXeE/nSKcrHeBqP451mrx8mg3MlgdPUCM+SdHHO0c6XSk/W3vvLNnn8ftEkXvnPVvzCIUVKnbe//Xy+ub+3b9op9YWD6qAn1V9DsWF+HCVpUorV0MKQSDkM8aDMrMOy849rpWXK3U5OewzxILsO8kJITZcZa7QyTWXe491PgHAFBYZKpcAZONTyOUC4pyLz9/fWCV52zkPNLecOt0cb349cAygV+jBWNzeduDp06HGo466DaVaq1qpVqcAhpMRHBizuRiJXAZIoFizzYCSzt7xZCwVAVAJGfCfHk3EDmpKy2Qim8RdYzbntGyyGVAiK4en5Xh0Wg7MlvUo4ezJyfMpb2Nleqdd7bSfX+AomrMuNMxecBAA/MHJdF+LTb9AVWCcLjdxmOasC95Zrr2gfJnjE+VnizODdD7BIUrvWL60jpNNdmDgpsJdu391OgOOBrdLtnLOK6FokEglsXSCzhXyYv4JT9se2vZJbXGhBnzMeeRMHCcTAMK0bP2E2lWkgWuWdAjiI8f6ZQJW1pfqQF5gsgsGnb9bOxgQWR4K9I6JUDI+OApOLaSjocSZUwMKFxg1RgA2Ph6KpNqjjRUyrUUlBbDqi16NJGIz5UGFUzBojADcLPnqDarzMWglAAW6onB/sGPPU2KHs6HGVbKxVGc2IwAeIBDxKRMhjU4NHAsUyKnC4oLgJOX1eUVRCSBNhMB/sgPLJlX6VZLgaFCZCKq1asTmZWtoEqd8XlFUTMtIOq7SrpYER4PKZECVl2VZGSV8XkHUzdu8LT425Yu83SerdGrtRjloSiokIX4s+TYaxKKaVcbt1aeSaM2UFwQtJKZGPMHxbqdzo0qqzsRQom80ovcI1go9pZKoBSVrrz6VwqvnyOun5ajew1uysqjIyZNeqMjKgfEeh3OdSqr+x0LqXROAD1dHLhoIV+rBFhqc2L3y0IsvHWrbt0m3kTXSLtahxyyl5GY3jsQYVBp5Cpu6J5OxVBRAzGT4/q4RRmjZ0PCAnmfBM1tWn0emczIHM9piYAQqtTxNmfPyNY4AMB7xyYfbt9eqjUXmi5D9suH27TUqU9FFXDv+ofrdR5ixLv3cDU1wg5CGrj8++/zzX/j5G8mlX75pR9PSW9Hcqh/P8xQWKYxBRCCGAmPdp/aVNnzeVlgAMKuzSl5Gc+SShs9aCwuu4eeV8or+t3c3yxLYUqitAACIT4qeEY9ZKWiLTagMN4yfHhtqOeIpKQccHfK2tA5JSrQWrR5ACAz4wpHj7JLFar1dqQRQOhsmwqODLUc8xXl5kCvWnJXDeTn/UPm0kI5FQ+FgOJxKQTjkDwZDMqlSgRFFfXhiVgFQ5qj3nRx8+emHX86s+tzazdsXaF2MRM6yvHLOHhCWBZ1R6x2MhQI+USwAEMJ+vv1Il6MhonMUY/4UQGi2rPEORQIBnyhaAIRwkG8/0lXUENSeK3M52Rfwi2Jy3j6tWN9wb///viC7bVOppNYMAOAb90SjnvpC1uAuNPZJtx0/JvT1tnkqyyHS1ds3MjribEIqmTIZFiZODaQ1E1LHDh2lkVjSRkXttuNHxZwc7Z4hpyLCxKmBlHpcVpSVM0blWbkMYt29fSMjI45GpJIpr7FGKiRv+1CiLd3ccK/z4R0QDU5Evfuf/fHPfySt1Cy/+V/Wx979G/lMaqD3TTZRuKnmLr1iIHwxctyWlSPXzvPBGJhLu+uTAnBUbNIZXI2KaouCAeZCcvkGvd7RoKg2X0j+EIMoKFy38jbrbxcveeN/Morj/R23umaFXCIO3kmPVZ7Wao0AHATDUXpqeKFsuUpz7t60rFwgT2m0RgA2L8uXqTWqa/kpSTTIWO0O/2Lv/ta7dskBAAQZSutrbr5z+doaAyD1ylsTu5tbHr7tJ3Lw8sqUv3DJ18vWrigEgNBQdygahKZtKp06+8DsKz7q27235eHb/jsvN321bF1O7glF/NC0XaVTTz+w5FRn4PiTP3/u7dffHh0cg6l/3/W3lZtX3f1/trhRqf7DFa225Q/cWHxr3cdAjJzu6dn1yXtP8IvvWLZqwbc2XGDLezg4MdD6skvXwLmKMO5/dzkSmuhvfdmpW8RehDxPUdrUXG/D6Pef+xH18yQLAJDR6h31Nbff7SozWbWU8dZv9P3i0IFH//i8HJJBi7688YGvVi10aFKRrmDH2wntSlbv1FOUBICzustv/caZ/zm8/9FnZsp1Dm0q0h3seDuhWcHoXFlZLCiZll+UQSJk0Zc1fO6rVXVOLRlrSd52DcCp7Ua53QgAgdPhAaF3aDjYHva90jaxwDC7S5IA8WiCFoNWNcPRHKR4ITIxwiOKrSzUKKQj4XeWJXkZcE6OzFn8iEcTtBDIyfMsYUCXusSFABQam0Jju+zyh4x0UIiNtfRLMaNaWKIFRYGZy+hUgS71YBw4AVkMzvEI5ofHwKWFdCQY7usYUDklZo1RFNnEWDCS6YwurpBrLCopQhaDczyJ+aHZMmfWGEWRS4zPkK/lJ0bJQFpUWbMwlqSSI9kvqRAqaqgvqXZppUiUWhYXVUJTY1gKMAlmgAVrq131FjkAhCbPJGJpbYlDrpBlq/Vyy6KiSrGpMSwDmMjKNcU5eaovEUvMlAEAMVJGZbMWCw10abZtisluNUiB+/CN3zJTtcNQ7QCAcaWeibb1n+7qHp1ilGPrjPGZXiYD8VBUySZYuQIhBuLxaHyoV9SulhlN59wonZOZBD0tx4Z6Rd0qud6kOEdOZ+U4lssRmr+zQVavtZQuX9EIAyl57m4/a4G7duUiq13LyiVGcG2tWACxqJQByEC1o6p+q1tvlzIpX8gzcJxSrFQXmKQY0QAgM2pcWysWQDQiYQAyUOWoWrTVrS+UMil/Vl4+QzZk5VheLqpctMWtL5SxZNwledv8Jt9XNprAUo6iNSVKdeEXaysaHz35yn90x4LKWLavrMBneBBBEH1TISY9XFkgkbNKISakvV5PUUZbaDUAx9B4juz35GVOKeZlTVFeFrMyPy3TOVlB3gshS8rDew//dY8MSa02dRkAQGwyPTnqLVAxlmITVYKbRnunPK0tnpIyEEODE8dODsncNotWC6Lo7/eGYye4pia11qpQId7tahqNTHlOHPGUlOdlaYk1KwdycqNaa8vHn8inhFQ0EooEI+FUCoeDvlBQJ5MpFRTM46IfB2As3/pA6WbYef5JgtW2yHrToh03zfq6AMD7p8ZTYcpZo5efnTm9oxyYGk+FxdkycHo3t/zBzyw/Z/j+UI3fIg9COp7AvIClHIUsjbVm5483Lvj9/a2jbSN9YkGcyVBMKpUGgQYxERcmRqYMXJDSGxBwQjAUE0bHFkppnUGNEaJpJkMxqXQaBDYv67kg1hsQSISgJy6Mji3kaJ1BjbIyZpI5OZnIygGD3oARN3+fl0JbtGzJp5YtOf+fygHci+56YNFdc76e8cTDE0P9slpBpVPlU1Y5gLv+zgfq75wre+ORiaF+WY2guLBMIHnbPEdIQfDYsY7ka536neudxVYFiAIE/BFOGKuyS+TlZudeZv1r4+Eb1WNQbswE+tsHQnynrZjmWEXCl/D2dqSLGImrSU/JGYfBeaBi/WsTkRs0Y+Xlxkygr2MglO60FVMSVhHPyXRe1jvezMrqsfJyU1ZOddiWUxJWSd4LIZcIaLChvDT8i+bXO+56SgYAIMiwYKq5+a6Vq6uMmNas3hl/vbnlodt+KAN/RpWJFi75Wtm6ZTYQxdBgVygRR43XqbRKJQDCVOHqnb7Xm1sevu1HMvBlVJloYdM/la3Pyd2hRBQ1XqfSnj3Qm5ho9x176mfPvb27ZXxoHCb/9Q81a7avuvNbW91Q/EGrpYQA+vtbSoO8tu6ToJFfhHzUHUiqL0L+8JH0QODYS4fVMWS+Y4OTphAkkxCc9JqkIYPRgKrK6p4anUid7Lqv0AXahD/YfriHakgaNXqEJOEhfyh0RGxcpzQUqRQIqorqnoyOJU52f9zuYnTJrLw4YcjKw4Fg8IjYuFZpcKiVWTk2GjvZfZ/dxehTgUD74R5qcUyv0SEk+aA95dHwVLz1tc2aqqLiIrjQ7smxsCfW+tpmdYWj2AEfpq2WJG+7HKsHmWRg5Oi+nsGp3nxrJIqV6KtWlbts1WbJOXJ45GhHTKKlS6ttEpBdiWeAACic8nZ7Dna/MFkgV8pA4CHi9abNpi31RkOBRVMo3+wePfHGkdYTZ7TpSPfwiK60cZXToJGKoZ7w0CmvutJittslWAJKXXFh+Wb3WOueIydPntGmI92DWdmolYqh3qxsNheeK/fpMpGuwVGtu2m106iVkiT9qqwSAMQDwz0jxw+2ecCXyM92LcXGymWLbFKTIvdaYpNdnp6/twzARCgbQHpLcWnlsoU2KSgu+5ujFUjmqK5dGEtz6Vy/JTVFO5rqXVUurRQL0oKGoipoaojKAKaggKIXrKt2LjTLRT4dnDidTDDa4iK5TMYCAMKKgoaiKlgyS3bNkCltcZFcfrZMghkpo7bbSsRGLpztI2WxWQxSYOf9uH/pN9xQADLb4tUarLTrQXeBPghZeZVKUBReWAa4sidp4uHxMyNH97d7xMn8dlypodBQtbLOJrOpc+XBuPeMv+dvLf3CSK4SB2qL09GwuUyHDZe94wsGYFCif3/XmdBj/VaEEKTiEPFMahaa3ZVGrFU0lYqtHZ1PP/oXE+Yy3kh3EtcZqxZYpBilJvqCoakp5wK5VmdkWQSsvdEdONHeteux1/IyysvpyZkyg0Bjb3QHT7R17nrsNRPew/siXUlUZ6xeUCDDaJ7HRIMw5AAADphJREFULEVd6tWzrNLsKNt8s6nCZVUBc4EgZBSmorLNNxsrXbYLy1cuXBNRz+DI0f0dk6mx/D4hidair1q5wK5yaM+tzyYBfGeaj09MZWDxpmKjxHytzZE+GB/liVR04OQz/7lrd+uf+jkGAwKRVWordv7f27ZvKNbZWQooDKIoiOlEMuXzTfYdfOopn6VWc0+10nhl8jZMg9phZpvLJ379uzfgdAAAWIDa5bfcfuc/N9n1YJbUa9WfOPaH7x948+Q+kAJs3fLx0s9tcxcCJNonvadP8Pbl0qKC7OqDprieVX/i+NM/2H+gdR9IAbaclTvOkV11rOoTx5/+wYEDrc0gAdi6+Z7Sz213F5IM6qrlbeHJjt3NP/nmY93SriBFIwAQzYu21NxuUW5wqqUqjhIB+ED/odanv/rTvfTRIYyAAr6sbttNHy2s2GKnZUrqcjdl5zBlqdj2pbKtcNf5PyFthY22wsaP3DLr64IgpvxTo5mo2lGjz/dqQtPyzefIganRTFTpqNHLZtSTOGO5yVj++ZXnDEbzezRCCCjqUhcVlADKFZ8pu3h5+f1l8+OvG/GePvDmz770my7mhJfOBq2helX5TssXNhQb5FqWAoSE8Ghr55+/9ss30P7TGAGAmClatGXtg8vvapBpZLPu+rwMsErQV5YIT7Qfe/m7vwNeBAAjQO2d/7alZnWlHgPVsD3hBdm//tvz6XQ3uAC2fmFb6Y1LbTRAYPR0OOTFdTcq80dDLIu3Bz2i7LvffSGZ6gIXwNYHt+Zkz8jpUHAS192o1Gum5ZAP8rIT4LoHt5beuMw2zz8+MX4PMw2LbYHF9uPFFyvXXrx8BWM1MHTkrV994/HWxKFJhkEAIGrciypu131mU5VZaeComSmjIGRC6UTb4Sd+evhEEn9rxS0NJG+7ajAApbXrlhQuuWGRBrRsLB0f79nzYqLF90fdlzc5oUABQioaPPbUi3/b/5vXz/j7ZdXba6+/kr8yABpb/S3bvr2oLgLxXF9ZpcZsKdCDhgUAHadq3PidR+oCET9gAIPeai4CkAH4Yh7/ZJvWTemU05UlHadq3PjtHyx8F1l1HvmzOdlUeGX6yhIuGh3NNm7//F13uSsWqEWAwFTvib5DXzpqeChFL19XJAIMeqPKtsnP3/nF+gecJrWQgf5Dh8ZSv3xsT8G99fpq0/zofBYQhb6+t6vCrHnhfaCWX1g+c6QyTJsW3gdqGYmBaw41QN2mT9z2kYqF9WpAKOAbaOvd+8UO/f8RuM2bnIAglAT9BHz6ji8uuM9qVQOgwPG+U6G/PPRU179vMNjfyx0k7z7ZADBW7fiavvG+TZHpYV9ZUOIwqrMrPXb74pvv+F39JlGMgRTAUFRpMQEggJB/IBUL2kv0cul0+cVmX3zzzsfrNwp5ucKclcOBwVTUa3fr5ZLp2YbNtuimnY/XzZExiZH5ggKgds2dmzdUN9VrgMHB4Gh3795/7TM++Df5TRsdIDmb6YR9fT3Hnnrp1FTfVInVeG1mQB+YvA0BqHSWctuK9SuMYJHEE4E+tuWxU/G+/lA2bQKEMCU36AuK3CWZ0VBEyV7pn4eTG1yFGtc7LHRxFGO01RlnH3bkAfyBiUz/cZthocpiZGbK1jqj9Rw5OMHnZMO7y4SrC4exsbCysXRp42qDCBDup8dg/6GecCBfhOJUFnfZmoLqdeVWl04hpGEsGXlj+LlnxzKRyvQVm45f8nDByO2Na/QSjV0HF+p+TgMjtzes1nMauw60V7nqR3gvC1wAOlvZIsfKNeuMgFF4+O0wvHGoN+IZj2ZvcqNkukLHko8UNJQZiowKADQY3+1p6/Z6A8kkf/l/HgpAqilaoLJD6fkFudwgL17jLJ71xQSAb/y0NDTJlW2QqhTULHn1eWVJcNxUtlGqVtJnZf25MmFeLdxoC4oXWleuX2sEjopMnBJx8390RyZGIjDzyoTAmTcHO1o7+WLGpLOpgL82U+8P6pYnDmGVQsXJEBXEuc8DzMrVtbdcX7tp/U19b/y/RyfmY98jAWAs7FGOtm2t0RjspouRFTnZfBG5JPlcnC/IWFau1jEcl71dBQPYHJU2R2Xuj0WERZPVaEyvoKIGhK7E2PKeqn4qYFQrP19xCfLnKsjL/sAELcPI1TqGk+B8xq/U25TLb3YCn0zFw/54GsY9U2J6pKmINsjV8+XHjgL0e/rLEhF1bQnWcRchD5TFA8raEqzlyEu/RpHStEKlZTkpxvlPPVHICOnE8NGXu/uH/et+425v58K9R0neNp/wphNnug9Y/QV2yzZgr1KPnffUV9ZZdZ3BXBlXVlnkF+4r66y6zmCqaLoImTB/EAEGvUPx468s5BaptOc95SvwwRMH2waCr9gbNks5chCYMA8YCoyFj724kCnX6lSzN64N73+rec93f3uQNy1yLGj68TeXLXHqrlDe9p62GFat/lJhKkMrZJQcv/s4qQSoWv2FwkSGUl5YJpPhecto2OM98WqVYDQYNLnCQsrXFzj21MFo+ZTj5psqZYkxuEBHe5K3XXkEgInhLt/gE2hYASqGFtM071hhr60p1oPiKmU0l95XFgMotYVKbeHFyhq7UmMnv6XznyjP97X9/dn2zpZ2BQCwgo9VbrnD5bY5z+1GG5vMTHW9fjTUFVGvWFdsMZCGlYSrQhxgqH3/Cyf7OnqUgIAVgoJ0y13OCmeJenbexioVOmtpWamgNegogX9rIKzgIlrplWjqcunFfRaALajWXLxsqdaQd3+tkQQY6Tr8yvGxgdNKoBEjhoFadYururREAxQCCJwZHez4cycv2qqryhpK9czgtbyY+oHJ2zIAw6ePtv7pT39hsCiky5Xq9V95/N4Fq91VpPsF4eoT4tMdbz7b3xWkaITT8dVrdt70hV/cV09j44zFA1EUxUw8OdntO/nK052FypK6h24sNZCHR7g6RAB6Dr/Uf8JL00jIJFY1XHfDVx7/zCIJbZ2z4lXQVL+96efbATzNh54//v0HDkV/fTddYtAgshxFeH+IAZw+9nrboUmGQUImubR6xfav/PbeepOiiAIAEMZbero7H+qr+1aZebU1EwsHApFkJJ6Oh/3RmDSW4qQMQtdOsH7wzpNev0gTCL69p+3vr/Z2rTppsVRVqUhQE6420+dJHdVSz7EnnxxhDr64Z3NBvcZomjHvE9LBE7v+emTw0ZP29ZuXrKwvMQIpfxOuFtPnScvr1YETf/j9YGr/i3/fZlqks1ql5/8OVZGuaHRp3X6GigaCAGTdivA+MX2edGG9Jtj13DN9nr2739xibrQXFckAIBzyB7oPia88/6tmycsqFgBiU13ReDz8/H2DN36677rr7qrXyFiSt73fzDxPGhYKMoXysddO7u1H1BHd5jItqMgOU8LVZPo8ae0Ktc+W6jnYMtb89G/bmJul9W63FiDXd/eNPV1TnXF9ec2iVQtcC4s0EvLkCFeN6fOkS9cZI/Z03+HDPa/t+k0HvlEtqSnTAkqMjPviR4ekC91aW7bNLp/MJNPhKKsFTLrnE95Hps+TblhrjJTgkSMHj7/+0u+70A6DbFGZDih9qaNq5b1bhuP5g85BZsIbRIyhxGLUGeQUvqYWhj94RUQMoLYuXK20yIfue7jHE33e2XhzrbTMyMgYJKYTyVTIHwhFEoloPMoH/H6OUwAjlTD48raIJBDOj4RizFU33JGM7Br4xQ9aXMUJpVlXLVEwgu/0vqO//9LP4OvF9Yt/dlMZAKR8Ph8AI1WwLMuRT0HC1Zt1AHDlW2/h08+f/snDbTZrQlekr5UqI719XaO/eln+qY+US2uMAACe3tF+T9tIiQMr555dIBDer8mGe/1HEGb7Hn24V62Nm0rUtVK9Y82SknVLPnrW6372M609vUcX/XBHjW7ZtdY064O6+UsnVdVt/sqd1F9anv/3+w5vvGfH5qbPNqjzfXe7/P2jKaYZ721+vHLH9VtXfOIj1RoAsvub8H5NLRwlS9fv/EH4yReefLbt7V0bdn6n0S+2tb/4Qnocnhrc89ePPplrU0uzkmX3fGfNimXrHeS5Ea4uhUV1a+7+b+8fXnrl5Udad22851/WqOxMz9KhHz7xPcl/plgAgLTO5Khv/K+7FjYWkAtaCFcPa0HFitsf+dSzLx/Y/f325zfe86VNZTuqPjhbhT8YeRtDc/qiZSu1SisjBxkFABKaM9sb19Ul5L50+1Chxihn8313Syqq5FC1CACAloLdYNFIabLYRrhSIACp2u6u2LoFHEaTJPsVhcpaUboZlnibJRHNlEGmkGVoR92CbffrAGYeTqcY1qpTKMmUgvB+I1FaXBXbrhOLC/TS7PAoV5hK3ZtvbAzsQ2PUsFGmVKgMXNmqNU0wKKiC2e+yF1bWrdrsdqmxgjxCwvsVq3JDUdmmzZmyQrUMMAIAmUxXXLz++obQgUxvYtisUEvmpjpq1+piRQVt58zX4FUuSLzEW2cJBAKBQCAQCFcFcsEagUAgEAgEAsnbCAQCgUAgEAgkbyMQCAQCgUAgeRuBQCAQCAQCgeRtBAKBQCAQCASStxEIBAKBQCCQvI1AIBAIBAKBQPI2AoFAIBAIBALJ2wgEAoFAIBBI3kYgEAgEAoFAIHkbgUAgEAgEAoHkbQQCgUAgEAgkbyMQCAQCgUAgkLyNQCAQCAQCgUDyNgKBQCAQCASStxEIBAKBQCAQSN5GIBAIBAKBQPI2AoFAIBAIBALJ2wgEAoFAIBAIJG8jEAgEAoFAIHkbgUAgEAgEAoHkbQQCgUAgEAgEkrcRCAQCgUAgkLyNQCAQCAQCgUDyNgKBQCAQCAQCydsIBAKBQCAQSN5GIBAIBAKBQCB5G4FAIBAIBAKB5G0EAoFAIBAIJG8jEAgEAoFAIJC8jUAgEAgEAoHkbQQCgUAgEAgEkrcRCAQCgUAgEEjeRiAQCAQCgUDyNgKBQCAQCAQCydsIBAKBQCAQCCRvIxAIBAKBQPig8f8B6LjK1tlTh0IAAAAASUVORK5CYII=;" vertex="1" parent="1">
          <mxGeometry x="10" y="10" width="829" height="368" as="geometry" />
        </mxCell>
        <mxCell id="oGxhNb5uJmhNpSwy4LQq-2" value="S1" style="shape=mxgraph.cisco.switches.workgroup_switch;sketch=0;html=1;pointerEvents=1;dashed=0;fillColor=#036897;strokeColor=#ffffff;strokeWidth=2;verticalLabelPosition=bottom;verticalAlign=top;align=center;outlineConnect=0;fontSize=14;" vertex="1" parent="1">
          <mxGeometry x="55.5" y="580" width="101" height="50" as="geometry" />
        </mxCell>
        <mxCell id="oGxhNb5uJmhNpSwy4LQq-3" value="S2" style="shape=mxgraph.cisco.switches.workgroup_switch;sketch=0;html=1;pointerEvents=1;dashed=0;fillColor=#036897;strokeColor=#ffffff;strokeWidth=2;verticalLabelPosition=bottom;verticalAlign=top;align=center;outlineConnect=0;fontSize=14;" vertex="1" parent="1">
          <mxGeometry x="264" y="580" width="101" height="50" as="geometry" />
        </mxCell>
        <mxCell id="oGxhNb5uJmhNpSwy4LQq-4" value="S3" style="shape=mxgraph.cisco.switches.workgroup_switch;sketch=0;html=1;pointerEvents=1;dashed=0;fillColor=#036897;strokeColor=#ffffff;strokeWidth=2;verticalLabelPosition=bottom;verticalAlign=top;align=center;outlineConnect=0;fontSize=14;" vertex="1" parent="1">
          <mxGeometry x="482.5" y="580" width="101" height="50" as="geometry" />
        </mxCell>
        <mxCell id="oGxhNb5uJmhNpSwy4LQq-5" value="S4" style="shape=mxgraph.cisco.switches.workgroup_switch;sketch=0;html=1;pointerEvents=1;dashed=0;fillColor=#036897;strokeColor=#ffffff;strokeWidth=2;verticalLabelPosition=bottom;verticalAlign=top;align=center;outlineConnect=0;fontSize=14;" vertex="1" parent="1">
          <mxGeometry x="692.5" y="580" width="101" height="50" as="geometry" />
        </mxCell>
        <mxCell id="oGxhNb5uJmhNpSwy4LQq-6" value="R1" style="shape=mxgraph.cisco.routers.router;sketch=0;html=1;pointerEvents=1;dashed=0;fillColor=#036897;strokeColor=#ffffff;strokeWidth=2;verticalLabelPosition=bottom;verticalAlign=top;align=center;outlineConnect=0;fontSize=14;" vertex="1" parent="1">
          <mxGeometry x="67" y="710" width="78" height="53" as="geometry" />
        </mxCell>
        <mxCell id="oGxhNb5uJmhNpSwy4LQq-7" value="R2" style="shape=mxgraph.cisco.routers.router;sketch=0;html=1;pointerEvents=1;dashed=0;fillColor=#036897;strokeColor=#ffffff;strokeWidth=2;verticalLabelPosition=bottom;verticalAlign=top;align=center;outlineConnect=0;fontSize=14;" vertex="1" parent="1">
          <mxGeometry x="275.5" y="710" width="78" height="53" as="geometry" />
        </mxCell>
        <mxCell id="oGxhNb5uJmhNpSwy4LQq-8" value="R3" style="shape=mxgraph.cisco.routers.router;sketch=0;html=1;pointerEvents=1;dashed=0;fillColor=#036897;strokeColor=#ffffff;strokeWidth=2;verticalLabelPosition=bottom;verticalAlign=top;align=center;outlineConnect=0;fontSize=14;" vertex="1" parent="1">
          <mxGeometry x="494" y="710" width="78" height="53" as="geometry" />
        </mxCell>
        <mxCell id="oGxhNb5uJmhNpSwy4LQq-9" value="R4" style="shape=mxgraph.cisco.routers.router;sketch=0;html=1;pointerEvents=1;dashed=0;fillColor=#036897;strokeColor=#ffffff;strokeWidth=2;verticalLabelPosition=bottom;verticalAlign=top;align=center;outlineConnect=0;fontSize=14;" vertex="1" parent="1">
          <mxGeometry x="704" y="710" width="78" height="53" as="geometry" />
        </mxCell>
        <mxCell id="oGxhNb5uJmhNpSwy4LQq-14" value="" style="edgeStyle=none;orthogonalLoop=1;jettySize=auto;html=1;rounded=0;endArrow=none;startFill=0;strokeWidth=3;strokeColor=#FF3333;fontSize=14;" edge="1" parent="1" source="oGxhNb5uJmhNpSwy4LQq-7" target="oGxhNb5uJmhNpSwy4LQq-8">
          <mxGeometry width="80" relative="1" as="geometry">
            <mxPoint x="353.5" y="741.5" as="sourcePoint" />
            <mxPoint x="494" y="731.5025663716813" as="targetPoint" />
            <Array as="points">
              <mxPoint x="431.5" y="741.5" />
              <mxPoint x="431.5" y="731.5" />
            </Array>
          </mxGeometry>
        </mxCell>
        <mxCell id="oGxhNb5uJmhNpSwy4LQq-15" value="" style="edgeStyle=none;orthogonalLoop=1;jettySize=auto;html=1;rounded=0;endArrow=none;startFill=0;strokeWidth=3;strokeColor=#FF3333;fontSize=14;" edge="1" parent="1" source="oGxhNb5uJmhNpSwy4LQq-8" target="oGxhNb5uJmhNpSwy4LQq-9">
          <mxGeometry width="80" relative="1" as="geometry">
            <mxPoint x="575.5" y="736.5" as="sourcePoint" />
            <mxPoint x="710" y="737" as="targetPoint" />
            <Array as="points">
              <mxPoint x="653" y="740" />
              <mxPoint x="653" y="730" />
            </Array>
          </mxGeometry>
        </mxCell>
        <mxCell id="oGxhNb5uJmhNpSwy4LQq-16" value="" style="edgeStyle=none;orthogonalLoop=1;jettySize=auto;html=1;rounded=0;endArrow=none;startFill=0;strokeWidth=3;strokeColor=#FF3333;exitX=1;exitY=0.5;exitDx=0;exitDy=0;exitPerimeter=0;fontSize=14;" edge="1" parent="1" source="oGxhNb5uJmhNpSwy4LQq-6">
          <mxGeometry width="80" relative="1" as="geometry">
            <mxPoint x="133.5" y="739.5" as="sourcePoint" />
            <mxPoint x="277" y="735" as="targetPoint" />
            <Array as="points">
              <mxPoint x="214.5" y="741.5" />
              <mxPoint x="214.5" y="731.5" />
            </Array>
          </mxGeometry>
        </mxCell>
        <mxCell id="oGxhNb5uJmhNpSwy4LQq-17" value="PC1" style="shape=mxgraph.cisco.computers_and_peripherals.terminal;html=1;pointerEvents=1;dashed=0;fillColor=#036897;strokeColor=#ffffff;strokeWidth=2;verticalLabelPosition=bottom;verticalAlign=top;align=center;outlineConnect=0;fontSize=14;" vertex="1" parent="1">
          <mxGeometry x="75.5" y="411" width="61" height="54" as="geometry" />
        </mxCell>
        <mxCell id="oGxhNb5uJmhNpSwy4LQq-18" value="PC2" style="shape=mxgraph.cisco.computers_and_peripherals.terminal;html=1;pointerEvents=1;dashed=0;fillColor=#036897;strokeColor=#ffffff;strokeWidth=2;verticalLabelPosition=bottom;verticalAlign=top;align=center;outlineConnect=0;fontSize=14;" vertex="1" parent="1">
          <mxGeometry x="284" y="411" width="61" height="54" as="geometry" />
        </mxCell>
        <mxCell id="oGxhNb5uJmhNpSwy4LQq-19" value="PC3" style="shape=mxgraph.cisco.computers_and_peripherals.terminal;html=1;pointerEvents=1;dashed=0;fillColor=#036897;strokeColor=#ffffff;strokeWidth=2;verticalLabelPosition=bottom;verticalAlign=top;align=center;outlineConnect=0;fontSize=14;" vertex="1" parent="1">
          <mxGeometry x="502.5" y="411" width="61" height="54" as="geometry" />
        </mxCell>
        <mxCell id="oGxhNb5uJmhNpSwy4LQq-20" value="PC4" style="shape=mxgraph.cisco.computers_and_peripherals.terminal;html=1;pointerEvents=1;dashed=0;fillColor=#036897;strokeColor=#ffffff;strokeWidth=2;verticalLabelPosition=bottom;verticalAlign=top;align=center;outlineConnect=0;fontSize=14;" vertex="1" parent="1">
          <mxGeometry x="712.5" y="411" width="61" height="54" as="geometry" />
        </mxCell>
        <mxCell id="oGxhNb5uJmhNpSwy4LQq-21" value="" style="edgeStyle=none;orthogonalLoop=1;jettySize=auto;html=1;rounded=0;endArrow=none;startFill=0;strokeWidth=3;" edge="1" parent="1" source="oGxhNb5uJmhNpSwy4LQq-2" target="oGxhNb5uJmhNpSwy4LQq-17">
          <mxGeometry width="80" relative="1" as="geometry">
            <mxPoint x="106" y="570" as="sourcePoint" />
            <mxPoint x="350" y="430" as="targetPoint" />
            <Array as="points" />
          </mxGeometry>
        </mxCell>
        <mxCell id="oGxhNb5uJmhNpSwy4LQq-23" value="" style="edgeStyle=none;orthogonalLoop=1;jettySize=auto;html=1;rounded=0;endArrow=none;startFill=0;strokeWidth=3;exitX=0.5;exitY=0;exitDx=0;exitDy=0;exitPerimeter=0;" edge="1" parent="1" source="oGxhNb5uJmhNpSwy4LQq-3" target="oGxhNb5uJmhNpSwy4LQq-18">
          <mxGeometry width="80" relative="1" as="geometry">
            <mxPoint x="320" y="580" as="sourcePoint" />
            <mxPoint x="320" y="494" as="targetPoint" />
            <Array as="points" />
          </mxGeometry>
        </mxCell>
        <mxCell id="oGxhNb5uJmhNpSwy4LQq-24" value="" style="edgeStyle=none;orthogonalLoop=1;jettySize=auto;html=1;rounded=0;endArrow=none;startFill=0;strokeWidth=3;" edge="1" parent="1" source="oGxhNb5uJmhNpSwy4LQq-4" target="oGxhNb5uJmhNpSwy4LQq-19">
          <mxGeometry width="80" relative="1" as="geometry">
            <mxPoint x="340" y="596" as="sourcePoint" />
            <mxPoint x="340" y="510" as="targetPoint" />
            <Array as="points" />
          </mxGeometry>
        </mxCell>
        <mxCell id="oGxhNb5uJmhNpSwy4LQq-25" value="" style="edgeStyle=none;orthogonalLoop=1;jettySize=auto;html=1;rounded=0;endArrow=none;startFill=0;strokeWidth=3;" edge="1" parent="1" source="oGxhNb5uJmhNpSwy4LQq-5" target="oGxhNb5uJmhNpSwy4LQq-20">
          <mxGeometry width="80" relative="1" as="geometry">
            <mxPoint x="590" y="646" as="sourcePoint" />
            <mxPoint x="590" y="560" as="targetPoint" />
            <Array as="points" />
          </mxGeometry>
        </mxCell>
        <mxCell id="oGxhNb5uJmhNpSwy4LQq-27" value="" style="edgeStyle=none;orthogonalLoop=1;jettySize=auto;html=1;rounded=0;endArrow=none;startFill=0;strokeWidth=3;exitX=0.5;exitY=0.98;exitDx=0;exitDy=0;exitPerimeter=0;fontSize=14;" edge="1" parent="1" source="oGxhNb5uJmhNpSwy4LQq-3" target="oGxhNb5uJmhNpSwy4LQq-7">
          <mxGeometry width="80" relative="1" as="geometry">
            <mxPoint x="340" y="626" as="sourcePoint" />
            <mxPoint x="340" y="540" as="targetPoint" />
            <Array as="points" />
          </mxGeometry>
        </mxCell>
        <mxCell id="oGxhNb5uJmhNpSwy4LQq-28" value="" style="edgeStyle=none;orthogonalLoop=1;jettySize=auto;html=1;rounded=0;endArrow=none;startFill=0;strokeWidth=3;fontSize=14;" edge="1" parent="1" source="oGxhNb5uJmhNpSwy4LQq-2" target="oGxhNb5uJmhNpSwy4LQq-6">
          <mxGeometry width="80" relative="1" as="geometry">
            <mxPoint x="370" y="670" as="sourcePoint" />
            <mxPoint x="370" y="751" as="targetPoint" />
            <Array as="points" />
          </mxGeometry>
        </mxCell>
        <mxCell id="oGxhNb5uJmhNpSwy4LQq-29" value="" style="edgeStyle=none;orthogonalLoop=1;jettySize=auto;html=1;rounded=0;endArrow=none;startFill=0;strokeWidth=3;fontSize=14;" edge="1" parent="1" source="oGxhNb5uJmhNpSwy4LQq-5" target="oGxhNb5uJmhNpSwy4LQq-9">
          <mxGeometry width="80" relative="1" as="geometry">
            <mxPoint x="739" y="630" as="sourcePoint" />
            <mxPoint x="739" y="711" as="targetPoint" />
            <Array as="points" />
          </mxGeometry>
        </mxCell>
        <mxCell id="oGxhNb5uJmhNpSwy4LQq-30" value="" style="edgeStyle=none;orthogonalLoop=1;jettySize=auto;html=1;rounded=0;endArrow=none;startFill=0;strokeWidth=3;entryX=0.5;entryY=0;entryDx=0;entryDy=0;entryPerimeter=0;fontSize=14;" edge="1" parent="1" source="oGxhNb5uJmhNpSwy4LQq-4" target="oGxhNb5uJmhNpSwy4LQq-8">
          <mxGeometry width="80" relative="1" as="geometry">
            <mxPoint x="530" y="631" as="sourcePoint" />
            <mxPoint x="530" y="711" as="targetPoint" />
            <Array as="points" />
          </mxGeometry>
        </mxCell>
        <mxCell id="oGxhNb5uJmhNpSwy4LQq-43" value="172.31.1.0/27" style="text;strokeColor=#666666;align=center;fillColor=#f5f5f5;html=1;verticalAlign=middle;whiteSpace=wrap;rounded=0;fontSize=14;fontColor=#333333;" vertex="1" parent="1">
          <mxGeometry x="-30" y="660.5" width="125.5" height="30" as="geometry" />
        </mxCell>
        <mxCell id="oGxhNb5uJmhNpSwy4LQq-44" value="172.31.1.32/27" style="text;strokeColor=#6c8ebf;align=center;fillColor=#dae8fc;html=1;verticalAlign=middle;whiteSpace=wrap;rounded=0;fontSize=14;" vertex="1" parent="1">
          <mxGeometry x="180" y="660.5" width="125.5" height="30" as="geometry" />
        </mxCell>
        <mxCell id="oGxhNb5uJmhNpSwy4LQq-45" value="172.31.1.64/27" style="text;strokeColor=#82b366;align=center;fillColor=#d5e8d4;html=1;verticalAlign=middle;whiteSpace=wrap;rounded=0;fontSize=14;" vertex="1" parent="1">
          <mxGeometry x="400" y="660.5" width="125.5" height="30" as="geometry" />
        </mxCell>
        <mxCell id="oGxhNb5uJmhNpSwy4LQq-46" value="172.31.1.96/27" style="text;strokeColor=#9673a6;align=center;fillColor=#e1d5e7;html=1;verticalAlign=middle;whiteSpace=wrap;rounded=0;fontSize=14;" vertex="1" parent="1">
          <mxGeometry x="610" y="660.5" width="125.5" height="30" as="geometry" />
        </mxCell>
        <mxCell id="oGxhNb5uJmhNpSwy4LQq-47" value="172.31.1.0/27" style="text;strokeColor=#d6b656;align=center;fillColor=#fff2cc;html=1;verticalAlign=middle;whiteSpace=wrap;rounded=0;fontSize=14;" vertex="1" parent="1">
          <mxGeometry x="144" y="763" width="125.5" height="30" as="geometry" />
        </mxCell>
        <mxCell id="oGxhNb5uJmhNpSwy4LQq-48" value="172.31.1.0/27" style="text;strokeColor=#ae4132;align=center;fillColor=#fad9d5;html=1;verticalAlign=middle;whiteSpace=wrap;rounded=0;fontSize=14;" vertex="1" parent="1">
          <mxGeometry x="361.75" y="763" width="125.5" height="30" as="geometry" />
        </mxCell>
        <mxCell id="oGxhNb5uJmhNpSwy4LQq-49" value="172.31.1.0/27" style="text;strokeColor=#23445d;align=center;fillColor=#bac8d3;html=1;verticalAlign=middle;whiteSpace=wrap;rounded=0;fontSize=14;" vertex="1" parent="1">
          <mxGeometry x="579.5" y="763" width="125.5" height="30" as="geometry" />
        </mxCell>
      </root>
    </mxGraphModel>
  </diagram>
</mxfile>
